Ubuntu-C.ufo
<glyph name="exclam" format="2">
	<unicode hex="0021"/>
	<advance width="263"/>
	<outline>
		<contour>
			<point x="178" y="505" type="line"/>
			<point x="178" y="421"/>
			<point x="166" y="284"/>
			<point x="157" y="216" type="qcurve"/>
			<point x="106" y="216" type="line"/>
			<point x="97" y="284"/>
			<point x="85" y="421"/>
			<point x="85" y="505" type="qcurve"/>
			<point x="85" y="693" type="line"/>
			<point x="178" y="693" type="line"/>
		</contour>
		<contour>
			<point x="191" y="46" type="qcurve"/>
			<point x="191" y="23"/>
			<point x="158" y="-13"/>
			<point x="131" y="-13" type="qcurve"/>
			<point x="104" y="-13"/>
			<point x="72" y="23"/>
			<point x="72" y="46" type="qcurve"/>
			<point x="72" y="70"/>
			<point x="104" y="106"/>
			<point x="131" y="106" type="qcurve"/>
			<point x="158" y="106"/>
			<point x="191" y="70"/>
		</contour>
	</outline>
	<guideline x="131"/>
	<guideline y="-13"/>
</glyph>
<glyph name="numbersign" format="2">
	<unicode hex="0023"/>
	<advance width="567"/>
	<outline>
		<contour>
			<point x="137" y="250" type="line"/>
			<point x="163" y="443" type="line"/>
			<point x="47" y="443" type="line"/>
			<point x="47" y="509" type="line"/>
			<point x="172" y="509" type="line"/>
			<point x="197" y="693" type="line"/>
			<point x="269" y="693" type="line"/>
			<point x="243" y="509" type="line"/>
			<point x="367" y="509" type="line"/>
			<point x="393" y="693" type="line"/>
			<point x="465" y="693" type="line"/>
			<point x="439" y="509" type="line"/>
			<point x="520" y="509" type="line"/>
			<point x="520" y="443" type="line"/>
			<point x="430" y="443" type="line"/>
			<point x="404" y="250" type="line"/>
			<point x="520" y="250" type="line"/>
			<point x="520" y="184" type="line"/>
			<point x="395" y="184" type="line"/>
			<point x="370" y="0" type="line"/>
			<point x="298" y="0" type="line"/>
			<point x="323" y="184" type="line"/>
			<point x="199" y="184" type="line"/>
			<point x="174" y="0" type="line"/>
			<point x="103" y="0" type="line"/>
			<point x="128" y="184" type="line"/>
			<point x="47" y="184" type="line"/>
			<point x="47" y="250" type="line"/>
		</contour>
		<contour>
			<point x="208" y="250" type="line"/>
			<point x="332" y="250" type="line"/>
			<point x="358" y="443" type="line"/>
			<point x="234" y="443" type="line"/>
		</contour>
	</outline>
</glyph>
<glyph name="dollar" format="2">
	<unicode hex="0024"/>
	<advance width="430"/>
	<outline>
		<contour>
			<point x="375" y="183" type="curve" smooth="yes"/>
			<point x="375" y="287"/>
			<point x="319" y="330"/>
			<point x="262" y="369" type="curve" smooth="yes"/>
			<point x="208" y="406"/>
			<point x="155" y="433"/>
			<point x="155" y="498" type="curve" smooth="yes"/>
			<point x="155" y="564"/>
			<point x="192" y="594"/>
			<point x="240" y="594" type="curve" smooth="yes"/>
			<point x="270" y="594"/>
			<point x="301" y="583"/>
			<point x="327" y="568" type="curve"/>
			<point x="351" y="636" type="line"/>
			<point x="325" y="650"/>
			<point x="291" y="661"/>
			<point x="255" y="665" type="curve"/>
			<point x="255" y="776" type="line"/>
			<point x="178" y="776" type="line"/>
			<point x="178" y="658" type="line"/>
			<point x="104" y="636"/>
			<point x="64" y="566"/>
			<point x="64" y="498" type="curve" smooth="yes"/>
			<point x="64" y="391"/>
			<point x="130" y="351"/>
			<point x="191" y="311" type="curve" smooth="yes"/>
			<point x="239" y="279"/>
			<point x="283" y="247"/>
			<point x="283" y="182" type="curve" smooth="yes"/>
			<point x="283" y="128"/>
			<point x="255" y="90"/>
			<point x="197" y="90" type="curve" smooth="yes"/>
			<point x="152" y="90"/>
			<point x="110" y="106"/>
			<point x="80" y="127" type="curve"/>
			<point x="55" y="60" type="line"/>
			<point x="82" y="39"/>
			<point x="127" y="22"/>
			<point x="178" y="17" type="curve"/>
			<point x="178" y="-109" type="line"/>
			<point x="255" y="-109" type="line"/>
			<point x="255" y="22" type="line"/>
			<point x="336" y="41"/>
			<point x="375" y="108"/>
		</contour>
	</outline>
</glyph>
<glyph name="ampersand" format="2">
	<unicode hex="0026"/>
	<advance width="511"/>
	<outline>
		<contour>
			<point x="411" y="363" type="line"/>
			<point x="406" y="302"/>
			<point x="395" y="250"/>
			<point x="380" y="207" type="curve"/>
			<point x="261" y="375" type="line"/>
			<point x="318" y="421"/>
			<point x="373" y="474"/>
			<point x="373" y="565" type="curve" smooth="yes"/>
			<point x="373" y="642"/>
			<point x="334" y="709"/>
			<point x="237" y="709" type="curve" smooth="yes"/>
			<point x="149" y="709"/>
			<point x="93" y="647"/>
			<point x="93" y="554" type="curve" smooth="yes"/>
			<point x="93" y="488"/>
			<point x="124" y="431"/>
			<point x="158" y="381" type="curve"/>
			<point x="98" y="332"/>
			<point x="44" y="274"/>
			<point x="44" y="169" type="curve" smooth="yes"/>
			<point x="44" y="86"/>
			<point x="98" y="-9"/>
			<point x="231" y="-9" type="curve" smooth="yes"/>
			<point x="284" y="-9"/>
			<point x="338" y="19"/>
			<point x="381" y="70" type="curve"/>
			<point x="395" y="45"/>
			<point x="407" y="20"/>
			<point x="415" y="0" type="curve"/>
			<point x="502" y="0" type="line"/>
			<point x="485" y="44"/>
			<point x="459" y="95"/>
			<point x="428" y="140" type="curve"/>
			<point x="457" y="197"/>
			<point x="477" y="269"/>
			<point x="483" y="353" type="curve"/>
		</contour>
		<contour>
			<point x="234" y="64" type="curve" smooth="yes"/>
			<point x="167" y="64"/>
			<point x="131" y="113"/>
			<point x="131" y="176" type="curve" smooth="yes"/>
			<point x="131" y="245"/>
			<point x="159" y="289"/>
			<point x="199" y="325" type="curve"/>
			<point x="341" y="130" type="line"/>
			<point x="310" y="86"/>
			<point x="272" y="64"/>
		</contour>
		<contour>
			<point x="171" y="555" type="curve" smooth="yes"/>
			<point x="171" y="609"/>
			<point x="192" y="641"/>
			<point x="235" y="641" type="curve" smooth="yes"/>
			<point x="271" y="641"/>
			<point x="295" y="615"/>
			<point x="295" y="565" type="curve" smooth="yes"/>
			<point x="295" y="506"/>
			<point x="262" y="467"/>
			<point x="221" y="432" type="curve"/>
			<point x="193" y="472"/>
			<point x="171" y="510"/>
		</contour>
	</outline>
</glyph>
<glyph name="parenleft" format="2">
	<unicode hex="0028"/>
	<advance width="285"/>
	<outline>
		<contour>
			<point x="162" y="299" type="curve" smooth="yes"/>
			<point x="162" y="129"/>
			<point x="206" y="-25"/>
			<point x="280" y="-149" type="curve"/>
			<point x="211" y="-187" type="line"/>
			<point x="129" y="-59"/>
			<point x="76" y="110"/>
			<point x="76" y="299" type="curve" smooth="yes"/>
			<point x="76" y="488"/>
			<point x="129" y="657"/>
			<point x="211" y="785" type="curve"/>
			<point x="280" y="747" type="line"/>
			<point x="206" y="623"/>
			<point x="162" y="469"/>
		</contour>
	</outline>
</glyph>
<glyph name="one" format="2">
	<unicode hex="0031"/>
	<advance width="430"/>
	<outline>
		<contour>
			<point x="105" y="493" type="line"/>
			<point x="138" y="511"/>
			<point x="169" y="533"/>
			<point x="192" y="557" type="curve"/>
			<point x="192" y="0" type="line"/>
			<point x="278" y="0" type="line"/>
			<point x="278" y="693" type="line"/>
			<point x="212" y="693" type="line"/>
			<point x="182" y="643"/>
			<point x="122" y="584"/>
			<point x="70" y="555" type="curve"/>
		</contour>
	</outline>
	<guideline y="480"/>
</glyph>
<glyph name="two" format="2">
	<unicode hex="0032"/>
	<advance width="430"/>
	<outline>
		<contour>
			<point x="44" y="650" type="line"/>
			<point x="103" y="709"/>
			<point x="188" y="709" type="qcurve"/>
			<point x="269" y="709"/>
			<point x="355" y="624"/>
			<point x="355" y="534" type="qcurve"/>
			<point x="355" y="492"/>
			<point x="327" y="416"/>
			<point x="285" y="345"/>
			<point x="235" y="275"/>
			<point x="189" y="202"/>
			<point x="155" y="123"/>
			<point x="151" y="78" type="qcurve"/>
			<point x="369" y="78" type="line"/>
			<point x="369" y="0" type="line"/>
			<point x="59" y="0" type="line"/>
			<point x="59" y="19" type="line"/>
			<point x="59" y="86"/>
			<point x="90" y="190"/>
			<point x="135" y="274"/>
			<point x="189" y="346"/>
			<point x="234" y="415"/>
			<point x="265" y="488"/>
			<point x="265" y="532" type="qcurve"/>
			<point x="265" y="585"/>
			<point x="223" y="632"/>
			<point x="181" y="632" type="qcurve"/>
			<point x="152" y="632"/>
			<point x="105" y="609"/>
			<point x="86" y="591" type="qcurve"/>
		</contour>
	</outline>
</glyph>
<glyph name="four" format="2">
	<unicode hex="0034"/>
	<advance width="430"/>
	<outline>
		<contour>
			<point x="42" y="169" type="line"/>
			<point x="257" y="169" type="line"/>
			<point x="257" y="0" type="line"/>
			<point x="336" y="0" type="line"/>
			<point x="336" y="169" type="line"/>
			<point x="404" y="169" type="line"/>
			<point x="404" y="240" type="line"/>
			<point x="336" y="240" type="line"/>
			<point x="336" y="693" type="line"/>
			<point x="248" y="693" type="line"/>
			<point x="204" y="617"/>
			<point x="89" y="397"/>
			<point x="42" y="232" type="curve"/>
		</contour>
		<contour>
			<point x="115" y="240" type="line"/>
			<point x="149" y="357"/>
			<point x="217" y="496"/>
			<point x="257" y="578" type="curve"/>
			<point x="257" y="240" type="line"/>
		</contour>
	</outline>
</glyph>
<glyph name="seven" format="2">
	<unicode hex="0037"/>
	<advance width="430"/>
	<outline>
		<contour>
			<point x="203" y="0" type="line"/>
			<point x="215" y="248"/>
			<point x="313" y="523"/>
			<point x="378" y="626" type="curve"/>
			<point x="378" y="693" type="line"/>
			<point x="45" y="693" type="line"/>
			<point x="45" y="617" type="line"/>
			<point x="281" y="617" type="line"/>
			<point x="211" y="482"/>
			<point x="125" y="194"/>
			<point x="115" y="0" type="curve"/>
		</contour>
	</outline>
</glyph>
<glyph name="eight" format="2">
	<unicode hex="0038"/>
	<advance width="430"/>
	<outline>
		<contour>
			<point x="373" y="540" type="curve" smooth="yes"/>
			<point x="373" y="659"/>
			<point x="296" y="709"/>
			<point x="220" y="709" type="curve" smooth="yes"/>
			<point x="144" y="709"/>
			<point x="62" y="659"/>
			<point x="62" y="538" type="curve" smooth="yes"/>
			<point x="62" y="458"/>
			<point x="97" y="398"/>
			<point x="148" y="360" type="curve"/>
			<point x="87" y="311"/>
			<point x="47" y="246"/>
			<point x="47" y="164" type="curve" smooth="yes"/>
			<point x="47" y="60"/>
			<point x="115" y="-15"/>
			<point x="214" y="-15" type="curve" smooth="yes"/>
			<point x="299" y="-15"/>
			<point x="382" y="48"/>
			<point x="382" y="174" type="curve" smooth="yes"/>
			<point x="382" y="254"/>
			<point x="334" y="311"/>
			<point x="278" y="352" type="curve"/>
			<point x="329" y="399"/>
			<point x="373" y="463"/>
		</contour>
		<contour>
			<point x="298" y="168" type="curve" smooth="yes"/>
			<point x="298" y="92"/>
			<point x="260" y="52"/>
			<point x="216" y="52" type="curve" smooth="yes"/>
			<point x="164" y="52"/>
			<point x="132" y="99"/>
			<point x="132" y="171" type="curve" smooth="yes"/>
			<point x="132" y="243"/>
			<point x="160" y="288"/>
			<point x="199" y="324" type="curve"/>
			<point x="249" y="287"/>
			<point x="298" y="238"/>
		</contour>
		<contour>
			<point x="146" y="549" type="curve" smooth="yes"/>
			<point x="146" y="623"/>
			<point x="188" y="642"/>
			<point x="218" y="642" type="curve" smooth="yes"/>
			<point x="257" y="642"/>
			<point x="287" y="615"/>
			<point x="287" y="534" type="curve" smooth="yes"/>
			<point x="287" y="465"/>
			<point x="261" y="426"/>
			<point x="224" y="388" type="curve"/>
			<point x="174" y="424"/>
			<point x="146" y="463"/>
		</contour>
	</outline>
</glyph>
<glyph name="nine" format="2">
	<unicode hex="0039"/>
	<advance width="430"/>
	<outline>
		<contour>
			<point x="87" y="71" type="curve"/>
			<point x="96" y="-2" type="line"/>
			<point x="307" y="6"/>
			<point x="378" y="196"/>
			<point x="378" y="399" type="curve" smooth="yes"/>
			<point x="378" y="629"/>
			<point x="323" y="709"/>
			<point x="213" y="709" type="curve" smooth="yes"/>
			<point x="106" y="709"/>
			<point x="57" y="622"/>
			<point x="57" y="481" type="curve" smooth="yes"/>
			<point x="57" y="350"/>
			<point x="114" y="269"/>
			<point x="210" y="269" type="curve" smooth="yes"/>
			<point x="231" y="269"/>
			<point x="256" y="274"/>
			<point x="283" y="285" type="curve"/>
			<point x="261" y="125"/>
			<point x="189" y="82"/>
		</contour>
		<contour>
			<point x="231" y="339" type="curve" smooth="yes"/>
			<point x="173" y="339"/>
			<point x="144" y="385"/>
			<point x="144" y="485" type="curve" smooth="yes"/>
			<point x="144" y="576"/>
			<point x="162" y="637"/>
			<point x="214" y="637" type="curve" smooth="yes"/>
			<point x="284" y="637"/>
			<point x="291" y="531"/>
			<point x="291" y="408" type="curve" smooth="yes"/>
			<point x="291" y="390"/>
			<point x="290" y="373"/>
			<point x="290" y="357" type="curve"/>
			<point x="271" y="345"/>
			<point x="251" y="339"/>
		</contour>
	</outline>
</glyph>
<glyph name="greater" format="2">
	<unicode hex="003E"/>
	<advance width="430"/>
	<outline>
		<contour>
			<point x="83" y="79" type="line"/>
			<point x="46" y="144" type="line"/>
			<point x="301" y="294" type="line"/>
			<point x="46" y="444" type="line"/>
			<point x="83" y="509" type="line"/>
			<point x="384" y="325" type="line"/>
			<point x="384" y="263" type="line"/>
		</contour>
	</outline>
</glyph>
<glyph name="D" format="2">
	<unicode hex="0044"/>
	<advance width="576"/>
	<outline>
		<contour>
			<point x="521" y="347" type="curve" smooth="yes"/>
			<point x="521" y="605"/>
			<point x="407" y="701"/>
			<point x="226" y="701" type="curve" smooth="yes"/>
			<point x="182" y="701"/>
			<point x="134" y="694"/>
			<point x="83" y="683" type="curve"/>
			<point x="83" y="11" type="line"/>
			<point x="134" y="-1"/>
			<point x="182" y="-7"/>
			<point x="227" y="-7" type="curve" smooth="yes"/>
			<point x="407" y="-7"/>
			<point x="521" y="89"/>
		</contour>
		<contour>
			<point x="425" y="347" type="curve" smooth="yes"/>
			<point x="425" y="148"/>
			<point x="370" y="73"/>
			<point x="229" y="73" type="curve" smooth="yes"/>
			<point x="212" y="73"/>
			<point x="193" y="74"/>
			<point x="173" y="77" type="curve"/>
			<point x="173" y="617" type="line"/>
			<point x="193" y="620"/>
			<point x="212" y="621"/>
			<point x="230" y="621" type="curve" smooth="yes"/>
			<point x="370" y="621"/>
			<point x="425" y="545"/>
		</contour>
	</outline>
</glyph>
<glyph name="G" format="2">
	<unicode hex="0047"/>
	<advance width="525"/>
	<outline>
		<contour>
			<point x="55" y="347" type="curve" smooth="yes"/>
			<point x="55" y="96"/>
			<point x="160" y="-16"/>
			<point x="305" y="-16" type="curve" smooth="yes"/>
			<point x="363" y="-16"/>
			<point x="420" y="-2"/>
			<point x="456" y="15" type="curve"/>
			<point x="456" y="341" type="line"/>
			<point x="366" y="341" type="line"/>
			<point x="366" y="70" type="line"/>
			<point x="350" y="65"/>
			<point x="333" y="63"/>
			<point x="313" y="63" type="curve" smooth="yes"/>
			<point x="214" y="63"/>
			<point x="151" y="144"/>
			<point x="151" y="347" type="curve" smooth="yes"/>
			<point x="151" y="536"/>
			<point x="198" y="630"/>
			<point x="314" y="630" type="curve" smooth="yes"/>
			<point x="360" y="630"/>
			<point x="395" y="614"/>
			<point x="426" y="593" type="curve"/>
			<point x="454" y="668" type="line"/>
			<point x="423" y="689"/>
			<point x="371" y="709"/>
			<point x="312" y="709" type="curve" smooth="yes"/>
			<point x="155" y="709"/>
			<point x="55" y="609"/>
		</contour>
	</outline>
</glyph>
<glyph name="I" format="2">
	<unicode hex="0049"/>
	<advance width="258"/>
	<outline>
		<contour>
			<point x="84" y="0" type="line"/>
			<point x="174" y="0" type="line"/>
			<point x="174" y="693" type="line"/>
			<point x="84" y="693" type="line"/>
		</contour>
	</outline>
</glyph>
<glyph name="M" format="2">
	<unicode hex="004D"/>
	<advance width="726"/>
	<outline>
		<contour>
			<point x="401" y="96" type="line"/>
			<point x="424" y="183"/>
			<point x="513" y="457"/>
			<point x="551" y="556" type="curve"/>
			<point x="561" y="402"/>
			<point x="567" y="175"/>
			<point x="571" y="0" type="curve"/>
			<point x="657" y="0" type="line"/>
			<point x="650" y="240"/>
			<point x="639" y="493"/>
			<point x="621" y="693" type="curve"/>
			<point x="532" y="693" type="line"/>
			<point x="484" y="579"/>
			<point x="407" y="361"/>
			<point x="365" y="217" type="curve"/>
			<point x="323" y="361"/>
			<point x="242" y="579"/>
			<point x="194" y="693" type="curve"/>
			<point x="105" y="693" type="line"/>
			<point x="87" y="493"/>
			<point x="76" y="240"/>
			<point x="69" y="0" type="curve"/>
			<point x="155" y="0" type="line"/>
			<point x="158" y="175"/>
			<point x="163" y="396"/>
			<point x="173" y="549" type="curve"/>
			<point x="212" y="454"/>
			<point x="271" y="287"/>
			<point x="325" y="96" type="curve"/>
		</contour>
	</outline>
</glyph>
<glyph name="U" format="2">
	<unicode hex="0055"/>
	<advance width="549"/>
	<outline>
		<contour>
			<point x="272" y="-15" type="qcurve"/>
			<point x="175" y="-15"/>
			<point x="78" y="95"/>
			<point x="78" y="214" type="qcurve"/>
			<point x="78" y="693" type="line"/>
			<point x="168" y="693" type="line"/>
			<point x="168" y="222" type="line"/>
			<point x="168" y="143"/>
			<point x="214" y="64"/>
			<point x="274" y="64" type="qcurve"/>
			<point x="336" y="64"/>
			<point x="381" y="145"/>
			<point x="381" y="222" type="qcurve"/>
			<point x="381" y="693" type="line"/>
			<point x="471" y="693" type="line"/>
			<point x="471" y="214" type="line"/>
			<point x="471" y="97"/>
			<point x="371" y="-15"/>
		</contour>
	</outline>
</glyph>
<glyph name="backslash" format="2">
	<unicode hex="005C"/>
	<advance width="270"/>
	<outline>
		<contour>
			<point x="216" y="-185" type="line"/>
			<point x="296" y="-185" type="line"/>
			<point x="54" y="783" type="line"/>
			<point x="-26" y="783" type="line"/>
		</contour>
	</outline>
</glyph>
<glyph name="a" format="2">
	<unicode hex="0061"/>
	<advance width="434"/>
	<outline>
		<contour>
			<point x="86" y="514" type="line"/>
			<point x="112" y="525"/>
			<point x="170" y="538"/>
			<point x="204" y="538" type="qcurve"/>
			<point x="274" y="538"/>
			<point x="362" y="451"/>
			<point x="362" y="359" type="qcurve"/>
			<point x="362" y="11" type="line"/>
			<point x="326" y="1"/>
			<point x="251" y="-11"/>
			<point x="215" y="-11" type="qcurve"/>
			<point x="179" y="-11"/>
			<point x="116" y="7"/>
			<point x="69" y="47"/>
			<point x="41" y="108"/>
			<point x="41" y="152" type="qcurve"/>
			<point x="41" y="193"/>
			<point x="66" y="254"/>
			<point x="110" y="295"/>
			<point x="170" y="316"/>
			<point x="205" y="316" type="qcurve"/>
			<point x="238" y="316"/>
			<point x="278" y="308" type="qcurve"/>
			<point x="278" y="356" type="line"/>
			<point x="278" y="414"/>
			<point x="233" y="460"/>
			<point x="191" y="460" type="qcurve"/>
			<point x="168" y="460"/>
			<point x="127" y="451"/>
			<point x="104" y="441" type="qcurve"/>
		</contour>
		<contour>
			<point x="127" y="153" type="qcurve"/>
			<point x="127" y="107"/>
			<point x="175" y="63"/>
			<point x="219" y="63" type="qcurve"/>
			<point x="246" y="63"/>
			<point x="278" y="70" type="qcurve"/>
			<point x="278" y="237" type="line"/>
			<point x="248" y="245"/>
			<point x="219" y="245" type="qcurve"/>
			<point x="200" y="245"/>
			<point x="166" y="236"/>
			<point x="141" y="215"/>
			<point x="127" y="180"/>
		</contour>
	</outline>
</glyph>
<glyph name="b" format="2">
	<unicode hex="0062"/>
	<advance width="467"/>
	<outline>
		<contour>
			<point x="163" y="446" type="line"/>
			<point x="181" y="456"/>
			<point x="203" y="462"/>
			<point x="225" y="462" type="curve" smooth="yes"/>
			<point x="291" y="462"/>
			<point x="329" y="413"/>
			<point x="329" y="264" type="curve" smooth="yes"/>
			<point x="329" y="121"/>
			<point x="291" y="63"/>
			<point x="214" y="63" type="curve" smooth="yes"/>
			<point x="199" y="63"/>
			<point x="181" y="65"/>
			<point x="163" y="70" type="curve"/>
		</contour>
		<contour>
			<point x="163" y="776" type="line"/>
			<point x="77" y="761" type="line"/>
			<point x="77" y="14" type="line"/>
			<point x="114" y="-2"/>
			<point x="165" y="-13"/>
			<point x="214" y="-13" type="curve" smooth="yes"/>
			<point x="354" y="-13"/>
			<point x="419" y="80"/>
			<point x="419" y="264" type="curve" smooth="yes"/>
			<point x="419" y="431"/>
			<point x="366" y="538"/>
			<point x="235" y="538" type="curve" smooth="yes"/>
			<point x="204" y="538"/>
			<point x="184" y="531"/>
			<point x="163" y="521" type="curve"/>
		</contour>
	</outline>
</glyph>
<glyph name="c" format="2">
	<unicode hex="0063"/>
	<advance width="353"/>
	<outline>
		<contour>
			<point x="238" y="-13" type="curve" smooth="yes"/>
			<point x="279" y="-13"/>
			<point x="317" y="1"/>
			<point x="338" y="16" type="curve"/>
			<point x="319" y="83" type="line"/>
			<point x="298" y="71"/>
			<point x="275" y="63"/>
			<point x="246" y="63" type="curve" smooth="yes"/>
			<point x="162" y="63"/>
			<point x="138" y="146"/>
			<point x="138" y="261" type="curve" smooth="yes"/>
			<point x="138" y="398"/>
			<point x="171" y="462"/>
			<point x="243" y="462" type="curve" smooth="yes"/>
			<point x="270" y="462"/>
			<point x="292" y="455"/>
			<point x="312" y="442" type="curve"/>
			<point x="334" y="513" type="line"/>
			<point x="308" y="527"/>
			<point x="278" y="538"/>
			<point x="239" y="538" type="curve" smooth="yes"/>
			<point x="111" y="538"/>
			<point x="48" y="434"/>
			<point x="48" y="261" type="curve" smooth="yes"/>
			<point x="48" y="105"/>
			<point x="95" y="-13"/>
		</contour>
	</outline>
</glyph>
<glyph name="f" format="2">
	<unicode hex="0066"/>
	<advance width="306"/>
	<outline>
		<contour>
			<point x="231" y="776" type="qcurve"/>
			<point x="260" y="776"/>
			<point x="304" y="764"/>
			<point x="318" y="757" type="qcurve"/>
			<point x="300" y="689" type="line"/>
			<point x="286" y="696"/>
			<point x="256" y="703"/>
			<point x="239" y="703" type="qcurve"/>
			<point x="216" y="703"/>
			<point x="186" y="687"/>
			<point x="170" y="659"/>
			<point x="164" y="620"/>
			<point x="164" y="598" type="qcurve"/>
			<point x="164" y="525" type="line"/>
			<point x="299" y="525" type="line"/>
			<point x="299" y="451" type="line"/>
			<point x="164" y="451" type="line"/>
			<point x="164" y="0" type="line"/>
			<point x="78" y="0" type="line"/>
			<point x="78" y="598" type="line"/>
			<point x="78" y="683"/>
			<point x="154" y="776"/>
		</contour>
	</outline>
</glyph>
<glyph name="i" format="2">
	<unicode hex="0069"/>
	<advance width="242"/>
	<outline>
		<contour>
			<point x="164" y="525" type="line"/>
			<point x="78" y="525" type="line"/>
			<point x="78" y="0" type="line"/>
			<point x="164" y="0" type="line"/>
		</contour>
		<contour>
			<point x="121" y="618" type="curve" smooth="yes"/>
			<point x="152" y="618"/>
			<point x="177" y="641"/>
			<point x="177" y="675" type="curve" smooth="yes"/>
			<point x="177" y="709"/>
			<point x="152" y="732"/>
			<point x="121" y="732" type="curve" smooth="yes"/>
			<point x="90" y="732"/>
			<point x="65" y="709"/>
			<point x="65" y="675" type="curve" smooth="yes"/>
			<point x="65" y="641"/>
			<point x="90" y="618"/>
		</contour>
	</outline>
</glyph>
<glyph name="l" format="2">
	<unicode hex="006C"/>
	<advance width="243"/>
	<outline>
		<contour>
			<point x="225" y="62" type="line"/>
			<point x="178" y="70"/>
			<point x="162" y="88"/>
			<point x="162" y="134" type="curve" smooth="yes"/>
			<point x="162" y="776" type="line"/>
			<point x="76" y="761" type="line"/>
			<point x="76" y="136" type="line" smooth="yes"/>
			<point x="76" y="37"/>
			<point x="116" y="-7"/>
			<point x="214" y="-10" type="curve"/>
		</contour>
	</outline>
</glyph>
<glyph name="s" format="2">
	<unicode hex="0073"/>
	<advance width="341"/>
	<outline>
		<contour>
			<point x="151" y="61" type="curve" smooth="yes"/>
			<point x="110" y="61"/>
			<point x="74" y="78"/>
			<point x="54" y="89" type="curve"/>
			<point x="36" y="18" type="line"/>
			<point x="57" y="6"/>
			<point x="103" y="-13"/>
			<point x="156" y="-13" type="curve" smooth="yes"/>
			<point x="260" y="-13"/>
			<point x="315" y="49"/>
			<point x="315" y="140" type="curve" smooth="yes"/>
			<point x="315" y="227"/>
			<point x="263" y="262"/>
			<point x="212" y="292" type="curve" smooth="yes"/>
			<point x="170" y="317"/>
			<point x="130" y="341"/>
			<point x="130" y="393" type="curve" smooth="yes"/>
			<point x="130" y="440"/>
			<point x="158" y="465"/>
			<point x="200" y="465" type="curve" smooth="yes"/>
			<point x="228" y="465"/>
			<point x="251" y="458"/>
			<point x="275" y="445" type="curve"/>
			<point x="294" y="514" type="line"/>
			<point x="272" y="526"/>
			<point x="234" y="538"/>
			<point x="196" y="538" type="curve" smooth="yes"/>
			<point x="105" y="538"/>
			<point x="46" y="479"/>
			<point x="46" y="393" type="curve" smooth="yes"/>
			<point x="46" y="314"/>
			<point x="89" y="274"/>
			<point x="135" y="246" type="curve" smooth="yes"/>
			<point x="181" y="218"/>
			<point x="228" y="197"/>
			<point x="228" y="139" type="curve" smooth="yes"/>
			<point x="228" y="93"/>
			<point x="201" y="61"/>
		</contour>
	</outline>
</glyph>
<glyph name="x" format="2">
	<unicode hex="0078"/>
	<advance width="392"/>
	<outline>
		<contour>
			<point x="372" y="525" type="line"/>
			<point x="288" y="525" type="line"/>
			<point x="197" y="347" type="line"/>
			<point x="107" y="525" type="line"/>
			<point x="20" y="525" type="line"/>
			<point x="149" y="276" type="line"/>
			<point x="105" y="194"/>
			<point x="45" y="87"/>
			<point x="15" y="0" type="curve"/>
			<point x="97" y="0" type="line"/>
			<point x="123" y="77"/>
			<point x="160" y="148"/>
			<point x="193" y="209" type="curve"/>
			<point x="227" y="148"/>
			<point x="266" y="77"/>
			<point x="292" y="0" type="curve"/>
			<point x="377" y="0" type="line"/>
			<point x="346" y="87"/>
			<point x="288" y="196"/>
			<point x="243" y="278" type="curve"/>
		</contour>
	</outline>
	<guideline y="277"/>
</glyph>
<glyph name="bar" format="2">
	<unicode hex="007C"/>
	<advance width="269"/>
	<outline>
		<contour>
			<point x="94" y="-185" type="line"/>
			<point x="175" y="-185" type="line"/>
			<point x="175" y="783" type="line"/>
			<point x="94" y="783" type="line"/>
		</contour>
	</outline>
</glyph>
<glyph name="exclamdown" format="2">
	<unicode hex="00A1"/>
	<advance width="263"/>
	<outline>
		<contour>
			<point x="85" y="21" type="line"/>
			<point x="85" y="105"/>
			<point x="97" y="242"/>
			<point x="106" y="310" type="qcurve"/>
			<point x="157" y="310" type="line"/>
			<point x="166" y="242"/>
			<point x="178" y="105"/>
			<point x="178" y="21" type="qcurve"/>
			<point x="178" y="-185" type="line"/>
			<point x="85" y="-185" type="line"/>
		</contour>
		<contour>
			<point x="191" y="478" type="qcurve"/>
			<point x="191" y="455"/>
			<point x="158" y="419"/>
			<point x="131" y="419" type="qcurve"/>
			<point x="104" y="419"/>
			<point x="72" y="455"/>
			<point x="72" y="478" type="qcurve"/>
			<point x="72" y="502"/>
			<point x="104" y="538"/>
			<point x="131" y="538" type="qcurve"/>
			<point x="158" y="538"/>
			<point x="191" y="502"/>
		</contour>
	</outline>
</glyph>
<glyph name="sterling" format="2">
	<unicode hex="00A3"/>
	<advance width="430"/>
	<outline>
		<contour>
			<point x="339" y="372" type="line"/>
			<point x="199" y="372" type="line"/>
			<point x="199" y="515" type="line" smooth="yes"/>
			<point x="199" y="589"/>
			<point x="234" y="630"/>
			<point x="296" y="630" type="curve" smooth="yes"/>
			<point x="321" y="630"/>
			<point x="349" y="621"/>
			<point x="370" y="608" type="curve"/>
			<point x="390" y="680" type="line"/>
			<point x="367" y="694"/>
			<point x="330" y="706"/>
			<point x="288" y="706" type="curve" smooth="yes"/>
			<point x="187" y="706"/>
			<point x="113" y="640"/>
			<point x="113" y="517" type="curve" smooth="yes"/>
			<point x="113" y="372" type="line"/>
			<point x="44" y="372" type="line"/>
			<point x="44" y="303" type="line"/>
			<point x="113" y="303" type="line"/>
			<point x="113" y="283" type="line" smooth="yes"/>
			<point x="113" y="186"/>
			<point x="103" y="93"/>
			<point x="87" y="0" type="curve"/>
			<point x="401" y="0" type="line"/>
			<point x="401" y="74" type="line"/>
			<point x="182" y="74" type="line"/>
			<point x="193" y="141"/>
			<point x="199" y="225"/>
			<point x="199" y="290" type="curve" smooth="yes"/>
			<point x="199" y="303" type="line"/>
			<point x="339" y="303" type="line"/>
		</contour>
	</outline>
</glyph>
<glyph name="yen" format="2">
	<unicode hex="00A5"/>
	<advance width="430"/>
	<outline>
		<contour>
			<point x="377" y="187" type="line"/>
			<point x="259" y="187" type="line"/>
			<point x="259" y="281" type="line"/>
			<point x="377" y="281" type="line"/>
			<point x="377" y="347" type="line"/>
			<point x="285" y="347" type="line"/>
			<point x="342" y="483"/>
			<point x="382" y="593"/>
			<point x="417" y="693" type="curve"/>
			<point x="335" y="693" type="line"/>
			<point x="303" y="590"/>
			<point x="256" y="465"/>
			<point x="216" y="375" type="curve"/>
			<point x="176" y="465"/>
			<point x="129" y="590"/>
			<point x="97" y="693" type="curve"/>
			<point x="12" y="693" type="line"/>
			<point x="46" y="593"/>
			<point x="86" y="483"/>
			<point x="144" y="347" type="curve"/>
			<point x="52" y="347" type="line"/>
			<point x="52" y="281" type="line"/>
			<point x="173" y="281" type="line"/>
			<point x="173" y="187" type="line"/>
			<point x="52" y="187" type="line"/>
			<point x="52" y="121" type="line"/>
			<point x="173" y="121" type="line"/>
			<point x="173" y="0" type="line"/>
			<point x="259" y="0" type="line"/>
			<point x="259" y="121" type="line"/>
			<point x="377" y="121" type="line"/>
		</contour>
	</outline>
</glyph>
<glyph name="brokenbar" format="2">
	<unicode hex="00A6"/>
	<advance width="269"/>
	<outline>
		<contour>
			<point x="175" y="400" type="line"/>
			<point x="175" y="783" type="line"/>
			<point x="94" y="783" type="line"/>
			<point x="94" y="400" type="line"/>
		</contour>
		<contour>
			<point x="94" y="198" type="line"/>
			<point x="94" y="-185" type="line"/>
			<point x="175" y="-185" type="line"/>
			<point x="175" y="198" type="line"/>
		</contour>
	</outline>
</glyph>
<glyph name="dieresis" format="2">
	<unicode hex="00A8"/>
	<advance width="314"/>
	<outline>
		<contour>
			<point x="74" y="618" type="qcurve"/>
			<point x="51" y="618"/>
			<point x="18" y="649"/>
			<point x="18" y="675" type="qcurve"/>
			<point x="18" y="701"/>
			<point x="51" y="732"/>
			<point x="74" y="732" type="qcurve"/>
			<point x="97" y="732"/>
			<point x="130" y="701"/>
			<point x="130" y="675" type="qcurve"/>
			<point x="130" y="649"/>
			<point x="97" y="618"/>
		</contour>
		<contour>
			<point x="240" y="618" type="qcurve"/>
			<point x="217" y="618"/>
			<point x="184" y="649"/>
			<point x="184" y="675" type="qcurve"/>
			<point x="184" y="701"/>
			<point x="217" y="732"/>
			<point x="240" y="732" type="qcurve"/>
			<point x="263" y="732"/>
			<point x="296" y="701"/>
			<point x="296" y="675" type="qcurve"/>
			<point x="296" y="649"/>
			<point x="263" y="618"/>
		</contour>
	</outline>
</glyph>
<glyph name="degree" format="2">
	<unicode hex="00B0"/>
	<advance width="288"/>
	<outline>
		<contour>
			<point x="264" y="637" type="curve" smooth="yes"/>
			<point x="264" y="711"/>
			<point x="208" y="756"/>
			<point x="144" y="756" type="curve" smooth="yes"/>
			<point x="80" y="756"/>
			<point x="24" y="711"/>
			<point x="24" y="637" type="curve" smooth="yes"/>
			<point x="24" y="563"/>
			<point x="80" y="518"/>
			<point x="144" y="518" type="curve" smooth="yes"/>
			<point x="208" y="518"/>
			<point x="264" y="563"/>
		</contour>
		<contour>
			<point x="202" y="637" type="curve" smooth="yes"/>
			<point x="202" y="599"/>
			<point x="176" y="576"/>
			<point x="144" y="576" type="curve" smooth="yes"/>
			<point x="112" y="576"/>
			<point x="86" y="599"/>
			<point x="86" y="637" type="curve" smooth="yes"/>
			<point x="86" y="675"/>
			<point x="112" y="698"/>
			<point x="144" y="698" type="curve" smooth="yes"/>
			<point x="176" y="698"/>
			<point x="202" y="675"/>
		</contour>
	</outline>
</glyph>
<glyph name="mu" format="2">
	<unicode hex="00B5"/>
	<advance width="488"/>
	<outline>
		<contour>
			<point x="410" y="525" type="line"/>
			<point x="324" y="525" type="line"/>
			<point x="324" y="73" type="line"/>
			<point x="301" y="67"/>
			<point x="280" y="65"/>
			<point x="259" y="65" type="curve" smooth="yes"/>
			<point x="195" y="65"/>
			<point x="164" y="102"/>
			<point x="164" y="186" type="curve" smooth="yes"/>
			<point x="164" y="525" type="line"/>
			<point x="78" y="525" type="line"/>
			<point x="78" y="-185" type="line"/>
			<point x="164" y="-185" type="line"/>
			<point x="164" y="-109" type="line" smooth="yes"/>
			<point x="164" y="-61"/>
			<point x="162" y="-17"/>
			<point x="159" y="26" type="curve"/>
			<point x="185" y="-2"/>
			<point x="222" y="-11"/>
			<point x="272" y="-11" type="curve" smooth="yes"/>
			<point x="307" y="-11"/>
			<point x="375" y="3"/>
			<point x="410" y="15" type="curve"/>
		</contour>
	</outline>
</glyph>
<glyph name="periodcentered" format="2">
	<unicode hex="00B7"/>
	<advance width="227"/>
	<outline>
		<contour>
			<point x="173" y="294" type="curve" smooth="yes"/>
			<point x="173" y="326"/>
			<point x="149" y="354"/>
			<point x="113" y="354" type="curve" smooth="yes"/>
			<point x="77" y="354"/>
			<point x="54" y="326"/>
			<point x="54" y="294" type="curve" smooth="yes"/>
			<point x="54" y="263"/>
			<point x="77" y="235"/>
			<point x="113" y="235" type="curve" smooth="yes"/>
			<point x="149" y="235"/>
			<point x="173" y="263"/>
		</contour>
	</outline>
</glyph>
<glyph name="cedilla" format="2">
	<unicode hex="00B8"/>
	<advance width="314"/>
	<outline>
		<contour>
			<point x="141" y="20" type="line"/>
			<point x="130" y="3"/>
			<point x="110" y="-39"/>
			<point x="100" y="-70" type="curve"/>
			<point x="140" y="-78"/>
			<point x="152" y="-88"/>
			<point x="152" y="-103" type="curve" smooth="yes"/>
			<point x="152" y="-124"/>
			<point x="132" y="-130"/>
			<point x="108" y="-130" type="curve" smooth="yes"/>
			<point x="92" y="-130"/>
			<point x="77" y="-126"/>
			<point x="64" y="-123" type="curve"/>
			<point x="54" y="-178" type="line"/>
			<point x="76" y="-186"/>
			<point x="102" y="-189"/>
			<point x="122" y="-189" type="curve" smooth="yes"/>
			<point x="180" y="-189"/>
			<point x="226" y="-160"/>
			<point x="226" y="-109" type="curve" smooth="yes"/>
			<point x="226" y="-78"/>
			<point x="212" y="-54"/>
			<point x="173" y="-40" type="curve"/>
			<point x="181" y="-21"/>
			<point x="194" y="6"/>
			<point x="202" y="20" type="curve"/>
		</contour>
	</outline>
</glyph>
<glyph name="questiondown" format="2">
	<unicode hex="00BF"/>
	<advance width="342"/>
	<outline>
		<contour>
			<point x="204" y="-112" type="curve" smooth="yes"/>
			<point x="152" y="-112"/>
			<point x="121" y="-80"/>
			<point x="121" y="-25" type="curve" smooth="yes"/>
			<point x="121" y="100"/>
			<point x="251" y="124"/>
			<point x="251" y="266" type="curve" smooth="yes"/>
			<point x="251" y="281"/>
			<point x="250" y="295"/>
			<point x="248" y="308" type="curve"/>
			<point x="170" y="308" type="line"/>
			<point x="171" y="301"/>
			<point x="171" y="293"/>
			<point x="171" y="286" type="curve" smooth="yes"/>
			<point x="171" y="146"/>
			<point x="26" y="110"/>
			<point x="26" y="-32" type="curve" smooth="yes"/>
			<point x="26" y="-114"/>
			<point x="74" y="-188"/>
			<point x="194" y="-188" type="curve" smooth="yes"/>
			<point x="246" y="-188"/>
			<point x="288" y="-171"/>
			<point x="325" y="-146" type="curve"/>
			<point x="291" y="-80" type="line"/>
			<point x="268" y="-98"/>
			<point x="240" y="-112"/>
		</contour>
		<contour>
			<point x="264" y="477" type="curve" smooth="yes"/>
			<point x="264" y="509"/>
			<point x="240" y="537"/>
			<point x="204" y="537" type="curve" smooth="yes"/>
			<point x="168" y="537"/>
			<point x="145" y="509"/>
			<point x="145" y="477" type="curve" smooth="yes"/>
			<point x="145" y="446"/>
			<point x="168" y="418"/>
			<point x="204" y="418" type="curve" smooth="yes"/>
			<point x="240" y="418"/>
			<point x="264" y="446"/>
		</contour>
	</outline>
</glyph>
<glyph name="AE" format="2">
	<unicode hex="00C6"/>
	<advance width="729"/>
	<outline>
		<contour>
			<point x="684" y="0" type="line"/>
			<point x="684" y="77" type="line"/>
			<point x="447" y="77" type="line"/>
			<point x="447" y="326" type="line"/>
			<point x="647" y="326" type="line"/>
			<point x="647" y="401" type="line"/>
			<point x="447" y="401" type="line"/>
			<point x="447" y="616" type="line"/>
			<point x="668" y="616" type="line"/>
			<point x="668" y="693" type="line"/>
			<point x="314" y="693" type="line"/>
			<point x="204" y="496"/>
			<point x="82" y="231"/>
			<point x="2" y="0" type="curve"/>
			<point x="89" y="0" type="line"/>
			<point x="108" y="57"/>
			<point x="131" y="117"/>
			<point x="155" y="177" type="curve"/>
			<point x="357" y="177" type="line"/>
			<point x="357" y="0" type="line"/>
		</contour>
		<contour>
			<point x="356" y="252" type="line"/>
			<point x="186" y="252" type="line"/>
			<point x="239" y="375"/>
			<point x="298" y="499"/>
			<point x="357" y="612" type="curve"/>
			<point x="357" y="247" type="line"/>
		</contour>
	</outline>
</glyph>
<glyph name="Ccedilla" format="2">
	<unicode hex="00C7"/>
	<advance width="469"/>
	<outline>
		<contour>
			<point x="296" y="-40" type="line"/>
			<point x="325" y="-51"/>
			<point x="349" y="-86"/>
			<point x="349" y="-109" type="qcurve"/>
			<point x="349" y="-147"/>
			<point x="289" y="-189"/>
			<point x="245" y="-189" type="qcurve"/>
			<point x="230" y="-189"/>
			<point x="194" y="-184"/>
			<point x="177" y="-178" type="qcurve"/>
			<point x="187" y="-123" type="line"/>
			<point x="197" y="-125"/>
			<point x="219" y="-130"/>
			<point x="231" y="-130" type="qcurve"/>
			<point x="249" y="-130"/>
			<point x="275" y="-119"/>
			<point x="275" y="-103" type="qcurve"/>
			<point x="275" y="-92"/>
			<point x="253" y="-76"/>
			<point x="223" y="-70" type="qcurve"/>
			<point x="228" y="-56"/>
			<point x="241" y="-23"/>
			<point x="248" y="-9" type="qcurve"/>
			<point x="154" y="11"/>
			<point x="55" y="191"/>
			<point x="55" y="357" type="qcurve"/>
			<point x="55" y="454"/>
			<point x="92" y="588"/>
			<point x="158" y="672"/>
			<point x="248" y="709"/>
			<point x="301" y="709" type="qcurve"/>
			<point x="345" y="709"/>
			<point x="421" y="686"/>
			<point x="445" y="669" type="qcurve"/>
			<point x="418" y="594" type="line"/>
			<point x="394" y="610"/>
			<point x="339" y="630"/>
			<point x="303" y="630" type="qcurve"/>
			<point x="223" y="630"/>
			<point x="151" y="497"/>
			<point x="151" y="357" type="qcurve"/>
			<point x="151" y="216"/>
			<point x="227" y="64"/>
			<point x="313" y="64" type="qcurve"/>
			<point x="354" y="64"/>
			<point x="405" y="84"/>
			<point x="429" y="100" type="qcurve"/>
			<point x="454" y="29" type="line"/>
			<point x="431" y="11"/>
			<point x="356" y="-15"/>
			<point x="307" y="-15" type="qcurve"/>
		</contour>
	</outline>
</glyph>
<glyph name="ccedilla" format="2">
	<unicode hex="00E7"/>
	<advance width="353"/>
	<outline>
		<contour>
			<point x="338" y="16" type="line"/>
			<point x="323" y="5"/>
			<point x="273" y="-11"/>
			<point x="244" y="-13" type="qcurve"/>
			<point x="240" y="-20"/>
			<point x="234" y="-34"/>
			<point x="232" y="-40" type="qcurve"/>
			<point x="261" y="-51"/>
			<point x="285" y="-86"/>
			<point x="285" y="-109" type="qcurve"/>
			<point x="285" y="-147"/>
			<point x="225" y="-189"/>
			<point x="181" y="-189" type="qcurve"/>
			<point x="166" y="-189"/>
			<point x="130" y="-184"/>
			<point x="113" y="-178" type="qcurve"/>
			<point x="123" y="-123" type="line"/>
			<point x="133" y="-125"/>
			<point x="155" y="-130"/>
			<point x="167" y="-130" type="qcurve"/>
			<point x="185" y="-130"/>
			<point x="211" y="-119"/>
			<point x="211" y="-103" type="qcurve"/>
			<point x="211" y="-92"/>
			<point x="189" y="-76"/>
			<point x="159" y="-70" type="qcurve"/>
			<point x="164" y="-55"/>
			<point x="177" y="-21"/>
			<point x="185" y="-6" type="qcurve"/>
			<point x="147" y="4"/>
			<point x="94" y="52"/>
			<point x="62" y="122"/>
			<point x="48" y="210"/>
			<point x="48" y="261" type="qcurve"/>
			<point x="48" y="391"/>
			<point x="143" y="538"/>
			<point x="239" y="538" type="qcurve"/>
			<point x="268" y="538"/>
			<point x="314" y="524"/>
			<point x="334" y="513" type="qcurve"/>
			<point x="312" y="442" type="line"/>
			<point x="281" y="462"/>
			<point x="243" y="462" type="qcurve"/>
			<point x="189" y="462"/>
			<point x="138" y="364"/>
			<point x="138" y="261" type="qcurve"/>
			<point x="138" y="218"/>
			<point x="148" y="145"/>
			<point x="173" y="93"/>
			<point x="214" y="63"/>
			<point x="246" y="63" type="qcurve"/>
			<point x="268" y="63"/>
			<point x="303" y="74"/>
			<point x="319" y="83" type="qcurve"/>
		</contour>
	</outline>
</glyph>
<glyph name="divide" format="2">
	<unicode hex="00F7"/>
	<advance width="430"/>
	<outline>
		<contour>
			<point x="43" y="336" type="line"/>
			<point x="387" y="336" type="line"/>
			<point x="387" y="263" type="line"/>
			<point x="43" y="263" type="line"/>
		</contour>
		<contour>
			<point x="272" y="453" type="qcurve"/>
			<point x="272" y="432"/>
			<point x="242" y="400"/>
			<point x="218" y="400" type="qcurve"/>
			<point x="194" y="400"/>
			<point x="165" y="432"/>
			<point x="165" y="453" type="qcurve"/>
			<point x="165" y="475"/>
			<point x="194" y="507"/>
			<point x="218" y="507" type="qcurve"/>
			<point x="242" y="507"/>
			<point x="272" y="475"/>
		</contour>
		<contour>
			<point x="272" y="148" type="qcurve"/>
			<point x="272" y="127"/>
			<point x="242" y="95"/>
			<point x="218" y="95" type="qcurve"/>
			<point x="194" y="95"/>
			<point x="165" y="127"/>
			<point x="165" y="148" type="qcurve"/>
			<point x="165" y="170"/>
			<point x="194" y="202"/>
			<point x="218" y="202" type="qcurve"/>
			<point x="242" y="202"/>
			<point x="272" y="170"/>
		</contour>
	</outline>
</glyph>
<glyph name="oslash" format="2">
	<unicode hex="00F8"/>
	<advance width="463"/>
	<outline>
		<contour>
			<point x="40" y="-4" type="line"/>
			<point x="86" y="73" type="line"/>
			<point x="66" y="109"/>
			<point x="48" y="205"/>
			<point x="48" y="262" type="qcurve"/>
			<point x="48" y="323"/>
			<point x="70" y="425"/>
			<point x="115" y="498"/>
			<point x="185" y="538"/>
			<point x="232" y="538" type="qcurve"/>
			<point x="298" y="538"/>
			<point x="342" y="497" type="qcurve"/>
			<point x="376" y="553" type="line"/>
			<point x="426" y="523" type="line"/>
			<point x="379" y="446" type="line"/>
			<point x="397" y="411"/>
			<point x="415" y="317"/>
			<point x="415" y="262" type="qcurve"/>
			<point x="415" y="200"/>
			<point x="393" y="99"/>
			<point x="348" y="27"/>
			<point x="279" y="-13"/>
			<point x="232" y="-13" type="qcurve"/>
			<point x="168" y="-13"/>
			<point x="125" y="24" type="qcurve"/>
			<point x="90" y="-34" type="line"/>
		</contour>
		<contour>
			<point x="138" y="262" type="qcurve"/>
			<point x="138" y="236"/>
			<point x="141" y="190"/>
			<point x="145" y="170" type="qcurve"/>
			<point x="296" y="421" type="line"/>
			<point x="274" y="461"/>
			<point x="232" y="461" type="qcurve"/>
			<point x="206" y="461"/>
			<point x="171" y="432"/>
			<point x="148" y="379"/>
			<point x="138" y="306"/>
		</contour>
		<contour>
			<point x="325" y="262" type="qcurve"/>
			<point x="325" y="308"/>
			<point x="319" y="346" type="qcurve"/>
			<point x="170" y="98" type="line"/>
			<point x="192" y="64"/>
			<point x="232" y="64" type="qcurve"/>
			<point x="257" y="64"/>
			<point x="293" y="93"/>
			<point x="315" y="145"/>
			<point x="325" y="218"/>
		</contour>
	</outline>
	<guideline x="233"/>
	<guideline y="262"/>
</glyph>
<glyph name="Aogonek" format="2">
	<unicode hex="0104"/>
	<advance width="503"/>
	<outline>
		<contour>
			<point x="485" y="-176" type="line"/>
			<point x="457" y="-187"/>
			<point x="423" y="-187" type="qcurve"/>
			<point x="379" y="-187"/>
			<point x="323" y="-144"/>
			<point x="323" y="-106" type="qcurve"/>
			<point x="323" y="-74"/>
			<point x="359" y="-24"/>
			<point x="393" y="0" type="qcurve"/>
			<point x="385" y="45"/>
			<point x="368" y="133"/>
			<point x="359" y="177" type="qcurve"/>
			<point x="141" y="177" type="line"/>
			<point x="131" y="133"/>
			<point x="115" y="45"/>
			<point x="107" y="0" type="qcurve"/>
			<point x="20" y="0" type="line"/>
			<point x="42" y="109"/>
			<point x="88" y="297"/>
			<point x="133" y="465"/>
			<point x="180" y="618"/>
			<point x="204" y="693" type="qcurve"/>
			<point x="299" y="693" type="line"/>
			<point x="323" y="618"/>
			<point x="370" y="465"/>
			<point x="415" y="297"/>
			<point x="460" y="109"/>
			<point x="483" y="0" type="qcurve"/>
			<point x="444" y="-21"/>
			<point x="401" y="-62"/>
			<point x="401" y="-83" type="qcurve"/>
			<point x="401" y="-103"/>
			<point x="426" y="-120"/>
			<point x="444" y="-120" type="qcurve"/>
			<point x="463" y="-120"/>
			<point x="480" y="-113" type="qcurve"/>
		</contour>
		<contour>
			<point x="250" y="591" type="qcurve"/>
			<point x="225" y="508"/>
			<point x="179" y="340"/>
			<point x="158" y="252" type="qcurve"/>
			<point x="341" y="252" type="line"/>
			<point x="321" y="340"/>
			<point x="275" y="508"/>
		</contour>
	</outline>
</glyph>
<glyph name="Eogonek" format="2">
	<unicode hex="0118"/>
	<advance width="456"/>
	<outline>
		<contour>
			<point x="413" y="-176" type="line"/>
			<point x="385" y="-187"/>
			<point x="351" y="-187" type="qcurve"/>
			<point x="307" y="-187"/>
			<point x="251" y="-144"/>
			<point x="251" y="-106" type="qcurve"/>
			<point x="251" y="-74"/>
			<point x="284" y="-24"/>
			<point x="313" y="0" type="qcurve"/>
			<point x="84" y="0" type="line"/>
			<point x="84" y="693" type="line"/>
			<point x="395" y="693" type="line"/>
			<point x="395" y="616" type="line"/>
			<point x="174" y="616" type="line"/>
			<point x="174" y="401" type="line"/>
			<point x="374" y="401" type="line"/>
			<point x="374" y="326" type="line"/>
			<point x="174" y="326" type="line"/>
			<point x="174" y="77" type="line"/>
			<point x="411" y="77" type="line"/>
			<point x="411" y="0" type="line"/>
			<point x="372" y="-21"/>
			<point x="329" y="-62"/>
			<point x="329" y="-83" type="qcurve"/>
			<point x="329" y="-103"/>
			<point x="354" y="-120"/>
			<point x="372" y="-120" type="qcurve"/>
			<point x="391" y="-120"/>
			<point x="408" y="-113" type="qcurve"/>
		</contour>
	</outline>
</glyph>
<glyph name="Hbar" format="2">
	<unicode hex="0126"/>
	<advance width="576"/>
	<outline>
		<contour>
			<point x="16" y="516" type="line"/>
			<point x="84" y="516" type="line"/>
			<point x="84" y="0" type="line"/>
			<point x="174" y="0" type="line"/>
			<point x="174" y="322" type="line"/>
			<point x="402" y="322" type="line"/>
			<point x="402" y="0" type="line"/>
			<point x="492" y="0" type="line"/>
			<point x="492" y="516" type="line"/>
			<point x="560" y="516" type="line"/>
			<point x="560" y="582" type="line"/>
			<point x="492" y="582" type="line"/>
			<point x="492" y="693" type="line"/>
			<point x="402" y="693" type="line"/>
			<point x="402" y="582" type="line"/>
			<point x="174" y="582" type="line"/>
			<point x="174" y="693" type="line"/>
			<point x="84" y="693" type="line"/>
			<point x="84" y="582" type="line"/>
			<point x="16" y="582" type="line"/>
		</contour>
		<contour>
			<point x="402" y="400" type="line"/>
			<point x="174" y="400" type="line"/>
			<point x="174" y="516" type="line"/>
			<point x="402" y="516" type="line"/>
		</contour>
	</outline>
</glyph>
<glyph name="hbar" format="2">
	<unicode hex="0127"/>
	<advance width="482"/>
	<outline>
		<contour>
			<point x="15" y="617" type="line"/>
			<point x="78" y="617" type="line"/>
			<point x="78" y="-1" type="line"/>
			<point x="164" y="-1" type="line"/>
			<point x="164" y="450" type="line"/>
			<point x="189" y="457"/>
			<point x="211" y="460"/>
			<point x="229" y="460" type="curve" smooth="yes"/>
			<point x="302" y="460"/>
			<point x="324" y="413"/>
			<point x="324" y="310" type="curve" smooth="yes"/>
			<point x="324" y="0" type="line"/>
			<point x="410" y="0" type="line"/>
			<point x="410" y="317" type="line" smooth="yes"/>
			<point x="410" y="486"/>
			<point x="339" y="536"/>
			<point x="251" y="536" type="curve" smooth="yes"/>
			<point x="220" y="536"/>
			<point x="189" y="530"/>
			<point x="164" y="522" type="curve"/>
			<point x="164" y="617" type="line"/>
			<point x="292" y="617" type="line"/>
			<point x="292" y="683" type="line"/>
			<point x="164" y="683" type="line"/>
			<point x="164" y="776" type="line"/>
			<point x="78" y="761" type="line"/>
			<point x="78" y="683" type="line"/>
			<point x="15" y="683" type="line"/>
		</contour>
	</outline>
</glyph>
<glyph name="Iogonek" format="2">
	<unicode hex="012E"/>
	<advance width="258"/>
	<outline>
		<contour>
			<point x="171" y="-113" type="line"/>
			<point x="159" y="-118"/>
			<point x="147" y="-120"/>
			<point x="135" y="-120" type="curve" smooth="yes"/>
			<point x="111" y="-120"/>
			<point x="92" y="-110"/>
			<point x="92" y="-83" type="curve" smooth="yes"/>
			<point x="92" y="-55"/>
			<point x="122" y="-28"/>
			<point x="174" y="0" type="curve"/>
			<point x="174" y="693" type="line"/>
			<point x="84" y="693" type="line"/>
			<point x="84" y="11" type="line"/>
			<point x="39" y="-22"/>
			<point x="14" y="-62"/>
			<point x="14" y="-106" type="curve" smooth="yes"/>
			<point x="14" y="-156"/>
			<point x="56" y="-187"/>
			<point x="114" y="-187" type="curve" smooth="yes"/>
			<point x="136" y="-187"/>
			<point x="158" y="-183"/>
			<point x="176" y="-176" type="curve"/>
		</contour>
	</outline>
</glyph>
<glyph name="iogonek" format="2">
	<unicode hex="012F"/>
	<advance width="242"/>
	<outline>
		<contour>
			<point x="166" y="-176" type="curve"/>
			<point x="161" y="-113" type="line"/>
			<point x="149" y="-118"/>
			<point x="137" y="-120"/>
			<point x="125" y="-120" type="curve" smooth="yes"/>
			<point x="101" y="-120"/>
			<point x="82" y="-110"/>
			<point x="82" y="-83" type="curve" smooth="yes"/>
			<point x="82" y="-55"/>
			<point x="112" y="-28"/>
			<point x="164" y="0" type="curve"/>
			<point x="164" y="525" type="line"/>
			<point x="78" y="525" type="line"/>
			<point x="78" y="11" type="line"/>
			<point x="33" y="-22"/>
			<point x="4" y="-58"/>
			<point x="4" y="-106" type="curve" smooth="yes"/>
			<point x="4" y="-156"/>
			<point x="46" y="-187"/>
			<point x="104" y="-187" type="curve" smooth="yes"/>
			<point x="126" y="-187"/>
			<point x="148" y="-183"/>
		</contour>
		<contour>
			<point x="121" y="618" type="curve" smooth="yes"/>
			<point x="152" y="618"/>
			<point x="177" y="641"/>
			<point x="177" y="675" type="curve" smooth="yes"/>
			<point x="177" y="709"/>
			<point x="152" y="732"/>
			<point x="121" y="732" type="curve" smooth="yes"/>
			<point x="90" y="732"/>
			<point x="65" y="709"/>
			<point x="65" y="675" type="curve" smooth="yes"/>
			<point x="65" y="641"/>
			<point x="90" y="618"/>
		</contour>
	</outline>
</glyph>
<glyph name="Scedilla" format="2">
	<unicode hex="015E"/>
	<advance width="400"/>
	<outline>
		<contour>
			<point x="170" y="62" type="qcurve"/>
			<point x="224" y="62"/>
			<point x="283" y="122"/>
			<point x="283" y="173" type="qcurve"/>
			<point x="283" y="200"/>
			<point x="265" y="242"/>
			<point x="236" y="276"/>
			<point x="198" y="304"/>
			<point x="178" y="318" type="qcurve"/>
			<point x="155" y="334"/>
			<point x="105" y="370"/>
			<point x="64" y="418"/>
			<point x="38" y="482"/>
			<point x="38" y="525" type="qcurve"/>
			<point x="38" y="567"/>
			<point x="67" y="635"/>
			<point x="118" y="683"/>
			<point x="189" y="709"/>
			<point x="230" y="709" type="qcurve"/>
			<point x="270" y="709"/>
			<point x="338" y="689"/>
			<point x="361" y="675" type="qcurve"/>
			<point x="333" y="604" type="line"/>
			<point x="312" y="618"/>
			<point x="263" y="633"/>
			<point x="236" y="633" type="qcurve"/>
			<point x="187" y="633"/>
			<point x="128" y="580"/>
			<point x="128" y="529" type="qcurve"/>
			<point x="128" y="501"/>
			<point x="147" y="459"/>
			<point x="178" y="425"/>
			<point x="219" y="397"/>
			<point x="242" y="382" type="qcurve"/>
			<point x="265" y="367"/>
			<point x="313" y="331"/>
			<point x="352" y="284"/>
			<point x="377" y="221"/>
			<point x="377" y="178" type="qcurve"/>
			<point x="377" y="143"/>
			<point x="358" y="81"/>
			<point x="319" y="30"/>
			<point x="260" y="-5"/>
			<point x="220" y="-11" type="qcurve"/>
			<point x="216" y="-19"/>
			<point x="209" y="-33"/>
			<point x="207" y="-40" type="qcurve"/>
			<point x="236" y="-51"/>
			<point x="260" y="-86"/>
			<point x="260" y="-109" type="qcurve"/>
			<point x="260" y="-147"/>
			<point x="200" y="-189"/>
			<point x="156" y="-189" type="qcurve"/>
			<point x="141" y="-189"/>
			<point x="105" y="-184"/>
			<point x="88" y="-178" type="qcurve"/>
			<point x="98" y="-123" type="line"/>
			<point x="108" y="-125"/>
			<point x="130" y="-130"/>
			<point x="142" y="-130" type="qcurve"/>
			<point x="160" y="-130"/>
			<point x="186" y="-119"/>
			<point x="186" y="-103" type="qcurve"/>
			<point x="186" y="-92"/>
			<point x="164" y="-76"/>
			<point x="134" y="-70" type="qcurve"/>
			<point x="138" y="-57"/>
			<point x="150" y="-28"/>
			<point x="156" y="-14" type="qcurve"/>
			<point x="114" y="-12"/>
			<point x="50" y="8"/>
			<point x="25" y="25" type="qcurve"/>
			<point x="53" y="97" type="line"/>
			<point x="79" y="81"/>
			<point x="134" y="62"/>
		</contour>
	</outline>
</glyph>
<glyph name="scedilla" format="2">
	<unicode hex="015F"/>
	<advance width="341"/>
	<outline>
		<contour>
			<point x="151" y="61" type="qcurve"/>
			<point x="189" y="61"/>
			<point x="228" y="104"/>
			<point x="228" y="139" type="qcurve"/>
			<point x="228" y="161"/>
			<point x="212" y="192"/>
			<point x="186" y="216"/>
			<point x="152" y="235"/>
			<point x="135" y="246" type="qcurve"/>
			<point x="118" y="256"/>
			<point x="86" y="283"/>
			<point x="61" y="318"/>
			<point x="46" y="363"/>
			<point x="46" y="393" type="qcurve"/>
			<point x="46" y="458"/>
			<point x="127" y="538"/>
			<point x="196" y="538" type="qcurve"/>
			<point x="225" y="538"/>
			<point x="277" y="523"/>
			<point x="294" y="514" type="qcurve"/>
			<point x="275" y="445" type="line"/>
			<point x="257" y="455"/>
			<point x="221" y="465"/>
			<point x="200" y="465" type="qcurve"/>
			<point x="168" y="465"/>
			<point x="130" y="428"/>
			<point x="130" y="393" type="qcurve"/>
			<point x="130" y="373"/>
			<point x="144" y="344"/>
			<point x="167" y="321"/>
			<point x="196" y="301"/>
			<point x="212" y="292" type="qcurve"/>
			<point x="231" y="281"/>
			<point x="268" y="255"/>
			<point x="297" y="220"/>
			<point x="315" y="173"/>
			<point x="315" y="140" type="qcurve"/>
			<point x="315" y="83"/>
			<point x="261" y="6"/>
			<point x="207" y="-7" type="qcurve"/>
			<point x="202" y="-15"/>
			<point x="195" y="-32"/>
			<point x="192" y="-40" type="qcurve"/>
			<point x="221" y="-51"/>
			<point x="245" y="-86"/>
			<point x="245" y="-109" type="qcurve"/>
			<point x="245" y="-147"/>
			<point x="185" y="-189"/>
			<point x="141" y="-189" type="qcurve"/>
			<point x="126" y="-189"/>
			<point x="90" y="-184"/>
			<point x="73" y="-178" type="qcurve"/>
			<point x="83" y="-123" type="line"/>
			<point x="93" y="-125"/>
			<point x="115" y="-130"/>
			<point x="127" y="-130" type="qcurve"/>
			<point x="145" y="-130"/>
			<point x="171" y="-119"/>
			<point x="171" y="-103" type="qcurve"/>
			<point x="171" y="-92"/>
			<point x="149" y="-76"/>
			<point x="119" y="-70" type="qcurve"/>
			<point x="123" y="-56"/>
			<point x="135" y="-26"/>
			<point x="142" y="-12" type="qcurve"/>
			<point x="107" y="-10"/>
			<point x="50" y="10"/>
			<point x="36" y="18" type="qcurve"/>
			<point x="54" y="89" type="line"/>
			<point x="69" y="81"/>
			<point x="120" y="61"/>
		</contour>
	</outline>
</glyph>
<glyph name="uni0163" format="2">
	<unicode hex="0163"/>
	<advance width="321"/>
	<outline>
		<contour>
			<point x="158" y="525" type="line"/>
			<point x="290" y="525" type="line"/>
			<point x="290" y="451" type="line"/>
			<point x="158" y="451" type="line"/>
			<point x="158" y="162" type="line"/>
			<point x="158" y="108"/>
			<point x="197" y="65"/>
			<point x="230" y="65" type="qcurve"/>
			<point x="247" y="65"/>
			<point x="278" y="75"/>
			<point x="289" y="82" type="qcurve"/>
			<point x="306" y="13" type="line"/>
			<point x="267" y="-9"/>
			<point x="223" y="-11" type="qcurve"/>
			<point x="219" y="-19"/>
			<point x="212" y="-33"/>
			<point x="210" y="-40" type="qcurve"/>
			<point x="239" y="-51"/>
			<point x="263" y="-86"/>
			<point x="263" y="-109" type="qcurve"/>
			<point x="263" y="-147"/>
			<point x="203" y="-189"/>
			<point x="159" y="-189" type="qcurve"/>
			<point x="144" y="-189"/>
			<point x="108" y="-184"/>
			<point x="91" y="-178" type="qcurve"/>
			<point x="101" y="-123" type="line"/>
			<point x="111" y="-125"/>
			<point x="133" y="-130"/>
			<point x="145" y="-130" type="qcurve"/>
			<point x="163" y="-130"/>
			<point x="189" y="-119"/>
			<point x="189" y="-103" type="qcurve"/>
			<point x="189" y="-92"/>
			<point x="167" y="-76"/>
			<point x="137" y="-70" type="qcurve"/>
			<point x="142" y="-54"/>
			<point x="156" y="-19"/>
			<point x="164" y="-4" type="qcurve"/>
			<point x="117" y="9"/>
			<point x="72" y="91"/>
			<point x="72" y="168" type="qcurve"/>
			<point x="72" y="666" type="line"/>
			<point x="158" y="681" type="line"/>
		</contour>
	</outline>
</glyph>
<glyph name="tbar" format="2">
	<unicode hex="0167"/>
	<advance width="351"/>
	<outline>
		<contour>
			<point x="158" y="681" type="line"/>
			<point x="72" y="666" type="line"/>
			<point x="72" y="168" type="line" smooth="yes"/>
			<point x="72" y="40"/>
			<point x="120" y="-11"/>
			<point x="219" y="-11" type="curve" smooth="yes"/>
			<point x="250" y="-11"/>
			<point x="279" y="-3"/>
			<point x="306" y="13" type="curve"/>
			<point x="289" y="82" type="line"/>
			<point x="274" y="73"/>
			<point x="253" y="65"/>
			<point x="230" y="65" type="curve" smooth="yes"/>
			<point x="186" y="65"/>
			<point x="158" y="90"/>
			<point x="158" y="162" type="curve" smooth="yes"/>
			<point x="158" y="240" type="line"/>
			<point x="290" y="240" type="line"/>
			<point x="290" y="306" type="line"/>
			<point x="158" y="306" type="line"/>
			<point x="158" y="451" type="line"/>
			<point x="290" y="451" type="line"/>
			<point x="290" y="525" type="line"/>
			<point x="158" y="525" type="line"/>
		</contour>
	</outline>
</glyph>
<glyph name="uni0181" format="2">
	<unicode hex="0181"/>
	<advance width="575"/>
	<outline>
		<contour>
			<point x="300" y="326" type="line" smooth="yes"/>
			<point x="394" y="326"/>
			<point x="438" y="276"/>
			<point x="438" y="194" type="curve" smooth="yes"/>
			<point x="438" y="97"/>
			<point x="378" y="69"/>
			<point x="302" y="69" type="curve" smooth="yes"/>
			<point x="278" y="69"/>
			<point x="253" y="72"/>
			<point x="228" y="76" type="curve"/>
			<point x="228" y="326" type="line"/>
		</contour>
		<contour>
			<point x="74" y="501" type="line"/>
			<point x="74" y="509"/>
			<point x="73" y="521"/>
			<point x="73" y="532" type="curve" smooth="yes"/>
			<point x="73" y="579"/>
			<point x="88" y="603"/>
			<point x="138" y="615" type="curve"/>
			<point x="138" y="11" type="line"/>
			<point x="192" y="1"/>
			<point x="243" y="-5"/>
			<point x="290" y="-5" type="curve" smooth="yes"/>
			<point x="432" y="-5"/>
			<point x="531" y="48"/>
			<point x="531" y="191" type="curve" smooth="yes"/>
			<point x="531" y="287"/>
			<point x="481" y="339"/>
			<point x="414" y="365" type="curve"/>
			<point x="468" y="390"/>
			<point x="507" y="443"/>
			<point x="507" y="525" type="curve" smooth="yes"/>
			<point x="507" y="662"/>
			<point x="391" y="705"/>
			<point x="267" y="705" type="curve" smooth="yes"/>
			<point x="155" y="705"/>
			<point x="0" y="695"/>
			<point x="0" y="541" type="curve" smooth="yes"/>
			<point x="0" y="522"/>
			<point x="2" y="501"/>
			<point x="5" y="492" type="curve"/>
		</contour>
		<contour>
			<point x="263" y="624" type="curve" smooth="yes"/>
			<point x="369" y="624"/>
			<point x="414" y="594"/>
			<point x="414" y="510" type="curve" smooth="yes"/>
			<point x="414" y="435"/>
			<point x="374" y="398"/>
			<point x="290" y="398" type="curve" smooth="yes"/>
			<point x="228" y="398" type="line"/>
			<point x="228" y="623" type="line"/>
			<point x="239" y="624"/>
			<point x="250" y="624"/>
		</contour>
	</outline>
</glyph>
<glyph name="uni0182" format="2">
	<unicode hex="0182"/>
	<advance width="501"/>
	<outline>
		<contour>
			<point x="84" y="693" type="line"/>
			<point x="395" y="693" type="line"/>
			<point x="395" y="616" type="line"/>
			<point x="174" y="616" type="line"/>
			<point x="174" y="436" type="line"/>
			<point x="217" y="436" type="line"/>
			<point x="271" y="436"/>
			<point x="359" y="412"/>
			<point x="422" y="359"/>
			<point x="457" y="274"/>
			<point x="457" y="214" type="qcurve"/>
			<point x="457" y="155"/>
			<point x="423" y="71"/>
			<point x="361" y="18"/>
			<point x="275" y="-7"/>
			<point x="223" y="-7" type="qcurve"/>
			<point x="154" y="-7"/>
			<point x="84" y="10" type="qcurve"/>
		</contour>
		<contour>
			<point x="174" y="75" type="line"/>
			<point x="198" y="72"/>
			<point x="224" y="72" type="qcurve"/>
			<point x="255" y="72"/>
			<point x="306" y="86"/>
			<point x="342" y="119"/>
			<point x="362" y="173"/>
			<point x="362" y="214" type="qcurve"/>
			<point x="362" y="293"/>
			<point x="282" y="357"/>
			<point x="211" y="357" type="qcurve"/>
			<point x="174" y="357" type="line"/>
		</contour>
	</outline>
</glyph>
<glyph name="uni0186" format="2">
	<unicode hex="0186"/>
	<advance width="460"/>
	<outline>
		<contour>
			<point x="159" y="709" type="curve" smooth="yes"/>
			<point x="96" y="709"/>
			<point x="45" y="689"/>
			<point x="16" y="665" type="curve"/>
			<point x="41" y="594" type="line"/>
			<point x="72" y="615"/>
			<point x="101" y="630"/>
			<point x="153" y="630" type="curve" smooth="yes"/>
			<point x="264" y="630"/>
			<point x="309" y="529"/>
			<point x="309" y="347" type="curve" smooth="yes"/>
			<point x="309" y="155"/>
			<point x="262" y="64"/>
			<point x="152" y="64" type="curve" smooth="yes"/>
			<point x="106" y="64"/>
			<point x="73" y="77"/>
			<point x="42" y="98" type="curve"/>
			<point x="15" y="27" type="line"/>
			<point x="46" y="5"/>
			<point x="98" y="-15"/>
			<point x="154" y="-15" type="curve" smooth="yes"/>
			<point x="292" y="-15"/>
			<point x="405" y="82"/>
			<point x="405" y="347" type="curve" smooth="yes"/>
			<point x="405" y="593"/>
			<point x="317" y="709"/>
		</contour>
	</outline>
</glyph>
<glyph name="uni018A" format="2">
	<unicode hex="018A"/>
	<advance width="632"/>
	<outline>
		<contour>
			<point x="283" y="-7" type="qcurve"/>
			<point x="215" y="-7"/>
			<point x="139" y="11" type="qcurve"/>
			<point x="139" y="611" type="line"/>
			<point x="101" y="602"/>
			<point x="73" y="563"/>
			<point x="73" y="528" type="qcurve"/>
			<point x="73" y="520"/>
			<point x="74" y="503"/>
			<point x="74" y="497" type="qcurve"/>
			<point x="5" y="488" type="line"/>
			<point x="3" y="495"/>
			<point x="0" y="523"/>
			<point x="0" y="537" type="qcurve"/>
			<point x="0" y="595"/>
			<point x="53" y="660"/>
			<point x="134" y="693"/>
			<point x="231" y="701"/>
			<point x="274" y="701" type="qcurve"/>
			<point x="345" y="701"/>
			<point x="458" y="663"/>
			<point x="536" y="579"/>
			<point x="577" y="444"/>
			<point x="577" y="347" type="qcurve"/>
			<point x="577" y="252"/>
			<point x="537" y="117"/>
			<point x="462" y="32"/>
			<point x="353" y="-7"/>
		</contour>
		<contour>
			<point x="270" y="621" type="qcurve"/>
			<point x="259" y="621"/>
			<point x="238" y="621"/>
			<point x="229" y="620" type="qcurve"/>
			<point x="229" y="77" type="line"/>
			<point x="244" y="75"/>
			<point x="272" y="73"/>
			<point x="285" y="73" type="qcurve"/>
			<point x="340" y="73"/>
			<point x="415" y="104"/>
			<point x="461" y="171"/>
			<point x="481" y="275"/>
			<point x="481" y="347" type="qcurve"/>
			<point x="481" y="420"/>
			<point x="460" y="524"/>
			<point x="411" y="590"/>
			<point x="330" y="621"/>
		</contour>
	</outline>
</glyph>
<glyph name="uni018E" format="2">
	<unicode hex="018E"/>
	<advance width="456"/>
	<outline>
		<contour>
			<point x="45" y="0" type="line"/>
			<point x="45" y="77" type="line"/>
			<point x="282" y="77" type="line"/>
			<point x="282" y="326" type="line"/>
			<point x="82" y="326" type="line"/>
			<point x="82" y="401" type="line"/>
			<point x="282" y="401" type="line"/>
			<point x="282" y="616" type="line"/>
			<point x="61" y="616" type="line"/>
			<point x="61" y="693" type="line"/>
			<point x="372" y="693" type="line"/>
			<point x="372" y="0" type="line"/>
		</contour>
	</outline>
</glyph>
<glyph name="uni0190" format="2">
	<unicode hex="0190"/>
	<advance width="429"/>
	<outline>
		<contour>
			<point x="155" y="372" type="curve"/>
			<point x="95" y="348"/>
			<point x="49" y="276"/>
			<point x="49" y="196" type="curve" smooth="yes"/>
			<point x="49" y="66"/>
			<point x="123" y="-15"/>
			<point x="267" y="-15" type="curve" smooth="yes"/>
			<point x="320" y="-15"/>
			<point x="366" y="-2"/>
			<point x="402" y="19" type="curve"/>
			<point x="384" y="89" type="line"/>
			<point x="352" y="70"/>
			<point x="309" y="60"/>
			<point x="273" y="60" type="curve" smooth="yes"/>
			<point x="192" y="60"/>
			<point x="136" y="108"/>
			<point x="136" y="197" type="curve" smooth="yes"/>
			<point x="136" y="275"/>
			<point x="195" y="332"/>
			<point x="298" y="332" type="curve" smooth="yes"/>
			<point x="330" y="332" type="line"/>
			<point x="330" y="403" type="line"/>
			<point x="302" y="403" type="line" smooth="yes"/>
			<point x="198" y="403"/>
			<point x="156" y="451"/>
			<point x="156" y="523" type="curve" smooth="yes"/>
			<point x="156" y="586"/>
			<point x="194" y="632"/>
			<point x="265" y="632" type="curve" smooth="yes"/>
			<point x="300" y="632"/>
			<point x="341" y="619"/>
			<point x="370" y="595" type="curve"/>
			<point x="393" y="667" type="line"/>
			<point x="353" y="696"/>
			<point x="303" y="708"/>
			<point x="252" y="708" type="curve" smooth="yes"/>
			<point x="143" y="708"/>
			<point x="70" y="637"/>
			<point x="70" y="529" type="curve" smooth="yes"/>
			<point x="70" y="454"/>
			<point x="101" y="400"/>
		</contour>
	</outline>
</glyph>
<glyph name="uni0195" format="2">
	<unicode hex="0195"/>
	<advance width="742"/>
	<outline>
		<contour>
			<point x="329" y="310" type="line"/>
			<point x="329" y="387"/>
			<point x="287" y="460"/>
			<point x="231" y="460" type="qcurve"/>
			<point x="201" y="460"/>
			<point x="164" y="450" type="qcurve"/>
			<point x="164" y="-1" type="line"/>
			<point x="78" y="-1" type="line"/>
			<point x="78" y="761" type="line"/>
			<point x="164" y="776" type="line"/>
			<point x="164" y="522" type="line"/>
			<point x="184" y="528"/>
			<point x="229" y="536"/>
			<point x="253" y="536" type="qcurve"/>
			<point x="287" y="536"/>
			<point x="346" y="515"/>
			<point x="390" y="465"/>
			<point x="415" y="380"/>
			<point x="415" y="317" type="qcurve"/>
			<point x="415" y="171" type="line"/>
			<point x="415" y="122"/>
			<point x="454" y="65"/>
			<point x="499" y="65" type="qcurve"/>
			<point x="545" y="65"/>
			<point x="584" y="122"/>
			<point x="584" y="172" type="qcurve"/>
			<point x="584" y="524" type="line"/>
			<point x="670" y="524" type="line"/>
			<point x="670" y="172" type="line"/>
			<point x="670" y="-11"/>
			<point x="499" y="-11" type="qcurve"/>
			<point x="414" y="-11"/>
			<point x="329" y="75"/>
			<point x="329" y="172" type="qcurve"/>
		</contour>
	</outline>
</glyph>
<glyph name="uni0198" format="2">
	<unicode hex="0198"/>
	<advance width="526"/>
	<outline>
		<contour>
			<point x="332" y="615" type="qcurve"/>
			<point x="361" y="663"/>
			<point x="416" y="699"/>
			<point x="446" y="699" type="qcurve"/>
			<point x="469" y="699"/>
			<point x="517" y="682"/>
			<point x="534" y="667" type="qcurve"/>
			<point x="504" y="602" type="line"/>
			<point x="481" y="622"/>
			<point x="461" y="622" type="qcurve"/>
			<point x="455" y="622"/>
			<point x="443" y="620"/>
			<point x="429" y="610"/>
			<point x="412" y="591"/>
			<point x="401" y="574" type="qcurve"/>
			<point x="372" y="530"/>
			<point x="297" y="422"/>
			<point x="259" y="371" type="qcurve"/>
			<point x="289" y="341"/>
			<point x="359" y="250"/>
			<point x="427" y="148"/>
			<point x="487" y="44"/>
			<point x="505" y="0" type="qcurve"/>
			<point x="404" y="0" type="line"/>
			<point x="383" y="46"/>
			<point x="328" y="142"/>
			<point x="267" y="231"/>
			<point x="204" y="307"/>
			<point x="174" y="333" type="qcurve"/>
			<point x="174" y="0" type="line"/>
			<point x="84" y="0" type="line"/>
			<point x="84" y="693" type="line"/>
			<point x="174" y="693" type="line"/>
			<point x="174" y="387" type="line"/>
			<point x="225" y="454"/>
			<point x="306" y="572"/>
		</contour>
	</outline>
</glyph>
<glyph name="uni019C" format="2">
	<unicode hex="019C"/>
	<advance width="772"/>
	<outline>
		<contour>
			<point x="688" y="693" type="line"/>
			<point x="598" y="693" type="line"/>
			<point x="598" y="78" type="line"/>
			<point x="577" y="68"/>
			<point x="552" y="62"/>
			<point x="528" y="62" type="curve" smooth="yes"/>
			<point x="459" y="62"/>
			<point x="431" y="99"/>
			<point x="431" y="203" type="curve" smooth="yes"/>
			<point x="431" y="693" type="line"/>
			<point x="341" y="693" type="line"/>
			<point x="341" y="194" type="line" smooth="yes"/>
			<point x="341" y="149"/>
			<point x="346" y="112"/>
			<point x="357" y="83" type="curve"/>
			<point x="331" y="70"/>
			<point x="299" y="63"/>
			<point x="267" y="63" type="curve" smooth="yes"/>
			<point x="217" y="63"/>
			<point x="174" y="88"/>
			<point x="174" y="203" type="curve" smooth="yes"/>
			<point x="174" y="693" type="line"/>
			<point x="84" y="693" type="line"/>
			<point x="84" y="194" type="line" smooth="yes"/>
			<point x="84" y="31"/>
			<point x="161" y="-16"/>
			<point x="259" y="-16" type="curve" smooth="yes"/>
			<point x="309" y="-16"/>
			<point x="361" y="-2"/>
			<point x="401" y="19" type="curve"/>
			<point x="432" y="-6"/>
			<point x="473" y="-16"/>
			<point x="522" y="-16" type="curve" smooth="yes"/>
			<point x="571" y="-16"/>
			<point x="636" y="-1"/>
			<point x="688" y="18" type="curve"/>
		</contour>
	</outline>
</glyph>
<glyph name="uni019D" format="2">
	<unicode hex="019D"/>
	<advance width="581"/>
	<outline>
		<contour>
			<point x="424" y="0" type="line"/>
			<point x="400" y="59"/>
			<point x="339" y="196"/>
			<point x="272" y="335"/>
			<point x="202" y="472"/>
			<point x="168" y="531" type="qcurve"/>
			<point x="168" y="-26" type="line"/>
			<point x="168" y="-112"/>
			<point x="99" y="-186"/>
			<point x="39" y="-186" type="qcurve"/>
			<point x="5" y="-186"/>
			<point x="-19" y="-176" type="qcurve"/>
			<point x="-6" y="-103" type="line"/>
			<point x="12" y="-108"/>
			<point x="28" y="-108" type="qcurve"/>
			<point x="41" y="-108"/>
			<point x="61" y="-101"/>
			<point x="76" y="-81"/>
			<point x="84" y="-47"/>
			<point x="84" y="-21" type="qcurve"/>
			<point x="84" y="693" type="line"/>
			<point x="159" y="693" type="line"/>
			<point x="197" y="631"/>
			<point x="268" y="501"/>
			<point x="332" y="374"/>
			<point x="389" y="251"/>
			<point x="413" y="196" type="qcurve"/>
			<point x="413" y="693" type="line"/>
			<point x="497" y="693" type="line"/>
			<point x="497" y="0" type="line"/>
		</contour>
	</outline>
</glyph>
<glyph name="uni019E" format="2">
	<unicode hex="019E"/>
	<advance width="482"/>
	<outline>
		<contour>
			<point x="78" y="0" type="line"/>
			<point x="164" y="0" type="line"/>
			<point x="164" y="450" type="line"/>
			<point x="189" y="457"/>
			<point x="211" y="460"/>
			<point x="229" y="460" type="curve" smooth="yes"/>
			<point x="302" y="460"/>
			<point x="324" y="413"/>
			<point x="324" y="310" type="curve" smooth="yes"/>
			<point x="324" y="-183" type="line"/>
			<point x="410" y="-183" type="line"/>
			<point x="410" y="317" type="line" smooth="yes"/>
			<point x="410" y="486"/>
			<point x="341" y="536"/>
			<point x="237" y="536" type="curve" smooth="yes"/>
			<point x="189" y="536"/>
			<point x="127" y="525"/>
			<point x="78" y="510" type="curve"/>
		</contour>
	</outline>
</glyph>
<glyph name="uni01A3" format="2">
	<unicode hex="01A3"/>
	<advance width="680"/>
	<outline>
		<contour>
			<point x="415" y="262" type="curve" smooth="yes"/>
			<point x="415" y="331"/>
			<point x="405" y="391"/>
			<point x="383" y="437" type="curve"/>
			<point x="402" y="451"/>
			<point x="425" y="460"/>
			<point x="446" y="460" type="curve" smooth="yes"/>
			<point x="504" y="460"/>
			<point x="522" y="413"/>
			<point x="522" y="310" type="curve" smooth="yes"/>
			<point x="522" y="-183" type="line"/>
			<point x="608" y="-183" type="line"/>
			<point x="608" y="317" type="line" smooth="yes"/>
			<point x="608" y="486"/>
			<point x="547" y="536"/>
			<point x="458" y="536" type="curve" smooth="yes"/>
			<point x="413" y="536"/>
			<point x="375" y="519"/>
			<point x="343" y="496" type="curve"/>
			<point x="315" y="523"/>
			<point x="278" y="538"/>
			<point x="232" y="538" type="curve" smooth="yes"/>
			<point x="106" y="538"/>
			<point x="48" y="426"/>
			<point x="48" y="262" type="curve" smooth="yes"/>
			<point x="48" y="98"/>
			<point x="106" y="-13"/>
			<point x="232" y="-13" type="curve" smooth="yes"/>
			<point x="358" y="-13"/>
			<point x="415" y="98"/>
		</contour>
		<contour>
			<point x="325" y="262" type="curve" smooth="yes"/>
			<point x="325" y="144"/>
			<point x="300" y="64"/>
			<point x="232" y="64" type="curve" smooth="yes"/>
			<point x="164" y="64"/>
			<point x="138" y="144"/>
			<point x="138" y="262" type="curve" smooth="yes"/>
			<point x="138" y="380"/>
			<point x="164" y="461"/>
			<point x="232" y="461" type="curve" smooth="yes"/>
			<point x="300" y="461"/>
			<point x="325" y="380"/>
		</contour>
	</outline>
</glyph>
<glyph name="uni01A4" format="2">
	<unicode hex="01A4"/>
	<advance width="539"/>
	<outline>
		<contour>
			<point x="228" y="0" type="line"/>
			<point x="228" y="257" type="line"/>
			<point x="270" y="257" type="line" smooth="yes"/>
			<point x="411" y="257"/>
			<point x="506" y="318"/>
			<point x="506" y="479" type="curve" smooth="yes"/>
			<point x="506" y="637"/>
			<point x="412" y="700"/>
			<point x="271" y="700" type="curve" smooth="yes"/>
			<point x="157" y="700"/>
			<point x="0" y="690"/>
			<point x="0" y="536" type="curve" smooth="yes"/>
			<point x="0" y="517"/>
			<point x="2" y="496"/>
			<point x="5" y="487" type="curve"/>
			<point x="74" y="496" type="line"/>
			<point x="74" y="504"/>
			<point x="73" y="516"/>
			<point x="73" y="527" type="curve" smooth="yes"/>
			<point x="73" y="574"/>
			<point x="88" y="598"/>
			<point x="138" y="609" type="curve"/>
			<point x="138" y="0" type="line"/>
		</contour>
		<contour>
			<point x="268" y="619" type="curve" smooth="yes"/>
			<point x="355" y="619"/>
			<point x="411" y="587"/>
			<point x="411" y="479" type="curve" smooth="yes"/>
			<point x="411" y="373"/>
			<point x="356" y="336"/>
			<point x="264" y="336" type="curve" smooth="yes"/>
			<point x="228" y="336" type="line"/>
			<point x="228" y="618" type="line"/>
			<point x="240" y="619"/>
			<point x="253" y="619"/>
		</contour>
	</outline>
</glyph>
<glyph name="uni01A5" format="2">
	<unicode hex="01A5"/>
	<advance width="467"/>
	<outline>
		<contour>
			<point x="163" y="-183" type="line"/>
			<point x="77" y="-183" type="line"/>
			<point x="77" y="616" type="line"/>
			<point x="77" y="702"/>
			<point x="149" y="776"/>
			<point x="209" y="776" type="qcurve"/>
			<point x="241" y="776"/>
			<point x="265" y="766" type="qcurve"/>
			<point x="253" y="693" type="line"/>
			<point x="235" y="698"/>
			<point x="219" y="698" type="qcurve"/>
			<point x="193" y="698"/>
			<point x="163" y="663"/>
			<point x="163" y="611" type="qcurve"/>
			<point x="163" y="529" type="line"/>
			<point x="177" y="533"/>
			<point x="208" y="538"/>
			<point x="225" y="538" type="qcurve"/>
			<point x="324" y="538"/>
			<point x="419" y="391"/>
			<point x="419" y="260" type="qcurve"/>
			<point x="419" y="127"/>
			<point x="334" y="-13"/>
			<point x="238" y="-13" type="qcurve"/>
			<point x="215" y="-13"/>
			<point x="179" y="-4"/>
			<point x="163" y="4" type="qcurve"/>
		</contour>
		<contour>
			<point x="163" y="79" type="line"/>
			<point x="192" y="63"/>
			<point x="225" y="63" type="qcurve"/>
			<point x="250" y="63"/>
			<point x="288" y="83"/>
			<point x="315" y="129"/>
			<point x="329" y="205"/>
			<point x="329" y="261" type="qcurve"/>
			<point x="329" y="369"/>
			<point x="274" y="462"/>
			<point x="214" y="462" type="qcurve"/>
			<point x="203" y="462"/>
			<point x="177" y="459"/>
			<point x="163" y="455" type="qcurve"/>
		</contour>
	</outline>
</glyph>
<glyph name="uni01A7" format="2">
	<unicode hex="01A7"/>
	<advance width="394"/>
	<outline>
		<contour>
			<point x="223" y="62" type="qcurve"/>
			<point x="257" y="62"/>
			<point x="311" y="81"/>
			<point x="339" y="97" type="qcurve"/>
			<point x="367" y="25" type="line"/>
			<point x="338" y="7"/>
			<point x="265" y="-15"/>
			<point x="220" y="-15" type="qcurve"/>
			<point x="170" y="-15"/>
			<point x="97" y="14"/>
			<point x="49" y="65"/>
			<point x="25" y="136"/>
			<point x="25" y="178" type="qcurve"/>
			<point x="25" y="216"/>
			<point x="51" y="278"/>
			<point x="92" y="328"/>
			<point x="143" y="367"/>
			<point x="168" y="382" type="qcurve"/>
			<point x="189" y="394"/>
			<point x="228" y="424"/>
			<point x="260" y="460"/>
			<point x="279" y="503"/>
			<point x="279" y="529" type="qcurve"/>
			<point x="279" y="580"/>
			<point x="226" y="633"/>
			<point x="181" y="633" type="qcurve"/>
			<point x="151" y="633"/>
			<point x="97" y="618"/>
			<point x="74" y="604" type="qcurve"/>
			<point x="46" y="675" type="line"/>
			<point x="70" y="689"/>
			<point x="144" y="709"/>
			<point x="187" y="709" type="qcurve"/>
			<point x="228" y="709"/>
			<point x="295" y="683"/>
			<point x="343" y="635"/>
			<point x="369" y="567"/>
			<point x="369" y="525" type="qcurve"/>
			<point x="369" y="484"/>
			<point x="341" y="421"/>
			<point x="299" y="372"/>
			<point x="248" y="334"/>
			<point x="226" y="318" type="qcurve"/>
			<point x="206" y="304"/>
			<point x="168" y="276"/>
			<point x="138" y="242"/>
			<point x="119" y="200"/>
			<point x="119" y="173" type="qcurve"/>
			<point x="119" y="122"/>
			<point x="175" y="62"/>
		</contour>
	</outline>
</glyph>
<glyph name="uni01AA" format="2">
	<unicode hex="01AA"/>
	<advance width="250"/>
	<outline>
		<contour>
			<point x="225" y="-187" type="curve"/>
			<point x="237" y="-111" type="line"/>
			<point x="190" y="-106"/>
			<point x="173" y="-89"/>
			<point x="173" y="-43" type="curve" smooth="yes"/>
			<point x="173" y="625" type="line" smooth="yes"/>
			<point x="173" y="713"/>
			<point x="136" y="776"/>
			<point x="44" y="776" type="curve" smooth="yes"/>
			<point x="-31" y="776"/>
			<point x="-80" y="713"/>
			<point x="-80" y="626" type="curve" smooth="yes"/>
			<point x="-80" y="540"/>
			<point x="-40" y="478"/>
			<point x="33" y="478" type="curve" smooth="yes"/>
			<point x="50" y="478"/>
			<point x="69" y="483"/>
			<point x="83" y="491" type="curve"/>
			<point x="83" y="-41" type="line" smooth="yes"/>
			<point x="83" y="-140"/>
			<point x="125" y="-184"/>
		</contour>
		<contour>
			<point x="34" y="544" type="curve" smooth="yes"/>
			<point x="4" y="544"/>
			<point x="-13" y="578"/>
			<point x="-13" y="629" type="curve" smooth="yes"/>
			<point x="-13" y="673"/>
			<point x="3" y="711"/>
			<point x="37" y="711" type="curve" smooth="yes"/>
			<point x="64" y="711"/>
			<point x="83" y="687"/>
			<point x="83" y="640" type="curve" smooth="yes"/>
			<point x="83" y="570" type="line"/>
			<point x="71" y="554"/>
			<point x="56" y="544"/>
		</contour>
	</outline>
</glyph>
<glyph name="uni01AB" format="2">
	<unicode hex="01AB"/>
	<advance width="321"/>
	<outline>
		<contour>
			<point x="158" y="681" type="line"/>
			<point x="72" y="666" type="line"/>
			<point x="72" y="168" type="line" smooth="yes"/>
			<point x="72" y="41"/>
			<point x="118" y="-9"/>
			<point x="215" y="-11" type="curve"/>
			<point x="215" y="-14"/>
			<point x="216" y="-18"/>
			<point x="216" y="-21" type="curve" smooth="yes"/>
			<point x="216" y="-87"/>
			<point x="205" y="-116"/>
			<point x="157" y="-116" type="curve" smooth="yes"/>
			<point x="149" y="-116"/>
			<point x="130" y="-114"/>
			<point x="123" y="-111" type="curve"/>
			<point x="116" y="-179" type="line"/>
			<point x="130" y="-183"/>
			<point x="154" y="-187"/>
			<point x="171" y="-187" type="curve" smooth="yes"/>
			<point x="275" y="-187"/>
			<point x="294" y="-115"/>
			<point x="294" y="0" type="curve" smooth="yes"/>
			<point x="294" y="21"/>
			<point x="291" y="57"/>
			<point x="289" y="74" type="curve"/>
			<point x="274" y="69"/>
			<point x="250" y="65"/>
			<point x="230" y="65" type="curve" smooth="yes"/>
			<point x="186" y="65"/>
			<point x="158" y="90"/>
			<point x="158" y="162" type="curve" smooth="yes"/>
			<point x="158" y="451" type="line"/>
			<point x="290" y="451" type="line"/>
			<point x="290" y="525" type="line"/>
			<point x="158" y="525" type="line"/>
		</contour>
	</outline>
	<guideline x="290"/>
</glyph>
<glyph name="uni01AE" format="2">
	<unicode hex="01AE"/>
	<advance width="426"/>
	<outline>
		<contour>
			<point x="14" y="693" type="line"/>
			<point x="14" y="616" type="line"/>
			<point x="168" y="616" type="line"/>
			<point x="168" y="-26" type="line" smooth="yes"/>
			<point x="168" y="-140"/>
			<point x="220" y="-186"/>
			<point x="304" y="-186" type="curve" smooth="yes"/>
			<point x="324" y="-186"/>
			<point x="343" y="-183"/>
			<point x="360" y="-178" type="curve"/>
			<point x="348" y="-110" type="line"/>
			<point x="337" y="-112"/>
			<point x="326" y="-113"/>
			<point x="314" y="-113" type="curve" smooth="yes"/>
			<point x="280" y="-113"/>
			<point x="258" y="-96"/>
			<point x="258" y="-26" type="curve" smooth="yes"/>
			<point x="258" y="616" type="line"/>
			<point x="412" y="616" type="line"/>
			<point x="412" y="693" type="line"/>
		</contour>
	</outline>
</glyph>
<glyph name="Uhorn" format="2">
	<unicode hex="01AF"/>
	<advance width="549"/>
	<outline>
		<contour>
			<point x="272" y="-15" type="qcurve"/>
			<point x="175" y="-15"/>
			<point x="78" y="95"/>
			<point x="78" y="214" type="qcurve"/>
			<point x="78" y="693" type="line"/>
			<point x="168" y="693" type="line"/>
			<point x="168" y="222" type="line"/>
			<point x="168" y="143"/>
			<point x="214" y="64"/>
			<point x="274" y="64" type="qcurve"/>
			<point x="336" y="64"/>
			<point x="381" y="145"/>
			<point x="381" y="222" type="qcurve"/>
			<point x="381" y="693" type="line"/>
			<point x="439" y="693" type="line"/>
			<point x="470" y="693"/>
			<point x="498" y="730"/>
			<point x="498" y="763" type="qcurve"/>
			<point x="498" y="773"/>
			<point x="497" y="795"/>
			<point x="496" y="801" type="qcurve"/>
			<point x="578" y="801" type="line"/>
			<point x="579" y="792"/>
			<point x="579" y="774"/>
			<point x="579" y="765" type="qcurve"/>
			<point x="579" y="742"/>
			<point x="569" y="696"/>
			<point x="544" y="657"/>
			<point x="502" y="630"/>
			<point x="471" y="626" type="qcurve"/>
			<point x="471" y="214" type="line"/>
			<point x="471" y="97"/>
			<point x="371" y="-15"/>
		</contour>
	</outline>
</glyph>
<glyph name="uni01B1" format="2">
	<unicode hex="01B1"/>
	<advance width="611"/>
	<outline>
		<contour>
			<point x="305" y="61" type="qcurve"/>
			<point x="337" y="61"/>
			<point x="391" y="89"/>
			<point x="431" y="150"/>
			<point x="454" y="247"/>
			<point x="454" y="315" type="qcurve"/>
			<point x="454" y="414"/>
			<point x="392" y="573"/>
			<point x="346" y="634" type="qcurve"/>
			<point x="346" y="693" type="line"/>
			<point x="561" y="693" type="line"/>
			<point x="561" y="617" type="line"/>
			<point x="448" y="617" type="line"/>
			<point x="466" y="592"/>
			<point x="502" y="526"/>
			<point x="531" y="448"/>
			<point x="549" y="358"/>
			<point x="549" y="310" type="qcurve"/>
			<point x="549" y="230"/>
			<point x="514" y="108"/>
			<point x="450" y="25"/>
			<point x="360" y="-18"/>
			<point x="305" y="-18" type="qcurve"/>
			<point x="251" y="-18"/>
			<point x="161" y="25"/>
			<point x="97" y="108"/>
			<point x="62" y="230"/>
			<point x="62" y="310" type="qcurve"/>
			<point x="62" y="358"/>
			<point x="80" y="448"/>
			<point x="109" y="526"/>
			<point x="145" y="592"/>
			<point x="163" y="617" type="qcurve"/>
			<point x="50" y="617" type="line"/>
			<point x="50" y="693" type="line"/>
			<point x="265" y="693" type="line"/>
			<point x="265" y="634" type="line"/>
			<point x="243" y="604"/>
			<point x="204" y="533"/>
			<point x="174" y="453"/>
			<point x="157" y="364"/>
			<point x="157" y="315" type="qcurve"/>
			<point x="157" y="247"/>
			<point x="180" y="150"/>
			<point x="219" y="89"/>
			<point x="273" y="61"/>
		</contour>
	</outline>
</glyph>
<glyph name="uni01B2" format="2">
	<unicode hex="01B2"/>
	<advance width="551"/>
	<outline>
		<contour>
			<point x="273" y="-15" type="curve" smooth="yes"/>
			<point x="446" y="-15"/>
			<point x="495" y="158"/>
			<point x="495" y="356" type="curve" smooth="yes"/>
			<point x="495" y="558"/>
			<point x="453" y="695"/>
			<point x="306" y="695" type="curve" smooth="yes"/>
			<point x="297" y="695"/>
			<point x="282" y="695"/>
			<point x="270" y="693" type="curve"/>
			<point x="273" y="612" type="line"/>
			<point x="287" y="612" type="line" smooth="yes"/>
			<point x="387" y="612"/>
			<point x="399" y="505"/>
			<point x="399" y="349" type="curve" smooth="yes"/>
			<point x="399" y="158"/>
			<point x="365" y="64"/>
			<point x="273" y="64" type="curve" smooth="yes"/>
			<point x="200" y="64"/>
			<point x="168" y="114"/>
			<point x="168" y="213" type="curve" smooth="yes"/>
			<point x="168" y="693" type="line"/>
			<point x="78" y="693" type="line"/>
			<point x="78" y="208" type="line" smooth="yes"/>
			<point x="78" y="53"/>
			<point x="139" y="-15"/>
		</contour>
	</outline>
</glyph>
<glyph name="uni01B3" format="2">
	<unicode hex="01B3"/>
	<advance width="528"/>
	<outline>
		<contour>
			<point x="446" y="709" type="qcurve"/>
			<point x="476" y="709"/>
			<point x="522" y="691"/>
			<point x="542" y="677" type="qcurve"/>
			<point x="510" y="611" type="line"/>
			<point x="500" y="619"/>
			<point x="478" y="631"/>
			<point x="461" y="631" type="qcurve"/>
			<point x="440" y="631"/>
			<point x="418" y="604"/>
			<point x="407" y="577" type="qcurve"/>
			<point x="387" y="527"/>
			<point x="356" y="449"/>
			<point x="326" y="380"/>
			<point x="294" y="313"/>
			<point x="273" y="273" type="qcurve"/>
			<point x="273" y="0" type="line"/>
			<point x="183" y="0" type="line"/>
			<point x="183" y="268" type="line"/>
			<point x="159" y="317"/>
			<point x="109" y="427"/>
			<point x="63" y="537"/>
			<point x="21" y="645"/>
			<point x="4" y="693" type="qcurve"/>
			<point x="101" y="693" type="line"/>
			<point x="127" y="614"/>
			<point x="193" y="438"/>
			<point x="228" y="362" type="qcurve"/>
			<point x="241" y="392"/>
			<point x="263" y="441"/>
			<point x="287" y="498"/>
			<point x="314" y="568"/>
			<point x="332" y="619" type="qcurve"/>
			<point x="347" y="661"/>
			<point x="400" y="709"/>
		</contour>
	</outline>
</glyph>
<glyph name="uni01B5" format="2">
	<unicode hex="01B5"/>
	<advance width="432"/>
	<outline>
		<contour>
			<point x="390" y="693" type="line"/>
			<point x="44" y="693" type="line"/>
			<point x="44" y="616" type="line"/>
			<point x="294" y="616" type="line"/>
			<point x="262" y="560"/>
			<point x="220" y="480"/>
			<point x="179" y="395" type="curve"/>
			<point x="68" y="395" type="line"/>
			<point x="68" y="329" type="line"/>
			<point x="148" y="329" type="line"/>
			<point x="102" y="231"/>
			<point x="59" y="131"/>
			<point x="31" y="55" type="curve"/>
			<point x="31" y="0" type="line"/>
			<point x="397" y="0" type="line"/>
			<point x="397" y="77" type="line"/>
			<point x="127" y="77" type="line"/>
			<point x="153" y="143"/>
			<point x="194" y="235"/>
			<point x="238" y="329" type="curve"/>
			<point x="375" y="329" type="line"/>
			<point x="375" y="395" type="line"/>
			<point x="270" y="395" type="line"/>
			<point x="312" y="480"/>
			<point x="355" y="562"/>
			<point x="390" y="622" type="curve"/>
		</contour>
	</outline>
</glyph>
<glyph name="uni01B6" format="2">
	<unicode hex="01B6"/>
	<advance width="356"/>
	<outline>
		<contour>
			<point x="319" y="525" type="line"/>
			<point x="45" y="525" type="line"/>
			<point x="45" y="451" type="line"/>
			<point x="226" y="451" type="line"/>
			<point x="205" y="415"/>
			<point x="175" y="363"/>
			<point x="145" y="305" type="curve"/>
			<point x="63" y="305" type="line"/>
			<point x="63" y="243" type="line"/>
			<point x="113" y="243" type="line"/>
			<point x="81" y="179"/>
			<point x="52" y="113"/>
			<point x="33" y="62" type="curve"/>
			<point x="33" y="0" type="line"/>
			<point x="326" y="0" type="line"/>
			<point x="326" y="74" type="line"/>
			<point x="122" y="74" type="line"/>
			<point x="139" y="118"/>
			<point x="168" y="179"/>
			<point x="199" y="241" type="curve"/>
			<point x="300" y="241" type="line"/>
			<point x="300" y="303" type="line"/>
			<point x="231" y="303" type="line"/>
			<point x="263" y="363"/>
			<point x="294" y="419"/>
			<point x="319" y="461" type="curve"/>
		</contour>
	</outline>
</glyph>
<glyph name="uni01DD" format="2">
	<unicode hex="01DD"/>
	<advance width="436"/>
	<outline>
		<contour>
			<point x="50" y="289" type="line"/>
			<point x="49" y="273"/>
			<point x="49" y="258"/>
			<point x="49" y="243" type="curve" smooth="yes"/>
			<point x="49" y="82"/>
			<point x="93" y="-12"/>
			<point x="212" y="-12" type="curve" smooth="yes"/>
			<point x="317" y="-12"/>
			<point x="387" y="73"/>
			<point x="387" y="267" type="curve" smooth="yes"/>
			<point x="387" y="428"/>
			<point x="336" y="539"/>
			<point x="190" y="539" type="curve" smooth="yes"/>
			<point x="135" y="539"/>
			<point x="91" y="521"/>
			<point x="74" y="509" type="curve"/>
			<point x="90" y="440" type="line"/>
			<point x="104" y="448"/>
			<point x="140" y="463"/>
			<point x="179" y="463" type="curve" smooth="yes"/>
			<point x="272" y="463"/>
			<point x="296" y="389"/>
			<point x="299" y="289" type="curve"/>
		</contour>
		<contour>
			<point x="212" y="61" type="curve" smooth="yes"/>
			<point x="155" y="61"/>
			<point x="139" y="122"/>
			<point x="139" y="219" type="curve"/>
			<point x="298" y="219" type="line"/>
			<point x="293" y="124"/>
			<point x="269" y="61"/>
		</contour>
	</outline>
</glyph>
<glyph name="uni01EB" format="2">
	<unicode hex="01EB"/>
	<advance width="463"/>
	<outline>
		<contour>
			<point x="415" y="262" type="qcurve"/>
			<point x="415" y="203"/>
			<point x="399" y="120"/>
			<point x="372" y="62"/>
			<point x="334" y="21"/>
			<point x="313" y="4" type="qcurve"/>
			<point x="303" y="-5"/>
			<point x="282" y="-22"/>
			<point x="264" y="-41"/>
			<point x="253" y="-63"/>
			<point x="253" y="-77" type="qcurve"/>
			<point x="253" y="-100"/>
			<point x="278" y="-120"/>
			<point x="296" y="-120" type="qcurve"/>
			<point x="315" y="-120"/>
			<point x="332" y="-113" type="qcurve"/>
			<point x="337" y="-176" type="line"/>
			<point x="309" y="-187"/>
			<point x="275" y="-187" type="qcurve"/>
			<point x="231" y="-187"/>
			<point x="175" y="-140"/>
			<point x="175" y="-98" type="qcurve"/>
			<point x="175" y="-51"/>
			<point x="211" y="-12" type="qcurve"/>
			<point x="169" y="-8"/>
			<point x="108" y="36"/>
			<point x="67" y="107"/>
			<point x="48" y="204"/>
			<point x="48" y="262" type="qcurve"/>
			<point x="48" y="323"/>
			<point x="70" y="425"/>
			<point x="115" y="498"/>
			<point x="185" y="538"/>
			<point x="232" y="538" type="qcurve"/>
			<point x="279" y="538"/>
			<point x="348" y="498"/>
			<point x="393" y="425"/>
			<point x="415" y="323"/>
		</contour>
		<contour>
			<point x="325" y="262" type="qcurve"/>
			<point x="325" y="306"/>
			<point x="315" y="379"/>
			<point x="293" y="432"/>
			<point x="257" y="461"/>
			<point x="232" y="461" type="qcurve"/>
			<point x="206" y="461"/>
			<point x="171" y="432"/>
			<point x="148" y="379"/>
			<point x="138" y="306"/>
			<point x="138" y="262" type="qcurve"/>
			<point x="138" y="218"/>
			<point x="148" y="145"/>
			<point x="171" y="93"/>
			<point x="206" y="64"/>
			<point x="232" y="64" type="qcurve"/>
			<point x="257" y="64"/>
			<point x="293" y="93"/>
			<point x="315" y="145"/>
			<point x="325" y="218"/>
		</contour>
	</outline>
</glyph>
<glyph name="uni01F7" format="2">
	<unicode hex="01F7"/>
	<advance width="521"/>
	<outline>
		<contour>
			<point x="174" y="-185" type="line"/>
			<point x="84" y="-185" type="line"/>
			<point x="84" y="654" type="line"/>
			<point x="123" y="675"/>
			<point x="208" y="700"/>
			<point x="256" y="700" type="qcurve"/>
			<point x="361" y="700"/>
			<point x="475" y="570"/>
			<point x="475" y="442" type="qcurve"/>
			<point x="475" y="360"/>
			<point x="428" y="227"/>
			<point x="347" y="119"/>
			<point x="237" y="34"/>
			<point x="174" y="1" type="qcurve"/>
		</contour>
		<contour>
			<point x="174" y="92" type="line"/>
			<point x="216" y="117"/>
			<point x="291" y="180"/>
			<point x="346" y="262"/>
			<point x="379" y="365"/>
			<point x="379" y="431" type="qcurve"/>
			<point x="379" y="482"/>
			<point x="359" y="555"/>
			<point x="325" y="600"/>
			<point x="277" y="621"/>
			<point x="250" y="621" type="qcurve"/>
			<point x="213" y="621"/>
			<point x="174" y="604" type="qcurve"/>
		</contour>
	</outline>
</glyph>
<glyph name="uni0220" format="2">
	<unicode hex="0220"/>
	<advance width="553"/>
	<outline>
		<contour>
			<point x="84" y="0" type="line"/>
			<point x="174" y="0" type="line"/>
			<point x="174" y="615" type="line"/>
			<point x="206" y="627"/>
			<point x="236" y="630"/>
			<point x="260" y="630" type="curve" smooth="yes"/>
			<point x="355" y="630"/>
			<point x="384" y="561"/>
			<point x="384" y="430" type="curve" smooth="yes"/>
			<point x="384" y="-185" type="line"/>
			<point x="474" y="-185" type="line"/>
			<point x="474" y="439" type="line" smooth="yes"/>
			<point x="474" y="643"/>
			<point x="393" y="709"/>
			<point x="271" y="709" type="curve" smooth="yes"/>
			<point x="215" y="709"/>
			<point x="142" y="694"/>
			<point x="84" y="675" type="curve"/>
		</contour>
	</outline>
	<guideline y="709"/>
</glyph>
<glyph name="uni0222" format="2">
	<unicode hex="0222"/>
	<advance width="534"/>
	<outline>
		<contour>
			<point x="267" y="337" type="curve" smooth="yes"/>
			<point x="341" y="337"/>
			<point x="395" y="294"/>
			<point x="395" y="206" type="curve" smooth="yes"/>
			<point x="395" y="116"/>
			<point x="335" y="74"/>
			<point x="267" y="74" type="curve" smooth="yes"/>
			<point x="199" y="74"/>
			<point x="139" y="116"/>
			<point x="139" y="206" type="curve" smooth="yes"/>
			<point x="139" y="294"/>
			<point x="193" y="337"/>
		</contour>
		<contour>
			<point x="452" y="549" type="curve" smooth="yes"/>
			<point x="452" y="609"/>
			<point x="448" y="645"/>
			<point x="436" y="693" type="curve"/>
			<point x="352" y="693" type="line"/>
			<point x="360" y="646"/>
			<point x="367" y="600"/>
			<point x="367" y="553" type="curve" smooth="yes"/>
			<point x="367" y="464"/>
			<point x="336" y="415"/>
			<point x="267" y="415" type="curve" smooth="yes"/>
			<point x="198" y="415"/>
			<point x="167" y="464"/>
			<point x="167" y="553" type="curve" smooth="yes"/>
			<point x="167" y="600"/>
			<point x="174" y="646"/>
			<point x="182" y="693" type="curve"/>
			<point x="101" y="693" type="line"/>
			<point x="89" y="645"/>
			<point x="82" y="609"/>
			<point x="82" y="549" type="curve" smooth="yes"/>
			<point x="82" y="468"/>
			<point x="105" y="409"/>
			<point x="154" y="381" type="curve"/>
			<point x="89" y="356"/>
			<point x="47" y="282"/>
			<point x="47" y="201" type="curve" smooth="yes"/>
			<point x="47" y="83"/>
			<point x="121" y="-5"/>
			<point x="268" y="-5" type="curve" smooth="yes"/>
			<point x="413" y="-5"/>
			<point x="487" y="83"/>
			<point x="487" y="201" type="curve" smooth="yes"/>
			<point x="487" y="281"/>
			<point x="444" y="356"/>
			<point x="380" y="381" type="curve"/>
			<point x="429" y="409"/>
			<point x="452" y="468"/>
		</contour>
	</outline>
</glyph>
<glyph name="uni0228" format="2">
	<unicode hex="0228"/>
	<advance width="456"/>
	<outline>
		<contour>
			<point x="291" y="0" type="line"/>
			<point x="286" y="-10"/>
			<point x="277" y="-31"/>
			<point x="273" y="-40" type="qcurve"/>
			<point x="302" y="-51"/>
			<point x="326" y="-86"/>
			<point x="326" y="-109" type="qcurve"/>
			<point x="326" y="-147"/>
			<point x="266" y="-189"/>
			<point x="222" y="-189" type="qcurve"/>
			<point x="207" y="-189"/>
			<point x="171" y="-184"/>
			<point x="154" y="-178" type="qcurve"/>
			<point x="164" y="-123" type="line"/>
			<point x="174" y="-125"/>
			<point x="196" y="-130"/>
			<point x="208" y="-130" type="qcurve"/>
			<point x="226" y="-130"/>
			<point x="252" y="-119"/>
			<point x="252" y="-103" type="qcurve"/>
			<point x="252" y="-92"/>
			<point x="230" y="-76"/>
			<point x="200" y="-70" type="qcurve"/>
			<point x="205" y="-53"/>
			<point x="221" y="-15"/>
			<point x="229" y="0" type="qcurve"/>
			<point x="84" y="0" type="line"/>
			<point x="84" y="693" type="line"/>
			<point x="395" y="693" type="line"/>
			<point x="395" y="616" type="line"/>
			<point x="174" y="616" type="line"/>
			<point x="174" y="401" type="line"/>
			<point x="374" y="401" type="line"/>
			<point x="374" y="326" type="line"/>
			<point x="174" y="326" type="line"/>
			<point x="174" y="77" type="line"/>
			<point x="411" y="77" type="line"/>
			<point x="411" y="0" type="line"/>
		</contour>
	</outline>
</glyph>
<glyph name="uni023C" format="2">
	<unicode hex="023C"/>
	<advance width="353"/>
	<outline>
		<contour>
			<point x="185" y="-85" type="line"/>
			<point x="197" y="-9" type="line"/>
			<point x="210" y="-12"/>
			<point x="223" y="-13"/>
			<point x="238" y="-13" type="curve" smooth="yes"/>
			<point x="279" y="-13"/>
			<point x="317" y="1"/>
			<point x="338" y="16" type="curve"/>
			<point x="319" y="83" type="line"/>
			<point x="298" y="71"/>
			<point x="275" y="63"/>
			<point x="246" y="63" type="curve" smooth="yes"/>
			<point x="233" y="63"/>
			<point x="221" y="65"/>
			<point x="210" y="69" type="curve"/>
			<point x="276" y="458" type="line"/>
			<point x="289" y="454"/>
			<point x="301" y="449"/>
			<point x="312" y="442" type="curve"/>
			<point x="334" y="513" type="line"/>
			<point x="320" y="520"/>
			<point x="305" y="527"/>
			<point x="289" y="531" type="curve"/>
			<point x="302" y="610" type="line"/>
			<point x="255" y="618" type="line"/>
			<point x="241" y="538" type="line"/>
			<point x="110" y="538"/>
			<point x="48" y="434"/>
			<point x="48" y="261" type="curve" smooth="yes"/>
			<point x="48" y="142"/>
			<point x="75" y="45"/>
			<point x="152" y="6" type="curve"/>
			<point x="138" y="-77" type="line"/>
		</contour>
		<contour>
			<point x="138" y="261" type="curve" smooth="yes"/>
			<point x="138" y="388"/>
			<point x="166" y="452"/>
			<point x="228" y="461" type="curve"/>
			<point x="168" y="104" type="line"/>
			<point x="146" y="139"/>
			<point x="138" y="195"/>
		</contour>
	</outline>
</glyph>
<glyph name="uni0240" format="2">
	<unicode hex="0240"/>
	<advance width="356"/>
	<outline>
		<contour>
			<point x="33" y="0" type="line"/>
			<point x="41" y="0" type="line" smooth="yes"/>
			<point x="193" y="0"/>
			<point x="182" y="-189"/>
			<point x="322" y="-189" type="curve" smooth="yes"/>
			<point x="335" y="-189"/>
			<point x="350" y="-187"/>
			<point x="366" y="-183" type="curve"/>
			<point x="359" y="-115" type="line"/>
			<point x="351" y="-117"/>
			<point x="344" y="-118"/>
			<point x="337" y="-118" type="curve" smooth="yes"/>
			<point x="244" y="-118"/>
			<point x="256" y="27"/>
			<point x="117" y="61" type="curve"/>
			<point x="157" y="170"/>
			<point x="262" y="364"/>
			<point x="319" y="461" type="curve"/>
			<point x="319" y="525" type="line"/>
			<point x="45" y="525" type="line"/>
			<point x="45" y="451" type="line"/>
			<point x="226" y="451" type="line"/>
			<point x="175" y="365"/>
			<point x="76" y="179"/>
			<point x="33" y="62" type="curve"/>
		</contour>
	</outline>
</glyph>
<glyph name="uni0243" format="2">
	<unicode hex="0243"/>
	<advance width="522"/>
	<outline>
		<contour>
			<point x="17" y="164" type="line"/>
			<point x="85" y="164" type="line"/>
			<point x="85" y="11" type="line"/>
			<point x="139" y="1"/>
			<point x="190" y="-5"/>
			<point x="237" y="-5" type="curve" smooth="yes"/>
			<point x="379" y="-5"/>
			<point x="478" y="48"/>
			<point x="478" y="191" type="curve" smooth="yes"/>
			<point x="478" y="287"/>
			<point x="428" y="339"/>
			<point x="361" y="365" type="curve"/>
			<point x="415" y="390"/>
			<point x="454" y="443"/>
			<point x="454" y="525" type="curve" smooth="yes"/>
			<point x="454" y="659"/>
			<point x="348" y="700"/>
			<point x="229" y="700" type="curve" smooth="yes"/>
			<point x="181" y="700"/>
			<point x="131" y="693"/>
			<point x="85" y="683" type="curve"/>
			<point x="85" y="230" type="line"/>
			<point x="17" y="230" type="line"/>
		</contour>
		<contour>
			<point x="247" y="326" type="line" smooth="yes"/>
			<point x="341" y="326"/>
			<point x="385" y="276"/>
			<point x="385" y="194" type="curve" smooth="yes"/>
			<point x="385" y="97"/>
			<point x="325" y="69"/>
			<point x="249" y="69" type="curve" smooth="yes"/>
			<point x="225" y="69"/>
			<point x="200" y="72"/>
			<point x="175" y="76" type="curve"/>
			<point x="175" y="164" type="line"/>
			<point x="278" y="164" type="line"/>
			<point x="278" y="230" type="line"/>
			<point x="175" y="230" type="line"/>
			<point x="175" y="326" type="line"/>
		</contour>
		<contour>
			<point x="175" y="621" type="line"/>
			<point x="195" y="623"/>
			<point x="216" y="625"/>
			<point x="236" y="625" type="curve" smooth="yes"/>
			<point x="302" y="625"/>
			<point x="361" y="604"/>
			<point x="361" y="510" type="curve" smooth="yes"/>
			<point x="361" y="435"/>
			<point x="321" y="398"/>
			<point x="237" y="398" type="curve" smooth="yes"/>
			<point x="175" y="398" type="line"/>
		</contour>
	</outline>
</glyph>
<glyph name="uni0245" format="2">
	<unicode hex="0245"/>
	<advance width="497"/>
	<outline>
		<contour>
			<point x="200" y="693" type="line"/>
			<point x="138" y="494"/>
			<point x="78" y="292"/>
			<point x="20" y="0" type="curve"/>
			<point x="111" y="0" type="line"/>
			<point x="145" y="206"/>
			<point x="199" y="417"/>
			<point x="247" y="586" type="curve"/>
			<point x="295" y="417"/>
			<point x="349" y="206"/>
			<point x="383" y="0" type="curve"/>
			<point x="477" y="0" type="line"/>
			<point x="419" y="292"/>
			<point x="359" y="494"/>
			<point x="297" y="693" type="curve"/>
		</contour>
	</outline>
</glyph>
<glyph name="uni024B" format="2">
	<unicode hex="024B"/>
	<advance width="467"/>
	<outline>
		<contour>
			<point x="304" y="-26" type="line" smooth="yes"/>
			<point x="304" y="-140"/>
			<point x="353" y="-186"/>
			<point x="434" y="-186" type="curve" smooth="yes"/>
			<point x="454" y="-186"/>
			<point x="474" y="-183"/>
			<point x="492" y="-176" type="curve"/>
			<point x="480" y="-103" type="line"/>
			<point x="469" y="-106"/>
			<point x="458" y="-108"/>
			<point x="446" y="-108" type="curve" smooth="yes"/>
			<point x="412" y="-108"/>
			<point x="390" y="-91"/>
			<point x="390" y="-21" type="curve" smooth="yes"/>
			<point x="390" y="510" type="line"/>
			<point x="353" y="526"/>
			<point x="303" y="537"/>
			<point x="254" y="537" type="curve" smooth="yes"/>
			<point x="106" y="537"/>
			<point x="48" y="434"/>
			<point x="48" y="259" type="curve" smooth="yes"/>
			<point x="48" y="82"/>
			<point x="101" y="-14"/>
			<point x="229" y="-14" type="curve" smooth="yes"/>
			<point x="260" y="-14"/>
			<point x="283" y="-7"/>
			<point x="304" y="3" type="curve"/>
		</contour>
		<contour>
			<point x="304" y="78" type="line"/>
			<point x="286" y="68"/>
			<point x="264" y="62"/>
			<point x="242" y="62" type="curve" smooth="yes"/>
			<point x="176" y="62"/>
			<point x="138" y="111"/>
			<point x="138" y="260" type="curve" smooth="yes"/>
			<point x="138" y="403"/>
			<point x="174" y="461"/>
			<point x="253" y="461" type="curve" smooth="yes"/>
			<point x="268" y="461"/>
			<point x="286" y="459"/>
			<point x="304" y="454" type="curve"/>
		</contour>
	</outline>
</glyph>
<glyph name="uni024D" format="2">
	<unicode hex="024D"/>
	<advance width="328"/>
	<outline>
		<contour>
			<point x="305" y="447" type="line"/>
			<point x="273" y="461"/>
			<point x="233" y="461" type="qcurve"/>
			<point x="196" y="461"/>
			<point x="164" y="448" type="qcurve"/>
			<point x="164" y="273" type="line"/>
			<point x="279" y="273" type="line"/>
			<point x="279" y="207" type="line"/>
			<point x="164" y="207" type="line"/>
			<point x="164" y="0" type="line"/>
			<point x="78" y="0" type="line"/>
			<point x="78" y="207" type="line"/>
			<point x="15" y="207" type="line"/>
			<point x="15" y="273" type="line"/>
			<point x="78" y="273" type="line"/>
			<point x="78" y="502" type="line"/>
			<point x="107" y="516"/>
			<point x="182" y="535"/>
			<point x="227" y="535" type="qcurve"/>
			<point x="251" y="535"/>
			<point x="299" y="529"/>
			<point x="320" y="521" type="qcurve"/>
		</contour>
	</outline>
</glyph>
<glyph name="uni0292" format="2">
	<unicode hex="0292"/>
	<advance width="363"/>
	<outline>
		<contour>
			<point x="79" y="158" type="line"/>
			<point x="101" y="158" type="line" smooth="yes"/>
			<point x="192" y="158"/>
			<point x="246" y="109"/>
			<point x="246" y="25" type="curve" smooth="yes"/>
			<point x="246" y="-72"/>
			<point x="192" y="-112"/>
			<point x="121" y="-112" type="curve" smooth="yes"/>
			<point x="89" y="-112"/>
			<point x="57" y="-104"/>
			<point x="26" y="-91" type="curve"/>
			<point x="10" y="-165" type="line"/>
			<point x="41" y="-178"/>
			<point x="79" y="-188"/>
			<point x="121" y="-188" type="curve" smooth="yes"/>
			<point x="253" y="-188"/>
			<point x="333" y="-106"/>
			<point x="333" y="19" type="curve" smooth="yes"/>
			<point x="333" y="132"/>
			<point x="274" y="204"/>
			<point x="165" y="224" type="curve"/>
			<point x="219" y="305"/>
			<point x="267" y="383"/>
			<point x="312" y="470" type="curve"/>
			<point x="312" y="520" type="line"/>
			<point x="26" y="520" type="line"/>
			<point x="26" y="446" type="line"/>
			<point x="218" y="446" type="line"/>
			<point x="177" y="365"/>
			<point x="130" y="291"/>
			<point x="79" y="215" type="curve"/>
		</contour>
	</outline>
</glyph>
<glyph name="caron" format="2">
	<unicode hex="02C7"/>
	<advance width="314"/>
	<outline>
		<contour>
			<point x="230" y="768" type="line"/>
			<point x="272" y="733" type="line"/>
			<point x="157" y="581" type="line"/>
			<point x="42" y="733" type="line"/>
			<point x="84" y="768" type="line"/>
			<point x="157" y="683" type="line"/>
		</contour>
	</outline>
</glyph>
<glyph name="ring" format="2">
	<unicode hex="02DA"/>
	<advance width="314"/>
	<outline>
		<contour>
			<point x="242" y="682" type="qcurve"/>
			<point x="242" y="643"/>
			<point x="192" y="597"/>
			<point x="157" y="597" type="qcurve"/>
			<point x="122" y="597"/>
			<point x="72" y="643"/>
			<point x="72" y="682" type="qcurve"/>
			<point x="72" y="721"/>
			<point x="122" y="767"/>
			<point x="157" y="767" type="qcurve"/>
			<point x="192" y="767"/>
			<point x="242" y="721"/>
		</contour>
		<contour>
			<point x="197" y="682" type="qcurve"/>
			<point x="197" y="702"/>
			<point x="174" y="723"/>
			<point x="157" y="723" type="qcurve"/>
			<point x="140" y="723"/>
			<point x="117" y="702"/>
			<point x="117" y="682" type="qcurve"/>
			<point x="117" y="662"/>
			<point x="140" y="641"/>
			<point x="157" y="641" type="qcurve"/>
			<point x="174" y="641"/>
			<point x="197" y="662"/>
		</contour>
	</outline>
</glyph>
<glyph name="ogonek" format="2">
	<unicode hex="02DB"/>
	<advance width="314"/>
	<outline>
		<contour>
			<point x="238" y="-176" type="line"/>
			<point x="210" y="-187"/>
			<point x="176" y="-187" type="qcurve"/>
			<point x="132" y="-187"/>
			<point x="76" y="-142"/>
			<point x="76" y="-103" type="qcurve"/>
			<point x="76" y="-70"/>
			<point x="114" y="-17"/>
			<point x="148" y="8" type="qcurve"/>
			<point x="236" y="8" type="line"/>
			<point x="197" y="-15"/>
			<point x="154" y="-58"/>
			<point x="154" y="-81" type="qcurve"/>
			<point x="154" y="-102"/>
			<point x="179" y="-120"/>
			<point x="197" y="-120" type="qcurve"/>
			<point x="216" y="-120"/>
			<point x="233" y="-113" type="qcurve"/>
		</contour>
	</outline>
</glyph>
<glyph name="Psi" format="2">
	<unicode hex="03A8"/>
	<advance width="619"/>
	<outline>
		<contour>
			<point x="268" y="0" type="line"/>
			<point x="351" y="0" type="line"/>
			<point x="351" y="179" type="line"/>
			<point x="477" y="189"/>
			<point x="556" y="267"/>
			<point x="556" y="418" type="curve" smooth="yes"/>
			<point x="556" y="693" type="line"/>
			<point x="473" y="693" type="line"/>
			<point x="473" y="426" type="line" smooth="yes"/>
			<point x="473" y="325"/>
			<point x="442" y="267"/>
			<point x="351" y="257" type="curve"/>
			<point x="351" y="693" type="line"/>
			<point x="268" y="693" type="line"/>
			<point x="268" y="257" type="line"/>
			<point x="177" y="267"/>
			<point x="146" y="325"/>
			<point x="146" y="426" type="curve" smooth="yes"/>
			<point x="146" y="693" type="line"/>
			<point x="63" y="693" type="line"/>
			<point x="63" y="418" type="line" smooth="yes"/>
			<point x="63" y="264"/>
			<point x="139" y="189"/>
			<point x="268" y="179" type="curve"/>
		</contour>
	</outline>
</glyph>
<glyph name="epsilon" format="2">
	<unicode hex="03B5"/>
	<advance width="386"/>
	<outline>
		<contour>
			<point x="137" y="280" type="curve"/>
			<point x="78" y="250"/>
			<point x="45" y="210"/>
			<point x="45" y="144" type="curve" smooth="yes"/>
			<point x="45" y="39"/>
			<point x="119" y="-13"/>
			<point x="231" y="-13" type="curve" smooth="yes"/>
			<point x="278" y="-13"/>
			<point x="319" y="-2"/>
			<point x="357" y="16" type="curve"/>
			<point x="337" y="85" type="line"/>
			<point x="307" y="71"/>
			<point x="274" y="61"/>
			<point x="232" y="61" type="curve" smooth="yes"/>
			<point x="181" y="61"/>
			<point x="130" y="85"/>
			<point x="130" y="146" type="curve" smooth="yes"/>
			<point x="130" y="217"/>
			<point x="186" y="241"/>
			<point x="252" y="241" type="curve" smooth="yes"/>
			<point x="287" y="241" type="line"/>
			<point x="287" y="313" type="line"/>
			<point x="255" y="313" type="line" smooth="yes"/>
			<point x="177" y="313"/>
			<point x="145" y="349"/>
			<point x="145" y="393" type="curve" smooth="yes"/>
			<point x="145" y="443"/>
			<point x="182" y="465"/>
			<point x="229" y="465" type="curve" smooth="yes"/>
			<point x="266" y="465"/>
			<point x="290" y="457"/>
			<point x="321" y="442" type="curve"/>
			<point x="340" y="511" type="line"/>
			<point x="308" y="527"/>
			<point x="261" y="538"/>
			<point x="226" y="538" type="curve" smooth="yes"/>
			<point x="134" y="538"/>
			<point x="61" y="483"/>
			<point x="61" y="401" type="curve" smooth="yes"/>
			<point x="61" y="338"/>
			<point x="94" y="300"/>
		</contour>
	</outline>
</glyph>
<glyph name="eta" format="2">
	<unicode hex="03B7"/>
	<advance width="482"/>
	<outline>
		<contour>
			<point x="78" y="0" type="line"/>
			<point x="164" y="0" type="line"/>
			<point x="164" y="452" type="line"/>
			<point x="189" y="459"/>
			<point x="211" y="462"/>
			<point x="229" y="462" type="curve" smooth="yes"/>
			<point x="302" y="462"/>
			<point x="324" y="415"/>
			<point x="324" y="312" type="curve" smooth="yes"/>
			<point x="324" y="-185" type="line"/>
			<point x="410" y="-185" type="line"/>
			<point x="410" y="319" type="line" smooth="yes"/>
			<point x="410" y="488"/>
			<point x="341" y="538"/>
			<point x="237" y="538" type="curve" smooth="yes"/>
			<point x="189" y="538"/>
			<point x="127" y="527"/>
			<point x="78" y="512" type="curve"/>
		</contour>
	</outline>
</glyph>
<glyph name="sigma" format="2">
	<unicode hex="03C3"/>
	<advance width="472"/>
	<outline>
		<contour>
			<point x="406" y="243" type="curve" smooth="yes"/>
			<point x="406" y="71"/>
			<point x="335" y="-13"/>
			<point x="229" y="-13" type="curve" smooth="yes"/>
			<point x="130" y="-13"/>
			<point x="48" y="66"/>
			<point x="48" y="248" type="curve" smooth="yes"/>
			<point x="48" y="447"/>
			<point x="134" y="525"/>
			<point x="262" y="525" type="curve" smooth="yes"/>
			<point x="452" y="525" type="line"/>
			<point x="452" y="451" type="line"/>
			<point x="341" y="451" type="line"/>
			<point x="374" y="412"/>
			<point x="406" y="334"/>
		</contour>
		<contour>
			<point x="249" y="451" type="line" smooth="yes"/>
			<point x="194" y="451"/>
			<point x="137" y="414"/>
			<point x="137" y="248" type="curve" smooth="yes"/>
			<point x="137" y="131"/>
			<point x="170" y="64"/>
			<point x="229" y="64" type="curve" smooth="yes"/>
			<point x="289" y="64"/>
			<point x="318" y="129"/>
			<point x="318" y="250" type="curve" smooth="yes"/>
			<point x="318" y="336"/>
			<point x="293" y="416"/>
			<point x="255" y="451" type="curve"/>
		</contour>
	</outline>
</glyph>
<glyph name="psi" format="2">
	<unicode hex="03C8"/>
	<advance width="618"/>
	<outline>
		<contour>
			<point x="462" y="525" type="line"/>
			<point x="462" y="211" type="line" smooth="yes"/>
			<point x="462" y="125"/>
			<point x="426" y="69"/>
			<point x="350" y="63" type="curve"/>
			<point x="350" y="525" type="line"/>
			<point x="267" y="525" type="line"/>
			<point x="267" y="63" type="line"/>
			<point x="191" y="69"/>
			<point x="156" y="125"/>
			<point x="156" y="211" type="curve" smooth="yes"/>
			<point x="156" y="525" type="line"/>
			<point x="72" y="525" type="line"/>
			<point x="72" y="214" type="line" smooth="yes"/>
			<point x="72" y="76"/>
			<point x="141" y="-6"/>
			<point x="267" y="-11" type="curve"/>
			<point x="267" y="-185" type="line"/>
			<point x="350" y="-185" type="line"/>
			<point x="350" y="-11" type="line"/>
			<point x="476" y="-6"/>
			<point x="546" y="76"/>
			<point x="546" y="214" type="curve" smooth="yes"/>
			<point x="546" y="525" type="line"/>
		</contour>
	</outline>
</glyph>
<glyph name="afii10060" format="2">
	<unicode hex="040B"/>
	<advance width="594"/>
	<outline>
		<contour>
			<point x="432" y="693" type="line"/>
			<point x="432" y="616" type="line"/>
			<point x="258" y="616" type="line"/>
			<point x="258" y="419" type="line"/>
			<point x="280" y="425"/>
			<point x="331" y="433"/>
			<point x="358" y="433" type="qcurve"/>
			<point x="395" y="433"/>
			<point x="461" y="410"/>
			<point x="511" y="360"/>
			<point x="539" y="281"/>
			<point x="539" y="224" type="qcurve"/>
			<point x="539" y="0" type="line"/>
			<point x="453" y="0" type="line"/>
			<point x="453" y="209" type="line"/>
			<point x="453" y="284"/>
			<point x="404" y="357"/>
			<point x="337" y="357" type="qcurve"/>
			<point x="302" y="357"/>
			<point x="258" y="347" type="qcurve"/>
			<point x="258" y="0" type="line"/>
			<point x="168" y="0" type="line"/>
			<point x="168" y="616" type="line"/>
			<point x="14" y="616" type="line"/>
			<point x="14" y="693" type="line"/>
		</contour>
	</outline>
</glyph>
<glyph name="afii10145" format="2">
	<unicode hex="040F"/>
	<advance width="562"/>
	<outline>
		<contour>
			<point x="324" y="-185" type="line"/>
			<point x="324" y="0" type="line"/>
			<point x="478" y="0" type="line"/>
			<point x="478" y="693" type="line"/>
			<point x="388" y="693" type="line"/>
			<point x="388" y="78" type="line"/>
			<point x="174" y="78" type="line"/>
			<point x="174" y="693" type="line"/>
			<point x="84" y="693" type="line"/>
			<point x="84" y="0" type="line"/>
			<point x="238" y="0" type="line"/>
			<point x="238" y="-185" type="line"/>
		</contour>
	</outline>
</glyph>
<glyph name="afii10020" format="2">
	<unicode hex="0413"/>
	<advance width="410"/>
	<outline>
		<contour>
			<point x="386" y="616" type="line"/>
			<point x="386" y="693" type="line"/>
			<point x="84" y="693" type="line"/>
			<point x="84" y="0" type="line"/>
			<point x="174" y="0" type="line"/>
			<point x="174" y="616" type="line"/>
		</contour>
	</outline>
</glyph>
<glyph name="afii10026" format="2">
	<unicode hex="0418"/>
	<advance width="581"/>
	<outline>
		<contour>
			<point x="157" y="0" type="line"/>
			<point x="222" y="158"/>
			<point x="323" y="373"/>
			<point x="413" y="531" type="curve"/>
			<point x="413" y="0" type="line"/>
			<point x="497" y="0" type="line"/>
			<point x="497" y="693" type="line"/>
			<point x="426" y="693" type="line"/>
			<point x="317" y="513"/>
			<point x="237" y="357"/>
			<point x="168" y="196" type="curve"/>
			<point x="168" y="693" type="line"/>
			<point x="84" y="693" type="line"/>
			<point x="84" y="0" type="line"/>
		</contour>
	</outline>
</glyph>
<glyph name="afii10044" format="2">
	<unicode hex="042A"/>
	<advance width="545"/>
	<outline>
		<contour>
			<point x="229" y="436" type="line"/>
			<point x="229" y="693" type="line"/>
			<point x="10" y="693" type="line"/>
			<point x="10" y="617" type="line"/>
			<point x="139" y="617" type="line"/>
			<point x="139" y="10" type="line"/>
			<point x="185" y="-1"/>
			<point x="232" y="-7"/>
			<point x="278" y="-7" type="curve" smooth="yes"/>
			<point x="418" y="-7"/>
			<point x="512" y="56"/>
			<point x="512" y="214" type="curve" smooth="yes"/>
			<point x="512" y="375"/>
			<point x="415" y="436"/>
			<point x="272" y="436" type="curve" smooth="yes"/>
		</contour>
		<contour>
			<point x="229" y="357" type="line"/>
			<point x="266" y="357" type="line" smooth="yes"/>
			<point x="360" y="357"/>
			<point x="417" y="320"/>
			<point x="417" y="214" type="curve" smooth="yes"/>
			<point x="417" y="106"/>
			<point x="360" y="72"/>
			<point x="278" y="72" type="curve" smooth="yes"/>
			<point x="261" y="72"/>
			<point x="244" y="73"/>
			<point x="229" y="75" type="curve"/>
		</contour>
	</outline>
</glyph>
<glyph name="afii10047" format="2">
	<unicode hex="042D"/>
	<advance width="478"/>
	<outline>
		<contour>
			<point x="170" y="-15" type="qcurve"/>
			<point x="121" y="-15"/>
			<point x="46" y="11"/>
			<point x="23" y="29" type="qcurve"/>
			<point x="48" y="100" type="line"/>
			<point x="72" y="84"/>
			<point x="123" y="64"/>
			<point x="164" y="64" type="qcurve"/>
			<point x="245" y="64"/>
			<point x="321" y="198"/>
			<point x="325" y="325" type="qcurve"/>
			<point x="118" y="325" type="line"/>
			<point x="118" y="402" type="line"/>
			<point x="325" y="402" type="line"/>
			<point x="319" y="521"/>
			<point x="245" y="630"/>
			<point x="171" y="630" type="qcurve"/>
			<point x="141" y="630"/>
			<point x="82" y="612"/>
			<point x="59" y="596" type="qcurve"/>
			<point x="32" y="669" type="line"/>
			<point x="60" y="686"/>
			<point x="132" y="709"/>
			<point x="176" y="709" type="qcurve"/>
			<point x="228" y="709"/>
			<point x="318" y="672"/>
			<point x="384" y="588"/>
			<point x="422" y="454"/>
			<point x="422" y="357" type="qcurve"/>
			<point x="422" y="167"/>
			<point x="291" y="-15"/>
		</contour>
	</outline>
	<guideline x="36"/>
</glyph>
<glyph name="afii10069" format="2">
	<unicode hex="0434"/>
	<advance width="480"/>
	<outline>
		<contour>
			<point x="10" y="70" type="line"/>
			<point x="63" y="70" type="line"/>
			<point x="87" y="112"/>
			<point x="115" y="210"/>
			<point x="129" y="322"/>
			<point x="133" y="451"/>
			<point x="134" y="525" type="qcurve"/>
			<point x="406" y="525" type="line"/>
			<point x="406" y="70" type="line"/>
			<point x="470" y="70" type="line"/>
			<point x="470" y="-145" type="line"/>
			<point x="386" y="-145" type="line"/>
			<point x="386" y="0" type="line"/>
			<point x="94" y="0" type="line"/>
			<point x="94" y="-145" type="line"/>
			<point x="10" y="-145" type="line"/>
		</contour>
		<contour>
			<point x="214" y="451" type="line"/>
			<point x="213" y="397"/>
			<point x="209" y="295"/>
			<point x="196" y="201"/>
			<point x="173" y="112"/>
			<point x="153" y="70" type="qcurve"/>
			<point x="322" y="70" type="line"/>
			<point x="322" y="451" type="line"/>
		</contour>
	</outline>
</glyph>
<glyph name="afii10074" format="2">
	<unicode hex="0438"/>
	<advance width="489"/>
	<outline>
		<contour>
			<point x="344" y="528" type="line"/>
			<point x="289" y="444"/>
			<point x="207" y="292"/>
			<point x="158" y="182" type="curve"/>
			<point x="158" y="528" type="line"/>
			<point x="78" y="528" type="line"/>
			<point x="78" y="0" type="line"/>
			<point x="146" y="0" type="line"/>
			<point x="186" y="101"/>
			<point x="274" y="277"/>
			<point x="330" y="380" type="curve"/>
			<point x="330" y="0" type="line"/>
			<point x="411" y="0" type="line"/>
			<point x="411" y="528" type="line"/>
		</contour>
	</outline>
</glyph>
<glyph name="afii10081" format="2">
	<unicode hex="043F"/>
	<advance width="479"/>
	<outline>
		<contour>
			<point x="401" y="525" type="line"/>
			<point x="78" y="525" type="line"/>
			<point x="78" y="0" type="line"/>
			<point x="164" y="0" type="line"/>
			<point x="164" y="451" type="line"/>
			<point x="315" y="451" type="line"/>
			<point x="315" y="0" type="line"/>
			<point x="401" y="0" type="line"/>
		</contour>
	</outline>
</glyph>
<glyph name="afii10086" format="2">
	<unicode hex="0444"/>
	<advance width="585"/>
	<outline>
		<contour>
			<point x="332" y="-183" type="line"/>
			<point x="332" y="-2" type="line"/>
			<point x="467" y="14"/>
			<point x="545" y="120"/>
			<point x="545" y="262" type="curve" smooth="yes"/>
			<point x="545" y="404"/>
			<point x="467" y="510"/>
			<point x="332" y="526" type="curve"/>
			<point x="332" y="776" type="line"/>
			<point x="254" y="761" type="line"/>
			<point x="254" y="526" type="line"/>
			<point x="119" y="510"/>
			<point x="40" y="404"/>
			<point x="40" y="262" type="curve" smooth="yes"/>
			<point x="40" y="120"/>
			<point x="119" y="14"/>
			<point x="254" y="-2" type="curve"/>
			<point x="254" y="-183" type="line"/>
		</contour>
		<contour>
			<point x="127" y="267" type="curve" smooth="yes"/>
			<point x="127" y="367"/>
			<point x="166" y="435"/>
			<point x="254" y="450" type="curve"/>
			<point x="254" y="74" type="line"/>
			<point x="166" y="91"/>
			<point x="127" y="166"/>
		</contour>
		<contour>
			<point x="458" y="267" type="curve" smooth="yes"/>
			<point x="458" y="166"/>
			<point x="420" y="90"/>
			<point x="332" y="73" type="curve"/>
			<point x="332" y="451" type="line"/>
			<point x="420" y="436"/>
			<point x="458" y="367"/>
		</contour>
	</outline>
</glyph>
<glyph name="afii10092" format="2">
	<unicode hex="044A"/>
	<advance width="457"/>
	<outline>
		<contour>
			<point x="105" y="7" type="line"/>
			<point x="146" y="-3"/>
			<point x="190" y="-11"/>
			<point x="236" y="-11" type="curve" smooth="yes"/>
			<point x="347" y="-11"/>
			<point x="429" y="33"/>
			<point x="429" y="164" type="curve" smooth="yes"/>
			<point x="429" y="274"/>
			<point x="356" y="337"/>
			<point x="250" y="337" type="curve" smooth="yes"/>
			<point x="232" y="337"/>
			<point x="211" y="335"/>
			<point x="191" y="331" type="curve"/>
			<point x="191" y="525" type="line"/>
			<point x="10" y="525" type="line"/>
			<point x="10" y="451" type="line"/>
			<point x="105" y="451" type="line"/>
		</contour>
		<contour>
			<point x="191" y="258" type="line"/>
			<point x="210" y="261"/>
			<point x="227" y="263"/>
			<point x="242" y="263" type="curve" smooth="yes"/>
			<point x="317" y="263"/>
			<point x="340" y="218"/>
			<point x="340" y="163" type="curve" smooth="yes"/>
			<point x="340" y="93"/>
			<point x="306" y="63"/>
			<point x="238" y="63" type="curve" smooth="yes"/>
			<point x="221" y="63"/>
			<point x="207" y="65"/>
			<point x="191" y="68" type="curve"/>
		</contour>
	</outline>
</glyph>
<glyph name="afii10096" format="2">
	<unicode hex="044E"/>
	<advance width="656"/>
	<outline>
		<contour>
			<point x="608" y="262" type="curve" smooth="yes"/>
			<point x="608" y="426"/>
			<point x="552" y="538"/>
			<point x="428" y="538" type="curve" smooth="yes"/>
			<point x="318" y="538"/>
			<point x="260" y="447"/>
			<point x="250" y="309" type="curve"/>
			<point x="164" y="309" type="line"/>
			<point x="164" y="520" type="line"/>
			<point x="78" y="520" type="line"/>
			<point x="78" y="0" type="line"/>
			<point x="164" y="0" type="line"/>
			<point x="164" y="229" type="line"/>
			<point x="250" y="229" type="line"/>
			<point x="257" y="83"/>
			<point x="314" y="-13"/>
			<point x="428" y="-13" type="curve" smooth="yes"/>
			<point x="552" y="-13"/>
			<point x="608" y="98"/>
		</contour>
		<contour>
			<point x="518" y="262" type="curve" smooth="yes"/>
			<point x="518" y="144"/>
			<point x="494" y="64"/>
			<point x="427" y="64" type="curve" smooth="yes"/>
			<point x="361" y="64"/>
			<point x="336" y="144"/>
			<point x="336" y="262" type="curve" smooth="yes"/>
			<point x="336" y="380"/>
			<point x="361" y="461"/>
			<point x="427" y="461" type="curve" smooth="yes"/>
			<point x="494" y="461"/>
			<point x="518" y="380"/>
		</contour>
	</outline>
</glyph>
<glyph name="afii10097" format="2">
	<unicode hex="044F"/>
	<advance width="442"/>
	<outline>
		<contour>
			<point x="364" y="0" type="line"/>
			<point x="364" y="520" type="line"/>
			<point x="325" y="530"/>
			<point x="283" y="538"/>
			<point x="239" y="538" type="curve" smooth="yes"/>
			<point x="133" y="538"/>
			<point x="55" y="484"/>
			<point x="55" y="367" type="curve" smooth="yes"/>
			<point x="55" y="295"/>
			<point x="84" y="246"/>
			<point x="133" y="220" type="curve"/>
			<point x="103" y="159"/>
			<point x="63" y="65"/>
			<point x="45" y="0" type="curve"/>
			<point x="133" y="0" type="line"/>
			<point x="154" y="64"/>
			<point x="181" y="139"/>
			<point x="207" y="198" type="curve"/>
			<point x="217" y="197"/>
			<point x="227" y="197"/>
			<point x="237" y="197" type="curve" smooth="yes"/>
			<point x="278" y="197" type="line"/>
			<point x="278" y="0" type="line"/>
		</contour>
		<contour>
			<point x="278" y="270" type="line"/>
			<point x="237" y="270" type="line" smooth="yes"/>
			<point x="166" y="270"/>
			<point x="144" y="311"/>
			<point x="144" y="367" type="curve" smooth="yes"/>
			<point x="144" y="435"/>
			<point x="175" y="467"/>
			<point x="236" y="467" type="curve" smooth="yes"/>
			<point x="251" y="467"/>
			<point x="264" y="465"/>
			<point x="278" y="462" type="curve"/>
		</contour>
	</outline>
</glyph>
<glyph name="uni0496" format="2">
	<unicode hex="0496"/>
	<advance width="713"/>
	<outline>
		<contour>
			<point x="39" y="693" type="line"/>
			<point x="85" y="604"/>
			<point x="156" y="464"/>
			<point x="213" y="369" type="curve"/>
			<point x="147" y="289"/>
			<point x="60" y="127"/>
			<point x="22" y="0" type="curve"/>
			<point x="120" y="0" type="line"/>
			<point x="163" y="133"/>
			<point x="229" y="264"/>
			<point x="295" y="333" type="curve"/>
			<point x="295" y="0" type="line"/>
			<point x="381" y="0" type="line"/>
			<point x="381" y="333" type="line"/>
			<point x="447" y="264"/>
			<point x="513" y="133"/>
			<point x="556" y="0" type="curve"/>
			<point x="612" y="0" type="line"/>
			<point x="612" y="-185" type="line"/>
			<point x="698" y="-185" type="line"/>
			<point x="698" y="76" type="line"/>
			<point x="627" y="76" type="line"/>
			<point x="583" y="186"/>
			<point x="516" y="304"/>
			<point x="463" y="369" type="curve"/>
			<point x="519" y="464"/>
			<point x="590" y="604"/>
			<point x="637" y="693" type="curve"/>
			<point x="544" y="693" type="line"/>
			<point x="508" y="619"/>
			<point x="435" y="476"/>
			<point x="381" y="387" type="curve"/>
			<point x="381" y="693" type="line"/>
			<point x="295" y="693" type="line"/>
			<point x="295" y="387" type="line"/>
			<point x="241" y="476"/>
			<point x="168" y="619"/>
			<point x="132" y="693" type="curve"/>
		</contour>
	</outline>
</glyph>
<glyph name="uni049D" format="2">
	<unicode hex="049D"/>
	<advance width="466"/>
	<outline>
		<contour>
			<point x="206" y="128" type="line"/>
			<point x="206" y="241" type="line"/>
			<point x="164" y="241" type="line"/>
			<point x="164" y="0" type="line"/>
			<point x="78" y="0" type="line"/>
			<point x="78" y="525" type="line"/>
			<point x="164" y="525" type="line"/>
			<point x="164" y="315" type="line"/>
			<point x="206" y="315" type="line"/>
			<point x="206" y="418" type="line"/>
			<point x="266" y="418" type="line"/>
			<point x="266" y="315" type="line"/>
			<point x="267" y="315" type="line"/>
			<point x="278" y="339"/>
			<point x="302" y="395"/>
			<point x="324" y="451"/>
			<point x="344" y="504"/>
			<point x="352" y="525" type="qcurve"/>
			<point x="437" y="525" type="line"/>
			<point x="409" y="453"/>
			<point x="356" y="334"/>
			<point x="330" y="282" type="qcurve"/>
			<point x="347" y="254"/>
			<point x="383" y="184"/>
			<point x="416" y="109"/>
			<point x="444" y="34"/>
			<point x="454" y="0" type="qcurve"/>
			<point x="367" y="0" type="line"/>
			<point x="358" y="30"/>
			<point x="334" y="95"/>
			<point x="308" y="159"/>
			<point x="280" y="218"/>
			<point x="268" y="241" type="qcurve"/>
			<point x="266" y="241" type="line"/>
			<point x="266" y="128" type="line"/>
		</contour>
	</outline>
</glyph>
<glyph name="uni049E" format="2">
	<unicode hex="049E"/>
	<advance width="510"/>
	<outline>
		<contour>
			<point x="17" y="615" type="line"/>
			<point x="85" y="615" type="line"/>
			<point x="85" y="693" type="line"/>
			<point x="175" y="693" type="line"/>
			<point x="175" y="615" type="line"/>
			<point x="240" y="615" type="line"/>
			<point x="240" y="549" type="line"/>
			<point x="175" y="549" type="line"/>
			<point x="175" y="387" type="line"/>
			<point x="201" y="420"/>
			<point x="259" y="504"/>
			<point x="316" y="588"/>
			<point x="366" y="665"/>
			<point x="383" y="693" type="qcurve"/>
			<point x="481" y="693" type="line"/>
			<point x="459" y="659"/>
			<point x="404" y="577"/>
			<point x="346" y="490"/>
			<point x="287" y="406"/>
			<point x="260" y="370" type="qcurve"/>
			<point x="290" y="340"/>
			<point x="360" y="249"/>
			<point x="428" y="148"/>
			<point x="488" y="44"/>
			<point x="506" y="0" type="qcurve"/>
			<point x="405" y="0" type="line"/>
			<point x="384" y="46"/>
			<point x="329" y="142"/>
			<point x="268" y="231"/>
			<point x="205" y="307"/>
			<point x="175" y="333" type="qcurve"/>
			<point x="175" y="0" type="line"/>
			<point x="85" y="0" type="line"/>
			<point x="85" y="549" type="line"/>
			<point x="17" y="549" type="line"/>
		</contour>
	</outline>
</glyph>
<glyph name="uni049F" format="2">
	<unicode hex="049F"/>
	<advance width="432"/>
	<outline>
		<contour>
			<point x="15" y="501" type="line"/>
			<point x="78" y="501" type="line"/>
			<point x="78" y="560" type="line"/>
			<point x="164" y="560" type="line"/>
			<point x="164" y="501" type="line"/>
			<point x="216" y="501" type="line"/>
			<point x="216" y="435" type="line"/>
			<point x="164" y="435" type="line"/>
			<point x="164" y="299" type="line"/>
			<point x="182" y="323"/>
			<point x="223" y="383"/>
			<point x="263" y="444"/>
			<point x="299" y="502"/>
			<point x="311" y="525" type="qcurve"/>
			<point x="403" y="525" type="line"/>
			<point x="361" y="453"/>
			<point x="284" y="334"/>
			<point x="246" y="282" type="qcurve"/>
			<point x="270" y="254"/>
			<point x="320" y="184"/>
			<point x="366" y="109"/>
			<point x="406" y="34"/>
			<point x="420" y="0" type="qcurve"/>
			<point x="326" y="0" type="line"/>
			<point x="311" y="33"/>
			<point x="271" y="105"/>
			<point x="227" y="174"/>
			<point x="183" y="236"/>
			<point x="164" y="257" type="qcurve"/>
			<point x="164" y="0" type="line"/>
			<point x="78" y="0" type="line"/>
			<point x="78" y="435" type="line"/>
			<point x="15" y="435" type="line"/>
		</contour>
	</outline>
</glyph>
<glyph name="uni04A0" format="2">
	<unicode hex="04A0"/>
	<advance width="568"/>
	<outline>
		<contour>
			<point x="441" y="693" type="line"/>
			<point x="395" y="619"/>
			<point x="302" y="476"/>
			<point x="233" y="387" type="curve"/>
			<point x="233" y="693" type="line"/>
			<point x="14" y="693" type="line"/>
			<point x="14" y="617" type="line"/>
			<point x="143" y="617" type="line"/>
			<point x="143" y="0" type="line"/>
			<point x="233" y="0" type="line"/>
			<point x="233" y="333" type="line"/>
			<point x="312" y="264"/>
			<point x="407" y="123"/>
			<point x="463" y="0" type="curve"/>
			<point x="564" y="0" type="line"/>
			<point x="515" y="117"/>
			<point x="397" y="289"/>
			<point x="318" y="370" type="curve"/>
			<point x="389" y="465"/>
			<point x="480" y="603"/>
			<point x="539" y="693" type="curve"/>
		</contour>
	</outline>
</glyph>
<glyph name="uni04A7" format="2">
	<unicode hex="04A7"/>
	<advance width="672"/>
	<outline>
		<contour>
			<point x="401" y="525" type="line"/>
			<point x="78" y="525" type="line"/>
			<point x="78" y="0" type="line"/>
			<point x="164" y="0" type="line"/>
			<point x="164" y="451" type="line"/>
			<point x="315" y="451" type="line"/>
			<point x="315" y="0" type="line"/>
			<point x="401" y="0" type="line"/>
			<point x="401" y="235" type="line"/>
			<point x="420" y="242"/>
			<point x="439" y="245"/>
			<point x="457" y="245" type="curve" smooth="yes"/>
			<point x="519" y="245"/>
			<point x="554" y="194"/>
			<point x="554" y="68" type="curve" smooth="yes"/>
			<point x="554" y="-11"/>
			<point x="544" y="-114"/>
			<point x="455" y="-114" type="curve" smooth="yes"/>
			<point x="442" y="-114" type="line"/>
			<point x="442" y="-185" type="line"/>
			<point x="450" y="-186"/>
			<point x="457" y="-186"/>
			<point x="464" y="-186" type="curve" smooth="yes"/>
			<point x="580" y="-186"/>
			<point x="644" y="-89"/>
			<point x="644" y="70" type="curve" smooth="yes"/>
			<point x="644" y="250"/>
			<point x="566" y="318"/>
			<point x="466" y="318" type="curve" smooth="yes"/>
			<point x="445" y="318"/>
			<point x="423" y="314"/>
			<point x="401" y="308" type="curve"/>
		</contour>
	</outline>
</glyph>
<glyph name="uni04A8" format="2">
	<unicode hex="04A8"/>
	<advance width="618"/>
	<outline>
		<contour>
			<point x="547" y="-184" type="line"/>
			<point x="464" y="-162"/>
			<point x="358" y="-73"/>
			<point x="326" y="-16" type="qcurve"/>
			<point x="324" y="-16"/>
			<point x="319" y="-17"/>
			<point x="317" y="-17" type="qcurve"/>
			<point x="194" y="-17"/>
			<point x="56" y="169"/>
			<point x="56" y="343" type="qcurve"/>
			<point x="56" y="434"/>
			<point x="98" y="571"/>
			<point x="171" y="663"/>
			<point x="273" y="708"/>
			<point x="333" y="708" type="qcurve"/>
			<point x="365" y="708"/>
			<point x="428" y="694"/>
			<point x="454" y="681" type="qcurve"/>
			<point x="429" y="608" type="line"/>
			<point x="406" y="619"/>
			<point x="359" y="629"/>
			<point x="333" y="629" type="qcurve"/>
			<point x="246" y="629"/>
			<point x="147" y="481"/>
			<point x="147" y="343" type="qcurve"/>
			<point x="147" y="212"/>
			<point x="220" y="68"/>
			<point x="291" y="57" type="qcurve"/>
			<point x="271" y="114"/>
			<point x="257" y="221"/>
			<point x="257" y="258" type="qcurve"/>
			<point x="257" y="317"/>
			<point x="274" y="411"/>
			<point x="311" y="477"/>
			<point x="370" y="513"/>
			<point x="411" y="513" type="qcurve"/>
			<point x="449" y="513"/>
			<point x="506" y="481"/>
			<point x="545" y="424"/>
			<point x="564" y="344"/>
			<point x="564" y="296" type="qcurve"/>
			<point x="564" y="245"/>
			<point x="543" y="153"/>
			<point x="503" y="77"/>
			<point x="445" y="18"/>
			<point x="408" y="2" type="qcurve"/>
			<point x="435" y="-40"/>
			<point x="510" y="-94"/>
			<point x="568" y="-114" type="qcurve"/>
		</contour>
		<contour>
			<point x="347" y="254" type="qcurve"/>
			<point x="347" y="205"/>
			<point x="360" y="111"/>
			<point x="376" y="69" type="qcurve"/>
			<point x="424" y="93"/>
			<point x="475" y="214"/>
			<point x="475" y="297" type="qcurve"/>
			<point x="475" y="370"/>
			<point x="443" y="432"/>
			<point x="416" y="432" type="qcurve"/>
			<point x="383" y="432"/>
			<point x="347" y="348"/>
		</contour>
	</outline>
</glyph>
<glyph name="uni04AF" format="2">
	<unicode hex="04AF"/>
	<advance width="391"/>
	<outline>
		<contour>
			<point x="197" y="101" type="qcurve"/>
			<point x="209" y="141"/>
			<point x="236" y="249"/>
			<point x="262" y="364"/>
			<point x="285" y="478"/>
			<point x="293" y="525" type="qcurve"/>
			<point x="379" y="525" type="line"/>
			<point x="366" y="460"/>
			<point x="331" y="315"/>
			<point x="294" y="173"/>
			<point x="256" y="46"/>
			<point x="240" y="-1" type="qcurve"/>
			<point x="240" y="-183" type="line"/>
			<point x="154" y="-183" type="line"/>
			<point x="154" y="-9" type="line"/>
			<point x="138" y="37"/>
			<point x="99" y="166"/>
			<point x="61" y="310"/>
			<point x="25" y="459"/>
			<point x="12" y="525" type="qcurve"/>
			<point x="103" y="525" type="line"/>
			<point x="111" y="478"/>
			<point x="134" y="364"/>
			<point x="159" y="249"/>
			<point x="185" y="141"/>
		</contour>
	</outline>
	<guideline x="197"/>
</glyph>
<glyph name="uni04B2" format="2">
	<unicode hex="04B2"/>
	<advance width="509"/>
	<outline>
		<contour>
			<point x="115" y="693" type="line"/>
			<point x="25" y="693" type="line"/>
			<point x="185" y="364" type="line"/>
			<point x="130" y="246"/>
			<point x="59" y="104"/>
			<point x="21" y="0" type="curve"/>
			<point x="105" y="0" type="line"/>
			<point x="132" y="81"/>
			<point x="187" y="192"/>
			<point x="236" y="288" type="curve"/>
			<point x="285" y="192"/>
			<point x="339" y="81"/>
			<point x="367" y="0" type="curve"/>
			<point x="408" y="0" type="line"/>
			<point x="408" y="-185" type="line"/>
			<point x="494" y="-185" type="line"/>
			<point x="494" y="76" type="line"/>
			<point x="423" y="76" type="line"/>
			<point x="383" y="169"/>
			<point x="330" y="278"/>
			<point x="286" y="371" type="curve"/>
			<point x="444" y="693" type="line"/>
			<point x="357" y="693" type="line"/>
			<point x="236" y="438" type="line"/>
		</contour>
	</outline>
</glyph>
<glyph name="uni04B3" format="2">
	<unicode hex="04B3"/>
	<advance width="422"/>
	<outline>
		<contour>
			<point x="372" y="525" type="line"/>
			<point x="288" y="525" type="line"/>
			<point x="197" y="347" type="line"/>
			<point x="107" y="525" type="line"/>
			<point x="20" y="525" type="line"/>
			<point x="149" y="276" type="line"/>
			<point x="105" y="194"/>
			<point x="45" y="87"/>
			<point x="15" y="0" type="curve"/>
			<point x="97" y="0" type="line"/>
			<point x="123" y="77"/>
			<point x="160" y="148"/>
			<point x="193" y="209" type="curve"/>
			<point x="227" y="148"/>
			<point x="266" y="77"/>
			<point x="292" y="0" type="curve"/>
			<point x="328" y="0" type="line"/>
			<point x="328" y="-145" type="line"/>
			<point x="412" y="-145" type="line"/>
			<point x="412" y="70" type="line"/>
			<point x="348" y="70" type="line"/>
			<point x="317" y="141"/>
			<point x="276" y="217"/>
			<point x="243" y="278" type="curve"/>
		</contour>
	</outline>
</glyph>
<glyph name="uni04B4" format="2">
	<unicode hex="04B4"/>
	<advance width="612"/>
	<outline>
		<contour>
			<point x="342" y="693" type="line"/>
			<point x="342" y="616" type="line"/>
			<point x="228" y="616" type="line"/>
			<point x="228" y="77" type="line"/>
			<point x="441" y="77" type="line"/>
			<point x="441" y="693" type="line"/>
			<point x="531" y="693" type="line"/>
			<point x="531" y="77" type="line"/>
			<point x="597" y="77" type="line"/>
			<point x="597" y="-185" type="line"/>
			<point x="511" y="-185" type="line"/>
			<point x="511" y="0" type="line"/>
			<point x="138" y="0" type="line"/>
			<point x="138" y="616" type="line"/>
			<point x="14" y="616" type="line"/>
			<point x="14" y="693" type="line"/>
		</contour>
	</outline>
</glyph>
<glyph name="uni04B6" format="2">
	<unicode hex="04B6"/>
	<advance width="508"/>
	<outline>
		<contour>
			<point x="407" y="-185" type="line"/>
			<point x="407" y="0" type="line"/>
			<point x="337" y="0" type="line"/>
			<point x="337" y="254" type="line"/>
			<point x="315" y="248"/>
			<point x="264" y="240"/>
			<point x="237" y="240" type="qcurve"/>
			<point x="199" y="240"/>
			<point x="134" y="260"/>
			<point x="84" y="306"/>
			<point x="56" y="382"/>
			<point x="56" y="439" type="qcurve"/>
			<point x="56" y="693" type="line"/>
			<point x="142" y="693" type="line"/>
			<point x="142" y="454" type="line"/>
			<point x="142" y="385"/>
			<point x="191" y="316"/>
			<point x="258" y="316" type="qcurve"/>
			<point x="293" y="316"/>
			<point x="337" y="326" type="qcurve"/>
			<point x="337" y="693" type="line"/>
			<point x="427" y="693" type="line"/>
			<point x="427" y="77" type="line"/>
			<point x="493" y="77" type="line"/>
			<point x="493" y="-185" type="line"/>
		</contour>
	</outline>
</glyph>
<glyph name="uni04B8" format="2">
	<unicode hex="04B8"/>
	<advance width="511"/>
	<outline>
		<contour>
			<point x="275" y="123" type="line"/>
			<point x="275" y="242" type="line"/>
			<point x="297" y="244"/>
			<point x="318" y="249"/>
			<point x="337" y="254" type="curve"/>
			<point x="337" y="0" type="line"/>
			<point x="427" y="0" type="line"/>
			<point x="427" y="693" type="line"/>
			<point x="337" y="693" type="line"/>
			<point x="337" y="325" type="line"/>
			<point x="313" y="319"/>
			<point x="293" y="316"/>
			<point x="275" y="315" type="curve"/>
			<point x="275" y="450" type="line"/>
			<point x="206" y="450" type="line"/>
			<point x="206" y="321" type="line"/>
			<point x="153" y="336"/>
			<point x="142" y="381"/>
			<point x="142" y="454" type="curve" smooth="yes"/>
			<point x="142" y="693" type="line"/>
			<point x="56" y="693" type="line"/>
			<point x="56" y="439" type="line" smooth="yes"/>
			<point x="56" y="304"/>
			<point x="120" y="251"/>
			<point x="206" y="241" type="curve"/>
			<point x="206" y="123" type="line"/>
		</contour>
	</outline>
</glyph>
<glyph name="uni04BA" format="2">
	<unicode hex="04BA"/>
	<advance width="520"/>
	<outline>
		<contour>
			<point x="174" y="693" type="line"/>
			<point x="174" y="439" type="line"/>
			<point x="196" y="445"/>
			<point x="247" y="453"/>
			<point x="274" y="453" type="qcurve"/>
			<point x="311" y="453"/>
			<point x="377" y="433"/>
			<point x="427" y="387"/>
			<point x="455" y="311"/>
			<point x="455" y="254" type="qcurve"/>
			<point x="455" y="0" type="line"/>
			<point x="369" y="0" type="line"/>
			<point x="369" y="239" type="line"/>
			<point x="369" y="308"/>
			<point x="320" y="377"/>
			<point x="253" y="377" type="qcurve"/>
			<point x="218" y="377"/>
			<point x="174" y="367" type="qcurve"/>
			<point x="174" y="0" type="line"/>
			<point x="84" y="0" type="line"/>
			<point x="84" y="693" type="line"/>
		</contour>
	</outline>
</glyph>
<glyph name="uni04BC" format="2">
	<unicode hex="04BC"/>
	<advance width="635"/>
	<outline>
		<contour>
			<point x="81" y="475" type="qcurve"/>
			<point x="81" y="403"/>
			<point x="159" y="397" type="qcurve"/>
			<point x="169" y="552"/>
			<point x="285" y="709"/>
			<point x="377" y="709" type="qcurve"/>
			<point x="433" y="709"/>
			<point x="511" y="663"/>
			<point x="559" y="578"/>
			<point x="581" y="456"/>
			<point x="581" y="381" type="qcurve"/>
			<point x="581" y="366"/>
			<point x="581" y="338"/>
			<point x="580" y="321" type="qcurve"/>
			<point x="252" y="321" type="line"/>
			<point x="253" y="266"/>
			<point x="267" y="172"/>
			<point x="303" y="103"/>
			<point x="364" y="64"/>
			<point x="412" y="64" type="qcurve"/>
			<point x="445" y="64"/>
			<point x="498" y="81"/>
			<point x="526" y="100" type="qcurve"/>
			<point x="551" y="29" type="line"/>
			<point x="489" y="-15"/>
			<point x="405" y="-15" type="qcurve"/>
			<point x="337" y="-15"/>
			<point x="245" y="34"/>
			<point x="186" y="122"/>
			<point x="159" y="246"/>
			<point x="158" y="321" type="qcurve"/>
			<point x="125" y="322"/>
			<point x="68" y="340"/>
			<point x="28" y="375"/>
			<point x="5" y="428"/>
			<point x="5" y="466" type="qcurve"/>
			<point x="5" y="480"/>
			<point x="9" y="508"/>
			<point x="11" y="515" type="qcurve"/>
			<point x="83" y="506" type="line"/>
			<point x="82" y="500"/>
			<point x="81" y="483"/>
		</contour>
		<contour>
			<point x="378" y="629" type="qcurve"/>
			<point x="346" y="629"/>
			<point x="302" y="593"/>
			<point x="272" y="530"/>
			<point x="256" y="446"/>
			<point x="253" y="397" type="qcurve"/>
			<point x="483" y="397" type="line"/>
			<point x="483" y="445"/>
			<point x="473" y="529"/>
			<point x="449" y="592"/>
			<point x="409" y="629"/>
		</contour>
	</outline>
</glyph>
<glyph name="uni04BD" format="2">
	<unicode hex="04BD"/>
	<advance width="523"/>
	<outline>
		<contour>
			<point x="77" y="390" type="curve" smooth="yes"/>
			<point x="77" y="401"/>
			<point x="78" y="411"/>
			<point x="79" y="419" type="curve"/>
			<point x="11" y="428" type="line"/>
			<point x="8" y="419"/>
			<point x="5" y="400"/>
			<point x="5" y="381" type="curve" smooth="yes"/>
			<point x="5" y="289"/>
			<point x="54" y="244"/>
			<point x="136" y="236" type="curve"/>
			<point x="141" y="87"/>
			<point x="194" y="-13"/>
			<point x="333" y="-13" type="curve" smooth="yes"/>
			<point x="388" y="-13"/>
			<point x="432" y="5"/>
			<point x="449" y="17" type="curve"/>
			<point x="433" y="86" type="line"/>
			<point x="419" y="78"/>
			<point x="383" y="63"/>
			<point x="344" y="63" type="curve" smooth="yes"/>
			<point x="251" y="63"/>
			<point x="227" y="137"/>
			<point x="224" y="237" type="curve"/>
			<point x="473" y="237" type="line"/>
			<point x="474" y="253"/>
			<point x="474" y="268"/>
			<point x="474" y="283" type="curve" smooth="yes"/>
			<point x="474" y="444"/>
			<point x="430" y="538"/>
			<point x="311" y="538" type="curve" smooth="yes"/>
			<point x="215" y="538"/>
			<point x="148" y="467"/>
			<point x="137" y="309" type="curve"/>
			<point x="92" y="316"/>
			<point x="77" y="345"/>
		</contour>
		<contour>
			<point x="311" y="465" type="curve" smooth="yes"/>
			<point x="368" y="465"/>
			<point x="384" y="404"/>
			<point x="384" y="307" type="curve"/>
			<point x="225" y="307" type="line"/>
			<point x="230" y="402"/>
			<point x="254" y="465"/>
		</contour>
	</outline>
</glyph>
<glyph name="uni04C9" format="2">
	<unicode hex="04C9"/>
	<advance width="581"/>
	<outline>
		<contour>
			<point x="402" y="693" type="line"/>
			<point x="492" y="693" type="line"/>
			<point x="492" y="77" type="line"/>
			<point x="565" y="77" type="line"/>
			<point x="565" y="66" type="line"/>
			<point x="565" y="-2"/>
			<point x="510" y="-137"/>
			<point x="453" y="-195" type="qcurve"/>
			<point x="387" y="-153" type="line"/>
			<point x="415" y="-125"/>
			<point x="458" y="-45"/>
			<point x="469" y="0" type="qcurve"/>
			<point x="402" y="0" type="line"/>
			<point x="402" y="322" type="line"/>
			<point x="174" y="322" type="line"/>
			<point x="174" y="0" type="line"/>
			<point x="84" y="0" type="line"/>
			<point x="84" y="693" type="line"/>
			<point x="174" y="693" type="line"/>
			<point x="174" y="400" type="line"/>
			<point x="402" y="400" type="line"/>
		</contour>
	</outline>
</glyph>
<glyph name="uni04CC" format="2">
	<unicode hex="04CC"/>
	<advance width="451"/>
	<outline>
		<contour>
			<point x="374" y="525" type="line"/>
			<point x="374" y="0" type="line"/>
			<point x="308" y="0" type="line"/>
			<point x="308" y="-145" type="line"/>
			<point x="224" y="-145" type="line"/>
			<point x="224" y="70" type="line"/>
			<point x="288" y="70" type="line"/>
			<point x="288" y="198" type="line"/>
			<point x="269" y="192"/>
			<point x="225" y="184"/>
			<point x="201" y="184" type="qcurve"/>
			<point x="168" y="184"/>
			<point x="111" y="202"/>
			<point x="69" y="245"/>
			<point x="44" y="318"/>
			<point x="44" y="373" type="qcurve"/>
			<point x="44" y="525" type="line"/>
			<point x="130" y="525" type="line"/>
			<point x="130" y="371" type="line"/>
			<point x="130" y="347"/>
			<point x="138" y="307"/>
			<point x="158" y="277"/>
			<point x="190" y="260"/>
			<point x="214" y="260" type="qcurve"/>
			<point x="236" y="260"/>
			<point x="271" y="266"/>
			<point x="288" y="271" type="qcurve"/>
			<point x="288" y="525" type="line"/>
		</contour>
	</outline>
</glyph>
<glyph name="uni04CD" format="2">
	<unicode hex="04CD"/>
	<advance width="744"/>
	<outline>
		<contour>
			<point x="401" y="96" type="line"/>
			<point x="424" y="183"/>
			<point x="513" y="457"/>
			<point x="551" y="556" type="curve"/>
			<point x="561" y="402"/>
			<point x="567" y="175"/>
			<point x="571" y="0" type="curve"/>
			<point x="632" y="0" type="line"/>
			<point x="618" y="-59"/>
			<point x="587" y="-116"/>
			<point x="550" y="-153" type="curve"/>
			<point x="616" y="-195" type="line"/>
			<point x="692" y="-118"/>
			<point x="728" y="-24"/>
			<point x="728" y="66" type="curve" smooth="yes"/>
			<point x="728" y="77" type="line"/>
			<point x="655" y="77" type="line"/>
			<point x="648" y="293"/>
			<point x="637" y="514"/>
			<point x="621" y="693" type="curve"/>
			<point x="532" y="693" type="line"/>
			<point x="484" y="579"/>
			<point x="407" y="361"/>
			<point x="365" y="217" type="curve"/>
			<point x="323" y="361"/>
			<point x="242" y="579"/>
			<point x="194" y="693" type="curve"/>
			<point x="105" y="693" type="line"/>
			<point x="87" y="493"/>
			<point x="76" y="240"/>
			<point x="69" y="0" type="curve"/>
			<point x="155" y="0" type="line"/>
			<point x="158" y="175"/>
			<point x="163" y="396"/>
			<point x="173" y="549" type="curve"/>
			<point x="212" y="454"/>
			<point x="271" y="287"/>
			<point x="325" y="96" type="curve"/>
		</contour>
	</outline>
</glyph>
<glyph name="uni1FBE" format="2">
	<unicode hex="1FBE"/>
	<advance width="314"/>
	<outline>
		<contour>
			<point x="158" y="-63" type="line"/>
			<point x="158" y="-103"/>
			<point x="184" y="-133"/>
			<point x="209" y="-133" type="qcurve"/>
			<point x="217" y="-133"/>
			<point x="221" y="-132" type="qcurve"/>
			<point x="221" y="-184" type="line"/>
			<point x="216" y="-186"/>
			<point x="198" y="-188"/>
			<point x="187" y="-188" type="qcurve"/>
			<point x="143" y="-188"/>
			<point x="83" y="-134"/>
			<point x="83" y="-71" type="qcurve"/>
			<point x="83" y="-68"/>
			<point x="83" y="-55"/>
			<point x="84" y="-50" type="qcurve"/>
			<point x="158" y="-50" type="line"/>
		</contour>
	</outline>
</glyph>
<glyph name="uni1FC1" format="2">
	<unicode hex="1FC1"/>
	<advance width="314"/>
	<outline>
		<contour>
			<point x="241" y="592" type="qcurve"/>
			<point x="219" y="592"/>
			<point x="189" y="621"/>
			<point x="189" y="645" type="qcurve"/>
			<point x="189" y="669"/>
			<point x="219" y="698"/>
			<point x="241" y="698" type="qcurve"/>
			<point x="263" y="698"/>
			<point x="293" y="669"/>
			<point x="293" y="645" type="qcurve"/>
			<point x="293" y="621"/>
			<point x="263" y="592"/>
		</contour>
		<contour>
			<point x="74" y="592" type="qcurve"/>
			<point x="52" y="592"/>
			<point x="22" y="621"/>
			<point x="22" y="645" type="qcurve"/>
			<point x="22" y="669"/>
			<point x="52" y="698"/>
			<point x="74" y="698" type="qcurve"/>
			<point x="96" y="698"/>
			<point x="126" y="669"/>
			<point x="126" y="645" type="qcurve"/>
			<point x="126" y="621"/>
			<point x="96" y="592"/>
		</contour>
		<contour>
			<point x="156" y="865" type="qcurve"/>
			<point x="184" y="865"/>
			<point x="232" y="848"/>
			<point x="268" y="816"/>
			<point x="289" y="770"/>
			<point x="289" y="740" type="qcurve"/>
			<point x="233" y="740" type="line"/>
			<point x="229" y="766"/>
			<point x="191" y="804"/>
			<point x="156" y="804" type="qcurve"/>
			<point x="121" y="804"/>
			<point x="84" y="766"/>
			<point x="80" y="740" type="qcurve"/>
			<point x="24" y="740" type="line"/>
			<point x="24" y="770"/>
			<point x="44" y="816"/>
			<point x="80" y="848"/>
			<point x="128" y="865"/>
		</contour>
	</outline>
</glyph>
<glyph name="daggerdbl" format="2">
	<unicode hex="2021"/>
	<advance width="384"/>
	<outline>
		<contour>
			<point x="37" y="135" type="line"/>
			<point x="155" y="135" type="line"/>
			<point x="155" y="25"/>
			<point x="159" y="-57"/>
			<point x="167" y="-145" type="curve"/>
			<point x="217" y="-145" type="line"/>
			<point x="226" y="-57"/>
			<point x="229" y="25"/>
			<point x="229" y="135" type="curve"/>
			<point x="347" y="135" type="line"/>
			<point x="347" y="207" type="line"/>
			<point x="229" y="207" type="line"/>
			<point x="229" y="403" type="line"/>
			<point x="347" y="403" type="line"/>
			<point x="347" y="475" type="line"/>
			<point x="229" y="475" type="line"/>
			<point x="229" y="693" type="line"/>
			<point x="155" y="693" type="line"/>
			<point x="155" y="475" type="line"/>
			<point x="37" y="475" type="line"/>
			<point x="37" y="403" type="line"/>
			<point x="155" y="403" type="line"/>
			<point x="155" y="207" type="line"/>
			<point x="37" y="207" type="line"/>
		</contour>
	</outline>
</glyph>
<glyph name="zerosuperior" format="2">
	<unicode hex="2070"/>
	<advance width="280"/>
	<outline>
		<contour>
			<point x="23" y="499" type="curve" smooth="yes"/>
			<point x="23" y="350"/>
			<point x="66" y="299"/>
			<point x="139" y="299" type="curve" smooth="yes"/>
			<point x="213" y="299"/>
			<point x="257" y="350"/>
			<point x="257" y="499" type="curve" smooth="yes"/>
			<point x="257" y="647"/>
			<point x="213" y="699"/>
			<point x="139" y="699" type="curve" smooth="yes"/>
			<point x="66" y="699"/>
			<point x="23" y="647"/>
		</contour>
		<contour>
			<point x="184" y="499" type="curve" smooth="yes"/>
			<point x="184" y="404"/>
			<point x="174" y="363"/>
			<point x="139" y="363" type="curve" smooth="yes"/>
			<point x="107" y="363"/>
			<point x="96" y="404"/>
			<point x="96" y="499" type="curve" smooth="yes"/>
			<point x="96" y="594"/>
			<point x="107" y="636"/>
			<point x="139" y="636" type="curve" smooth="yes"/>
			<point x="174" y="636"/>
			<point x="184" y="594"/>
		</contour>
	</outline>
</glyph>
<glyph name="foursuperior" format="2">
	<unicode hex="2074"/>
	<advance width="280"/>
	<outline>
		<contour>
			<point x="143" y="693" type="line"/>
			<point x="91" y="613"/>
			<point x="51" y="528"/>
			<point x="23" y="439" type="curve"/>
			<point x="23" y="401" type="line"/>
			<point x="151" y="401" type="line"/>
			<point x="151" y="306" type="line"/>
			<point x="215" y="306" type="line"/>
			<point x="215" y="401" type="line"/>
			<point x="257" y="401" type="line"/>
			<point x="257" y="459" type="line"/>
			<point x="215" y="459" type="line"/>
			<point x="215" y="693" type="line"/>
		</contour>
		<contour>
			<point x="152" y="609" type="curve"/>
			<point x="152" y="459" type="line"/>
			<point x="83" y="459" type="line"/>
			<point x="104" y="513"/>
			<point x="130" y="571"/>
		</contour>
	</outline>
</glyph>
<glyph name="sixsuperior" format="2">
	<unicode hex="2076"/>
	<advance width="280"/>
	<outline>
		<contour>
			<point x="241" y="645" type="line"/>
			<point x="169" y="640"/>
			<point x="121" y="611"/>
			<point x="104" y="542" type="curve"/>
			<point x="121" y="548"/>
			<point x="141" y="552"/>
			<point x="154" y="552" type="curve" smooth="yes"/>
			<point x="216" y="552"/>
			<point x="261" y="507"/>
			<point x="261" y="428" type="curve" smooth="yes"/>
			<point x="261" y="347"/>
			<point x="220" y="299"/>
			<point x="146" y="299" type="curve" smooth="yes"/>
			<point x="66" y="299"/>
			<point x="28" y="359"/>
			<point x="28" y="470" type="curve" smooth="yes"/>
			<point x="28" y="631"/>
			<point x="128" y="697"/>
			<point x="229" y="700" type="curve"/>
		</contour>
		<contour>
			<point x="143" y="496" type="curve" smooth="yes"/>
			<point x="128" y="496"/>
			<point x="114" y="492"/>
			<point x="97" y="483" type="curve"/>
			<point x="97" y="473" type="line" smooth="yes"/>
			<point x="97" y="398"/>
			<point x="112" y="360"/>
			<point x="146" y="360" type="curve" smooth="yes"/>
			<point x="174" y="360"/>
			<point x="189" y="383"/>
			<point x="189" y="429" type="curve" smooth="yes"/>
			<point x="189" y="477"/>
			<point x="174" y="496"/>
		</contour>
	</outline>
</glyph>
<glyph name="afii61352" format="2">
	<unicode hex="2116"/>
	<advance width="916"/>
	<outline>
		<contour>
			<point x="587" y="152" type="line"/>
			<point x="852" y="152" type="line"/>
			<point x="852" y="222" type="line"/>
			<point x="587" y="222" type="line"/>
		</contour>
		<contour>
			<point x="497" y="0" type="line"/>
			<point x="497" y="693" type="line"/>
			<point x="413" y="693" type="line"/>
			<point x="413" y="196" type="line"/>
			<point x="350" y="344"/>
			<point x="260" y="527"/>
			<point x="159" y="693" type="curve"/>
			<point x="84" y="693" type="line"/>
			<point x="84" y="0" type="line"/>
			<point x="168" y="0" type="line"/>
			<point x="168" y="531" type="line"/>
			<point x="258" y="373"/>
			<point x="359" y="158"/>
			<point x="424" y="0" type="curve"/>
		</contour>
		<contour>
			<point x="862" y="521" type="curve" smooth="yes"/>
			<point x="862" y="650"/>
			<point x="803" y="710"/>
			<point x="721" y="710" type="curve" smooth="yes"/>
			<point x="639" y="710"/>
			<point x="580" y="650"/>
			<point x="580" y="521" type="curve" smooth="yes"/>
			<point x="580" y="394"/>
			<point x="639" y="332"/>
			<point x="721" y="332" type="curve" smooth="yes"/>
			<point x="803" y="332"/>
			<point x="862" y="395"/>
		</contour>
		<contour>
			<point x="792" y="521" type="curve" smooth="yes"/>
			<point x="792" y="435"/>
			<point x="766" y="394"/>
			<point x="721" y="394" type="curve" smooth="yes"/>
			<point x="676" y="394"/>
			<point x="650" y="435"/>
			<point x="650" y="521" type="curve" smooth="yes"/>
			<point x="650" y="609"/>
			<point x="677" y="648"/>
			<point x="721" y="648" type="curve" smooth="yes"/>
			<point x="766" y="648"/>
			<point x="792" y="609"/>
		</contour>
	</outline>
</glyph>
<glyph name="trademark" format="2">
	<unicode hex="2122"/>
	<advance width="627"/>
	<outline>
		<contour>
			<point x="397" y="407" type="line"/>
			<point x="392" y="429"/>
			<point x="377" y="485"/>
			<point x="361" y="542"/>
			<point x="343" y="597"/>
			<point x="336" y="618" type="qcurve"/>
			<point x="334" y="568"/>
			<point x="328" y="435"/>
			<point x="326" y="364" type="qcurve"/>
			<point x="266" y="364" type="line"/>
			<point x="268" y="445"/>
			<point x="278" y="611"/>
			<point x="286" y="695" type="qcurve"/>
			<point x="361" y="695" type="line"/>
			<point x="367" y="677"/>
			<point x="383" y="625"/>
			<point x="399" y="568"/>
			<point x="416" y="511"/>
			<point x="422" y="486" type="qcurve"/>
			<point x="428" y="511"/>
			<point x="445" y="568"/>
			<point x="461" y="625"/>
			<point x="477" y="677"/>
			<point x="483" y="695" type="qcurve"/>
			<point x="558" y="695" type="line"/>
			<point x="566" y="611"/>
			<point x="576" y="445"/>
			<point x="578" y="364" type="qcurve"/>
			<point x="518" y="364" type="line"/>
			<point x="516" y="435"/>
			<point x="510" y="568"/>
			<point x="508" y="619" type="qcurve"/>
			<point x="500" y="598"/>
			<point x="482" y="543"/>
			<point x="465" y="485"/>
			<point x="451" y="429"/>
			<point x="447" y="407" type="qcurve"/>
		</contour>
		<contour>
			<point x="247" y="695" type="line"/>
			<point x="247" y="638" type="line"/>
			<point x="167" y="638" type="line"/>
			<point x="167" y="364" type="line"/>
			<point x="103" y="364" type="line"/>
			<point x="103" y="638" type="line"/>
			<point x="23" y="638" type="line"/>
			<point x="23" y="695" type="line"/>
		</contour>
	</outline>
</glyph>
<glyph name="partialdiff" format="2">
	<unicode hex="2202"/>
	<advance width="462"/>
	<outline>
		<contour>
			<point x="80" y="754" type="line"/>
			<point x="130" y="776"/>
			<point x="184" y="776" type="qcurve"/>
			<point x="253" y="776"/>
			<point x="341" y="715"/>
			<point x="392" y="613"/>
			<point x="412" y="479"/>
			<point x="412" y="406" type="qcurve"/>
			<point x="412" y="318"/>
			<point x="392" y="165"/>
			<point x="344" y="52"/>
			<point x="266" y="-13"/>
			<point x="208" y="-13" type="qcurve"/>
			<point x="124" y="-13"/>
			<point x="39" y="104"/>
			<point x="39" y="216" type="qcurve"/>
			<point x="39" y="350"/>
			<point x="138" y="498"/>
			<point x="225" y="498" type="qcurve"/>
			<point x="254" y="498"/>
			<point x="306" y="478"/>
			<point x="326" y="461" type="qcurve"/>
			<point x="323" y="515"/>
			<point x="303" y="604"/>
			<point x="267" y="666"/>
			<point x="214" y="700"/>
			<point x="178" y="700" type="qcurve"/>
			<point x="156" y="700"/>
			<point x="115" y="689"/>
			<point x="97" y="681" type="qcurve"/>
		</contour>
		<contour>
			<point x="208" y="62" type="qcurve"/>
			<point x="241" y="62"/>
			<point x="286" y="125"/>
			<point x="313" y="220"/>
			<point x="326" y="330"/>
			<point x="327" y="378" type="qcurve"/>
			<point x="310" y="401"/>
			<point x="266" y="429"/>
			<point x="237" y="429" type="qcurve"/>
			<point x="206" y="429"/>
			<point x="163" y="393"/>
			<point x="135" y="333"/>
			<point x="122" y="257"/>
			<point x="122" y="218" type="qcurve"/>
			<point x="122" y="62"/>
		</contour>
	</outline>
	<guideline y="-13"/>
	<guideline y="776"/>
</glyph>
<glyph name="infinity" format="2">
	<unicode hex="221E"/>
	<advance width="430"/>
	<outline>
		<contour>
			<point x="347" y="299" type="curve" smooth="yes"/>
			<point x="347" y="244"/>
			<point x="327" y="217"/>
			<point x="301" y="217" type="curve" smooth="yes"/>
			<point x="279" y="217"/>
			<point x="257" y="235"/>
			<point x="245" y="299" type="curve"/>
			<point x="257" y="363"/>
			<point x="279" y="381"/>
			<point x="301" y="381" type="curve" smooth="yes"/>
			<point x="327" y="381"/>
			<point x="347" y="354"/>
		</contour>
		<contour>
			<point x="215" y="376" type="curve"/>
			<point x="197" y="410"/>
			<point x="172" y="441"/>
			<point x="119" y="441" type="curve" smooth="yes"/>
			<point x="79" y="441"/>
			<point x="16" y="410"/>
			<point x="16" y="299" type="curve" smooth="yes"/>
			<point x="16" y="188"/>
			<point x="79" y="157"/>
			<point x="119" y="157" type="curve" smooth="yes"/>
			<point x="172" y="157"/>
			<point x="197" y="188"/>
			<point x="215" y="222" type="curve"/>
			<point x="233" y="188"/>
			<point x="258" y="157"/>
			<point x="311" y="157" type="curve" smooth="yes"/>
			<point x="351" y="157"/>
			<point x="414" y="188"/>
			<point x="414" y="299" type="curve" smooth="yes"/>
			<point x="414" y="410"/>
			<point x="351" y="441"/>
			<point x="311" y="441" type="curve" smooth="yes"/>
			<point x="258" y="441"/>
			<point x="233" y="410"/>
		</contour>
		<contour>
			<point x="83" y="299" type="curve" smooth="yes"/>
			<point x="83" y="354"/>
			<point x="103" y="381"/>
			<point x="129" y="381" type="curve" smooth="yes"/>
			<point x="151" y="381"/>
			<point x="173" y="363"/>
			<point x="185" y="299" type="curve"/>
			<point x="173" y="235"/>
			<point x="151" y="217"/>
			<point x="129" y="217" type="curve" smooth="yes"/>
			<point x="103" y="217"/>
			<point x="83" y="244"/>
		</contour>
	</outline>
</glyph>
<glyph name="integral" format="2">
	<unicode hex="222B"/>
	<advance width="292"/>
	<outline>
		<contour>
			<point x="189" y="584" type="line"/>
			<point x="183" y="659"/>
			<point x="212" y="701"/>
			<point x="269" y="701" type="curve" smooth="yes"/>
			<point x="286" y="701" type="line"/>
			<point x="286" y="775" type="line"/>
			<point x="276" y="776"/>
			<point x="267" y="776"/>
			<point x="258" y="776" type="curve" smooth="yes"/>
			<point x="154" y="776"/>
			<point x="103" y="701"/>
			<point x="103" y="584" type="curve" smooth="yes"/>
			<point x="103" y="8" type="line" smooth="yes"/>
			<point x="103" y="-67"/>
			<point x="80" y="-109"/>
			<point x="23" y="-109" type="curve" smooth="yes"/>
			<point x="6" y="-109" type="line"/>
			<point x="6" y="-183" type="line"/>
			<point x="15" y="-184"/>
			<point x="25" y="-185"/>
			<point x="33" y="-185" type="curve" smooth="yes"/>
			<point x="138" y="-185"/>
			<point x="189" y="-109"/>
			<point x="189" y="8" type="curve"/>
		</contour>
	</outline>
	<guideline y="-185"/>
</glyph>
<glyph name="notequal" format="2">
	<unicode hex="2260"/>
	<advance width="430"/>
	<outline>
		<contour>
			<point x="43" y="359" type="line"/>
			<point x="197" y="359" type="line"/>
			<point x="152" y="239" type="line"/>
			<point x="43" y="239" type="line"/>
			<point x="43" y="166" type="line"/>
			<point x="124" y="166" type="line"/>
			<point x="90" y="74" type="line"/>
			<point x="159" y="48" type="line"/>
			<point x="204" y="166" type="line"/>
			<point x="387" y="166" type="line"/>
			<point x="387" y="239" type="line"/>
			<point x="231" y="239" type="line"/>
			<point x="277" y="359" type="line"/>
			<point x="387" y="359" type="line"/>
			<point x="387" y="432" type="line"/>
			<point x="305" y="432" type="line"/>
			<point x="339" y="522" type="line"/>
			<point x="269" y="548" type="line"/>
			<point x="225" y="432" type="line"/>
			<point x="43" y="432" type="line"/>
		</contour>
	</outline>
</glyph>
<glyph name="lessequal" format="2">
	<unicode hex="2264"/>
	<advance width="430"/>
	<outline>
		<contour>
			<point x="43" y="297" type="line"/>
			<point x="43" y="369" type="line"/>
			<point x="348" y="528" type="line"/>
			<point x="382" y="461" type="line"/>
			<point x="122" y="333" type="line"/>
			<point x="382" y="205" type="line"/>
			<point x="348" y="138" type="line"/>
		</contour>
		<contour>
			<point x="43" y="73" type="line"/>
			<point x="387" y="73" type="line"/>
			<point x="387" y="0" type="line"/>
			<point x="43" y="0" type="line"/>
		</contour>
	</outline>
	<guideline x="42"/>
	<guideline x="143"/>
</glyph>
<glyph name="lozenge" format="2">
	<unicode hex="25CA"/>
	<advance width="426"/>
	<outline>
		<contour>
			<point x="28" y="347" type="curve"/>
			<point x="82" y="467"/>
			<point x="143" y="590"/>
			<point x="208" y="711" type="curve"/>
			<point x="218" y="711" type="line"/>
			<point x="283" y="589"/>
			<point x="344" y="467"/>
			<point x="398" y="347" type="curve"/>
			<point x="344" y="227"/>
			<point x="283" y="105"/>
			<point x="218" y="-17" type="curve"/>
			<point x="208" y="-17" type="line"/>
			<point x="144" y="105"/>
			<point x="80" y="227"/>
		</contour>
		<contour>
			<point x="318" y="347" type="curve"/>
			<point x="283" y="420"/>
			<point x="248" y="491"/>
			<point x="213" y="561" type="curve"/>
			<point x="177" y="491"/>
			<point x="142" y="420"/>
			<point x="108" y="347" type="curve"/>
			<point x="142" y="274"/>
			<point x="177" y="202"/>
			<point x="213" y="132" type="curve"/>
			<point x="248" y="202"/>
			<point x="283" y="274"/>
		</contour>
	</outline>
</glyph>
<glyph name="fl" format="2">
	<unicode hex="F002"/>
	<advance width="549"/>
	<outline>
		<contour>
			<point x="520" y="-10" type="line"/>
			<point x="446" y="-8"/>
			<point x="382" y="61"/>
			<point x="382" y="136" type="qcurve"/>
			<point x="382" y="761" type="line"/>
			<point x="468" y="776" type="line"/>
			<point x="468" y="134" type="line"/>
			<point x="468" y="99"/>
			<point x="496" y="68"/>
			<point x="531" y="62" type="qcurve"/>
		</contour>
		<contour>
			<point x="231" y="776" type="qcurve"/>
			<point x="254" y="776"/>
			<point x="292" y="768"/>
			<point x="306" y="762" type="qcurve"/>
			<point x="290" y="694" type="line"/>
			<point x="264" y="703"/>
			<point x="239" y="703" type="qcurve"/>
			<point x="203" y="703"/>
			<point x="164" y="656"/>
			<point x="164" y="598" type="qcurve"/>
			<point x="164" y="525" type="line"/>
			<point x="299" y="525" type="line"/>
			<point x="299" y="451" type="line"/>
			<point x="164" y="451" type="line"/>
			<point x="164" y="0" type="line"/>
			<point x="78" y="0" type="line"/>
			<point x="78" y="598" type="line"/>
			<point x="78" y="683"/>
			<point x="154" y="776"/>
		</contour>
	</outline>
</glyph>
<glyph name="caron.alt" format="2">
	<advance width="314"/>
	<outline>
		<contour>
			<point x="115" y="776" type="line"/>
			<point x="115" y="553" type="line"/>
			<point x="172" y="553" type="line"/>
			<point x="199" y="776" type="line"/>
		</contour>
	</outline>
</glyph>
<glyph name="dieresis_acute.cap" format="2">
	<advance width="314"/>
	<outline>
		<contour>
			<point x="258" y="909" type="line"/>
			<point x="148" y="783" type="line"/>
			<point x="105" y="817" type="line"/>
			<point x="200" y="958" type="line"/>
		</contour>
		<contour>
			<point x="293" y="749" type="qcurve"/>
			<point x="271" y="749"/>
			<point x="241" y="778"/>
			<point x="241" y="802" type="qcurve"/>
			<point x="241" y="826"/>
			<point x="271" y="855"/>
			<point x="293" y="855" type="qcurve"/>
			<point x="315" y="855"/>
			<point x="345" y="826"/>
			<point x="345" y="802" type="qcurve"/>
			<point x="345" y="778"/>
			<point x="315" y="749"/>
		</contour>
		<contour>
			<point x="21" y="749" type="qcurve"/>
			<point x="-1" y="749"/>
			<point x="-31" y="778"/>
			<point x="-31" y="802" type="qcurve"/>
			<point x="-31" y="826"/>
			<point x="-1" y="855"/>
			<point x="21" y="855" type="qcurve"/>
			<point x="43" y="855"/>
			<point x="73" y="826"/>
			<point x="73" y="802" type="qcurve"/>
			<point x="73" y="778"/>
			<point x="43" y="749"/>
		</contour>
	</outline>
</glyph>
<glyph name="dieresis_breve.cap" format="2">
	<advance width="314"/>
	<outline>
		<contour>
			<point x="21" y="749" type="curve" smooth="yes"/>
			<point x="50" y="749"/>
			<point x="73" y="770"/>
			<point x="73" y="802" type="curve" smooth="yes"/>
			<point x="73" y="834"/>
			<point x="50" y="855"/>
			<point x="21" y="855" type="curve" smooth="yes"/>
			<point x="-8" y="855"/>
			<point x="-31" y="834"/>
			<point x="-31" y="802" type="curve" smooth="yes"/>
			<point x="-31" y="770"/>
			<point x="-8" y="749"/>
		</contour>
		<contour>
			<point x="293" y="749" type="curve" smooth="yes"/>
			<point x="322" y="749"/>
			<point x="345" y="770"/>
			<point x="345" y="802" type="curve" smooth="yes"/>
			<point x="345" y="834"/>
			<point x="322" y="855"/>
			<point x="293" y="855" type="curve" smooth="yes"/>
			<point x="264" y="855"/>
			<point x="241" y="834"/>
			<point x="241" y="802" type="curve" smooth="yes"/>
			<point x="241" y="770"/>
			<point x="264" y="749"/>
		</contour>
		<contour>
			<point x="157" y="888" type="line"/>
			<point x="70" y="948" type="line"/>
			<point x="39" y="906" type="line"/>
			<point x="157" y="811" type="line"/>
			<point x="275" y="906" type="line"/>
			<point x="243" y="948" type="line"/>
		</contour>
	</outline>
</glyph>
<glyph name="dieresis_breve" format="2">
	<advance width="314"/>
	<outline>
		<contour>
			<point x="74" y="592" type="qcurve"/>
			<point x="52" y="592"/>
			<point x="22" y="621"/>
			<point x="22" y="645" type="qcurve"/>
			<point x="22" y="669"/>
			<point x="52" y="698"/>
			<point x="74" y="698" type="qcurve"/>
			<point x="96" y="698"/>
			<point x="126" y="669"/>
			<point x="126" y="645" type="qcurve"/>
			<point x="126" y="621"/>
			<point x="96" y="592"/>
		</contour>
		<contour>
			<point x="240" y="592" type="qcurve"/>
			<point x="218" y="592"/>
			<point x="188" y="621"/>
			<point x="188" y="645" type="qcurve"/>
			<point x="188" y="669"/>
			<point x="218" y="698"/>
			<point x="240" y="698" type="qcurve"/>
			<point x="262" y="698"/>
			<point x="292" y="669"/>
			<point x="292" y="645" type="qcurve"/>
			<point x="292" y="621"/>
			<point x="262" y="592"/>
		</contour>
		<contour>
			<point x="243" y="847" type="line"/>
			<point x="275" y="805" type="line"/>
			<point x="157" y="710" type="line"/>
			<point x="39" y="805" type="line"/>
			<point x="70" y="847" type="line"/>
			<point x="157" y="787" type="line"/>
		</contour>
	</outline>
</glyph>
<glyph name="dieresis_grave.cap" format="2">
	<advance width="314"/>
	<outline>
		<contour>
			<point x="114" y="958" type="line"/>
			<point x="209" y="817" type="line"/>
			<point x="166" y="783" type="line"/>
			<point x="56" y="909" type="line"/>
		</contour>
		<contour>
			<point x="21" y="749" type="qcurve"/>
			<point x="-1" y="749"/>
			<point x="-31" y="778"/>
			<point x="-31" y="802" type="qcurve"/>
			<point x="-31" y="826"/>
			<point x="-1" y="855"/>
			<point x="21" y="855" type="qcurve"/>
			<point x="43" y="855"/>
			<point x="73" y="826"/>
			<point x="73" y="802" type="qcurve"/>
			<point x="73" y="778"/>
			<point x="43" y="749"/>
		</contour>
		<contour>
			<point x="293" y="749" type="qcurve"/>
			<point x="271" y="749"/>
			<point x="241" y="778"/>
			<point x="241" y="802" type="qcurve"/>
			<point x="241" y="826"/>
			<point x="271" y="855"/>
			<point x="293" y="855" type="qcurve"/>
			<point x="315" y="855"/>
			<point x="345" y="826"/>
			<point x="345" y="802" type="qcurve"/>
			<point x="345" y="778"/>
			<point x="315" y="749"/>
		</contour>
	</outline>
</glyph>
<glyph name="dieresis_macron" format="2">
	<advance width="314"/>
	<outline>
		<contour>
			<point x="50" y="742" type="line"/>
			<point x="263" y="742" type="line"/>
			<point x="263" y="808" type="line"/>
			<point x="50" y="808" type="line"/>
		</contour>
		<contour>
			<point x="74" y="592" type="curve" smooth="yes"/>
			<point x="103" y="592"/>
			<point x="126" y="613"/>
			<point x="126" y="645" type="curve" smooth="yes"/>
			<point x="126" y="677"/>
			<point x="103" y="698"/>
			<point x="74" y="698" type="curve" smooth="yes"/>
			<point x="45" y="698"/>
			<point x="22" y="677"/>
			<point x="22" y="645" type="curve" smooth="yes"/>
			<point x="22" y="613"/>
			<point x="45" y="592"/>
		</contour>
		<contour>
			<point x="240" y="592" type="curve" smooth="yes"/>
			<point x="269" y="592"/>
			<point x="292" y="613"/>
			<point x="292" y="645" type="curve" smooth="yes"/>
			<point x="292" y="677"/>
			<point x="269" y="698"/>
			<point x="240" y="698" type="curve" smooth="yes"/>
			<point x="211" y="698"/>
			<point x="188" y="677"/>
			<point x="188" y="645" type="curve" smooth="yes"/>
			<point x="188" y="613"/>
			<point x="211" y="592"/>
		</contour>
	</outline>
</glyph>
<glyph name="dot_macron" format="2">
	<advance width="314"/>
	<outline>
		<contour>
			<point x="157" y="591" type="curve" smooth="yes"/>
			<point x="188" y="591"/>
			<point x="213" y="614"/>
			<point x="213" y="648" type="curve" smooth="yes"/>
			<point x="213" y="682"/>
			<point x="188" y="705"/>
			<point x="157" y="705" type="curve" smooth="yes"/>
			<point x="126" y="705"/>
			<point x="101" y="682"/>
			<point x="101" y="648" type="curve" smooth="yes"/>
			<point x="101" y="614"/>
			<point x="126" y="591"/>
		</contour>
		<contour>
			<point x="50" y="742" type="line"/>
			<point x="263" y="742" type="line"/>
			<point x="263" y="808" type="line"/>
			<point x="50" y="808" type="line"/>
		</contour>
	</outline>
</glyph>
<glyph name="double_grave" format="2">
	<advance width="314"/>
	<outline>
		<contour>
			<point x="208" y="784" type="line"/>
			<point x="304" y="614" type="line"/>
			<point x="258" y="586" type="line"/>
			<point x="146" y="743" type="line"/>
		</contour>
		<contour>
			<point x="71" y="784" type="line"/>
			<point x="167" y="614" type="line"/>
			<point x="121" y="586" type="line"/>
			<point x="9" y="743" type="line"/>
		</contour>
	</outline>
</glyph>
<glyph name="ring_acute" format="2">
	<advance width="314"/>
	<outline>
		<contour>
			<point x="246" y="822" type="line"/>
			<point x="89" y="765" type="line"/>
			<point x="68" y="815" type="line"/>
			<point x="219" y="893" type="line"/>
		</contour>
		<contour>
			<point x="238" y="662" type="qcurve"/>
			<point x="238" y="623"/>
			<point x="188" y="577"/>
			<point x="153" y="577" type="qcurve"/>
			<point x="118" y="577"/>
			<point x="68" y="623"/>
			<point x="68" y="662" type="qcurve"/>
			<point x="68" y="701"/>
			<point x="118" y="747"/>
			<point x="153" y="747" type="qcurve"/>
			<point x="188" y="747"/>
			<point x="238" y="701"/>
		</contour>
		<contour>
			<point x="193" y="662" type="qcurve"/>
			<point x="193" y="682"/>
			<point x="170" y="703"/>
			<point x="153" y="703" type="qcurve"/>
			<point x="136" y="703"/>
			<point x="113" y="682"/>
			<point x="113" y="662" type="qcurve"/>
			<point x="113" y="642"/>
			<point x="136" y="621"/>
			<point x="153" y="621" type="qcurve"/>
			<point x="170" y="621"/>
			<point x="193" y="642"/>
		</contour>
	</outline>
</glyph>
<glyph name="tonos.cap" format="2">
	<advance width="314"/>
	<outline>
		<contour>
			<point x="223" y="686" type="line"/>
			<point x="155" y="491" type="line"/>
			<point x="92" y="510" type="line"/>
			<point x="138" y="711" type="line"/>
		</contour>
	</outline>
</glyph>
